<svg xmlns="http://www.w3.org/2000/svg" version="1.1" xmlns:xlink="http://www.w3.org/1999/xlink" width="512" height="512" x="0" y="0" viewBox="0 0 512 512" style="enable-background:new 0 0 512 512" xml:space="preserve" class=""><circle r="256" cx="256" cy="256" fill="#ffffff" shape="circle"></circle><g transform="matrix(0.69,0,0,0.69,79.35984626770022,79.36000000000001)"><path fill="#d8ecfe" d="M495 418.723h-17.074V173.719c0-17.872-12.837-32.795-29.773-36.054a65.77 65.77 0 0 0 4.556-24.124c0-36.386-29.591-65.988-65.962-65.988s-65.961 29.602-65.961 65.988a65.77 65.77 0 0 0 4.298 23.455H71.114c-20.249 0-36.723 16.474-36.723 36.722v245.004H16.999a4 4 0 0 0-4 4v33.529c0 23.571 19.163 42.748 42.719 42.748H456.28c23.556 0 42.719-19.176 42.719-42.748v-33.529a4 4 0 0 0-4-4z" opacity="1" data-original="#d8ecfe" class=""></path><path fill="#8ac9fe" d="M173.06 193.678c-38.126 0-69.03 30.903-69.03 69.03s30.904 69.03 69.03 69.03 69.03-30.903 69.03-69.03-30.904-69.03-69.03-69.03zm0 103.449c-19.01 0-34.419-15.409-34.419-34.419s15.409-34.419 34.419-34.419 34.419 15.409 34.419 34.419-15.409 34.419-34.419 34.419z" opacity="1" data-original="#8ac9fe"></path><path fill="#fe646f" d="M242.09 262.709h-34.611c0 19.01-15.409 34.419-34.419 34.419-11.29 0-21.309-5.435-27.585-13.83l-24.587 24.587c12.657 14.604 31.328 23.855 52.172 23.855 38.126 0 69.03-30.903 69.03-69.03z" opacity="1" data-original="#fe646f"></path><path fill="#ffe177" d="M173.06 193.678v34.611c19.01 0 34.419 15.409 34.419 34.419h34.611c0-38.127-30.904-69.03-69.03-69.03z" opacity="1" data-original="#ffe177" class=""></path><path fill="#fd4755" d="M173.06 297.127c-11.29 0-21.309-5.435-27.585-13.83l-8.489 8.489c8.495 10.526 21.494 17.264 36.074 17.264 25.595 0 46.341-20.746 46.341-46.341h-11.923c0 19.01-15.409 34.419-34.419 34.419z" opacity="1" data-original="#fd4755"></path><path fill="#ffd064" d="M173.06 216.367v11.923c19.01 0 34.419 15.409 34.419 34.419h11.923c0-25.595-20.746-46.341-46.341-46.341z" opacity="1" data-original="#ffd064"></path><path fill="#60b7ff" d="M145.475 283.297a34.268 34.268 0 0 1-6.834-20.588c0-19.01 15.409-34.419 34.419-34.419v-11.923c-25.595 0-46.341 20.746-46.341 46.341 0 11.015 3.85 21.126 10.267 29.077l8.489-8.489z" opacity="1" data-original="#60b7ff" class=""></path><path fill="#ffe177" d="M386.748 47.554c-36.371 0-65.961 29.602-65.961 65.988 0 13.914 4.291 27.24 12.419 38.553 2.849 3.945 5.828 7.272 8.456 10.207 4.398 4.911 7.914 8.855 10.08 14.331a14.04 14.04 0 0 0-2.977 8.642v7.568c-2.877.983-4.948 3.704-4.948 6.913s2.071 5.93 4.948 6.913v7.568c0 6.724 5.11 12.526 11.658 13.823v3.041c0 8.445 6.87 15.316 15.316 15.316h22.02c8.446 0 15.316-6.871 15.316-15.316v-2.995c6.614-1.17 11.657-6.937 11.657-13.869v-7.558c2.89-.976 4.974-3.703 4.974-6.923s-2.084-5.947-4.974-6.923v-7.558c0-3.253-1.116-6.243-2.971-8.633 2.172-5.483 5.688-9.431 10.086-14.347 2.624-2.933 5.598-6.257 8.454-10.213 8.118-11.299 12.409-24.626 12.409-38.539 0-36.386-29.591-65.988-65.962-65.988z" opacity="1" data-original="#ffe177" class=""></path><path fill="#9b919b" d="M422.394 207.067h-71.266a7.31 7.31 0 1 1 0-14.622h71.266a7.31 7.31 0 1 1 0 14.622z" opacity="1" data-original="#9b919b"></path><g fill="#a79ba7"><path d="M422.394 207.067h-71.266a7.278 7.278 0 0 1-2.363-.398v7.568c0 7.642 6.598 14.099 14.409 14.099h47.433c7.788 0 14.125-6.325 14.125-14.099v-7.558a7.291 7.291 0 0 1-2.337.388zM351.128 192.444h71.266c.818 0 1.603.14 2.337.388v-7.558c0-7.788-6.337-14.125-14.125-14.125h-47.717c-7.788 0-14.125 6.336-14.125 14.125v7.568a7.278 7.278 0 0 1 2.363-.398z" fill="#a79ba7" opacity="1" data-original="#a79ba7" class=""></path></g><path fill="#ffc338" d="M425.516 103.806c-6.053-4.148-15.13-4.294-22.586-.365-4.102 2.162-10.301 6.958-13.097 16.908h-6.661c-2.796-9.95-8.995-14.746-13.097-16.908-7.454-3.93-16.533-3.784-22.589.367-4.713 3.232-6.614 9.973-4.625 16.393 1.075 3.465 6.063 14.77 25.159 14.77h1.988v36.178h14.623v-36.178h3.744v36.178h14.623v-36.178h3.984c17.528 0 22.392-9.588 23.669-13.711 2.064-6.659-.094-14-5.134-17.455zm-68.114 13.173c-.424-.571-.603-1.108-.669-1.514 1.465-.385 4.006-.415 6.524.913 1.693.892 3.08 2.225 4.147 3.966-4.847-.095-8.473-1.309-10.001-3.365zm59.055.466c-.823 1.404-3.744 2.905-9.476 2.905h-1.383c1.067-1.743 2.455-3.079 4.15-3.972 2.813-1.483 5.654-1.273 6.989-.765a2.548 2.548 0 0 1-.28 1.833z" opacity="1" data-original="#ffc338"></path><path fill="#ffd064" d="M386.748 47.554a66.28 66.28 0 0 0-5.94.281c33.596 3.016 60.021 31.325 60.021 65.707 0 13.914-4.291 27.24-12.409 38.539-2.856 3.956-5.83 7.28-8.454 10.213-2.852 3.187-5.333 5.966-7.318 9.02a14.11 14.11 0 0 1 9.114 5.327c2.172-5.483 5.688-9.431 10.086-14.347 2.624-2.933 5.598-6.257 8.454-10.213 8.118-11.299 12.409-24.626 12.409-38.539 0-36.386-29.591-65.988-65.962-65.988z" opacity="1" data-original="#ffd064"></path><path fill="#837683" d="M410.607 228.336h-47.433a14.16 14.16 0 0 1-2.752-.275v3.041c0 8.445 6.87 15.316 15.316 15.316h22.02c8.446 0 15.316-6.871 15.316-15.316v-2.995a14.14 14.14 0 0 1-2.468.23z" opacity="1" data-original="#837683" class=""></path><path fill="#685e68" d="M410.607 228.336H400.28v2.766c0 8.445-6.87 15.316-15.316 15.316h12.795c8.446 0 15.316-6.871 15.316-15.316v-2.995a14.14 14.14 0 0 1-2.468.23z" opacity="1" data-original="#685e68" class=""></path><path fill="#928693" d="M422.394 192.444h-10.457v14.623h10.457a7.31 7.31 0 1 0 0-14.622z" opacity="1" data-original="#928693"></path><g fill="#9b919b"><path d="M411.937 185.274v7.17h10.457c.818 0 1.603.14 2.337.388v-7.558c0-7.788-6.337-14.125-14.125-14.125h-12.795c7.788 0 14.125 6.336 14.125 14.125zM422.394 207.067h-10.457v7.17c0 7.774-6.337 14.099-14.125 14.099h12.795c7.788 0 14.125-6.325 14.125-14.099v-7.558a7.291 7.291 0 0 1-2.337.388z" fill="#9b919b" opacity="1" data-original="#9b919b"></path></g><path fill="#685e68" d="M495.105 418.723H309.256v22.343H202.744v-22.343H16.895A3.895 3.895 0 0 0 13 422.618v33.634C13 479.823 32.163 499 55.719 499h400.562C479.837 499 499 479.824 499 456.252v-33.634a3.895 3.895 0 0 0-3.895-3.895z" opacity="1" data-original="#685e68" class=""></path><path fill="#5e545e" d="M173.06 418.723h137.493v22.343H173.06zM495.105 418.723h-29.684a3.895 3.895 0 0 1 3.895 3.895v33.634c0 23.571-19.163 42.748-42.719 42.748h29.684C479.837 499 499 479.824 499 456.252v-33.634a3.895 3.895 0 0 0-3.895-3.895z" opacity="1" data-original="#5e545e"></path><path fill="#ffc338" d="M386.748 37.73a8 8 0 0 1-8-8V21a8 8 0 0 1 16 0v8.73a8 8 0 0 1-8 8zM444.972 61.825a8 8 0 0 1-5.657-13.656l6.151-6.151a8 8 0 0 1 11.314 11.313l-6.151 6.151a7.974 7.974 0 0 1-5.657 2.343zM477.797 120.049h-8.702a8 8 0 0 1 0-16h8.702a8 8 0 0 1 0 16zM328.524 61.825a7.974 7.974 0 0 1-5.657-2.343l-6.151-6.151a8 8 0 1 1 11.314-11.313l6.151 6.151a8 8 0 0 1-5.657 13.656zM304.401 120.049h-8.702a8 8 0 0 1 0-16h8.702a8 8 0 0 1 0 16z" opacity="1" data-original="#ffc338"></path><path fill="#a79ba7" d="M399.561 400.847H262.733a8 8 0 0 1 0-16h136.828a8 8 0 0 1 0 16z" opacity="1" data-original="#a79ba7" class=""></path><path fill="#8ac9fe" d="M362.666 298.284h31.536v86.564h-31.536z" opacity="1" data-original="#8ac9fe"></path><path fill="#ffe177" d="M331.163 333.263h31.503v51.584h-31.503z" opacity="1" data-original="#ffe177" class=""></path><path fill="#6cf5c2" d="M299.627 316.028h31.536v68.819h-31.536z" opacity="1" data-original="#6cf5c2" class=""></path><path fill="#fe646f" d="M268.091 345.566h31.536v39.282h-31.536z" opacity="1" data-original="#fe646f"></path><path fill="#60b7ff" d="M386.202 298.284h8v86.564h-8z" opacity="1" data-original="#60b7ff" class=""></path><path fill="#ffd064" d="M354.666 333.263h8v51.584h-8z" opacity="1" data-original="#ffd064"></path><path fill="#00e499" d="M323.163 316.028h8v68.819h-8z" opacity="1" data-original="#00e499"></path><path fill="#fd4755" d="M291.627 345.566h8v39.282h-8z" opacity="1" data-original="#fd4755"></path><g fill="#a79ba7"><path d="M280.534 250.356h-11.112a8 8 0 0 1 0-16h11.112a8 8 0 0 1 0 16zM337.454 250.356h-33.676a8 8 0 0 1 0-16h33.676a8 8 0 0 1 0 16zM351.825 270.708H269.28a8 8 0 0 1 0-16h82.545a8 8 0 0 1 0 16zM317.328 291.09H269.28a8 8 0 0 1 0-16h48.048a8 8 0 0 1 0 16zM127.321 360.113h-14.882a8 8 0 0 1 0-16h14.882a8 8 0 0 1 0 16zM222.764 360.113h-64.346a8 8 0 0 1 0-16h64.346a8 8 0 0 1 0 16zM222.764 380.495H112.27a8 8 0 0 1 0-16h110.494a8 8 0 0 1 0 16zM176.588 400.847H112.27a8 8 0 0 1 0-16h64.318a8 8 0 0 1 0 16z" fill="#a79ba7" opacity="1" data-original="#a79ba7" class=""></path></g><path fill="#c4e2ff" d="M443.827 167.096h-8.511a36.7 36.7 0 0 1 .61 6.624v245.004h11.901V171.097a4 4 0 0 0-4-4z" opacity="1" data-original="#c4e2ff"></path><g fill="#837683"><path d="M448.153 137.665a66.193 66.193 0 0 1-7.853 14.416c-2.856 3.956-5.83 7.28-8.454 10.213-1.504 1.681-2.895 3.247-4.174 4.801h16.155a4 4 0 0 1 4 4v247.627h30.099V173.718c0-17.872-12.837-32.795-29.773-36.054zM341.661 162.302c-2.627-2.935-5.607-6.262-8.456-10.207a66.232 66.232 0 0 1-8.121-15.098H71.114c-20.249 0-36.723 16.474-36.723 36.722v245.004H64.49V171.096a4 4 0 0 1 4-4h277.343c-1.278-1.552-2.669-3.116-4.171-4.794z" fill="#837683" opacity="1" data-original="#837683" class=""></path></g><path fill="#776d77" d="M448.153 137.665a66.193 66.193 0 0 1-7.853 14.416c-2.291 3.173-4.655 5.935-6.856 8.42a36.398 36.398 0 0 1 1.872 6.595h8.511a4 4 0 0 1 4 4v247.627h30.099V173.719c0-17.872-12.837-32.795-29.773-36.054z" opacity="1" data-original="#776d77"></path></g></svg>