<svg xmlns="http://www.w3.org/2000/svg" version="1.1" xmlns:xlink="http://www.w3.org/1999/xlink" width="512" height="512" x="0" y="0" viewBox="0 0 512 512" style="enable-background:new 0 0 512 512" xml:space="preserve"><circle r="256" cx="256" cy="256" fill="#ffffff" shape="circle"></circle><g transform="matrix(0.69,0,0,0.69,79.36015314102175,79.36000886917117)"><path fill="#f78721" d="m336.296 465.017-6.943 27.008a18.154 18.154 0 0 1-17.582 13.634H200.218a18.153 18.153 0 0 1-17.582-13.634l-6.943-27.008c-9.361-36.417 18.141-71.883 55.742-71.883h49.119c37.601 0 65.104 35.466 55.742 71.883z" opacity="1" data-original="#f78721"></path><path d="m336.304 465.022-6.95 26.996a18.143 18.143 0 0 1-17.583 13.641H200.218a18.142 18.142 0 0 1-17.583-13.641l-1.53-5.964h83.157c24.714 0 46.265-16.727 52.411-40.637 4.072-15.819 1.193-31.456-6.457-44.06 20.85 12.551 32.727 37.888 26.088 63.665z" opacity="1" fill="#00000012" data-original="#00000012"></path><path fill="#474747" d="M312.115 326.737c0 30.982-25.108 56.145-56.09 56.145-31.038 0-56.145-25.163-56.145-56.145s25.107-56.145 56.145-56.145c30.982-.001 56.09 25.162 56.09 56.145z" opacity="1" data-original="#474747"></path><path d="M312.12 326.727c0 31-25.096 56.149-56.096 56.149-22.829 0-42.442-13.602-51.194-33.163 7.012 3.217 14.815 4.956 22.987 4.956 31.001 0 56.097-25.149 56.097-56.15 0-8.224-1.793-16.028-5.009-23.04 19.56 8.754 33.215 28.419 33.215 51.248z" opacity="1" fill="#00000010" data-original="#00000010"></path><path fill="#ebd8ae" d="M299.941 334.846v20.437c0 24.609-20.138 45.912-44.743 45.459-11.848-.218-22.5-5.128-30.281-12.857-7.961-8.013-12.864-18.979-12.864-31.106v-21.933c0-8.735 7.081-15.817 15.817-15.817h56.255c8.735 0 15.816 7.082 15.816 15.817z" opacity="1" data-original="#ebd8ae"></path><path fill="#0e9c4a" d="m477.67 384.222-4.97 19.334a12.996 12.996 0 0 1-12.586 9.76h-79.857a12.996 12.996 0 0 1-12.586-9.76l-4.97-19.334c-6.701-26.069 12.987-51.458 39.904-51.458h35.162c26.917 0 46.605 25.389 39.903 51.458z" opacity="1" data-original="#0e9c4a"></path><path d="m477.676 384.226-4.975 19.325a12.987 12.987 0 0 1-12.587 9.765h-79.856a12.987 12.987 0 0 1-12.587-9.765l-1.095-4.27h59.528c17.692 0 33.119-11.974 37.519-29.09 2.915-11.324.854-22.518-4.623-31.541 14.926 8.985 23.428 27.123 18.676 45.576z" opacity="1" fill="#00000012" data-original="#00000012"></path><path fill="#474747" d="M460.36 285.233c0 22.179-17.974 40.192-40.152 40.192-22.219 0-40.192-18.013-40.192-40.192s17.973-40.192 40.192-40.192c22.178 0 40.152 18.013 40.152 40.192z" opacity="1" data-original="#474747"></path><path d="M460.364 285.226c0 22.192-17.965 40.195-40.157 40.195-16.342 0-30.382-9.737-36.647-23.74 5.02 2.303 10.605 3.548 16.455 3.548 22.192 0 40.157-18.003 40.157-40.195a39.444 39.444 0 0 0-3.586-16.493c14.003 6.265 23.778 20.342 23.778 36.685z" opacity="1" fill="#00000010" data-original="#00000010"></path><path fill="#ebd8ae" d="M451.645 291.038v14.63c0 17.617-14.416 32.867-32.03 32.542-8.482-.156-16.107-3.671-21.677-9.204-5.699-5.736-9.209-13.587-9.209-22.267v-15.701c0-6.253 5.069-11.323 11.323-11.323h40.271c6.253 0 11.322 5.069 11.322 11.323z" opacity="1" data-original="#ebd8ae"></path><path fill="#f14f4a" d="m149.291 384.222-4.97 19.334a12.996 12.996 0 0 1-12.586 9.76H51.878a12.996 12.996 0 0 1-12.586-9.76l-4.97-19.334c-6.701-26.069 12.987-51.458 39.904-51.458h35.162c26.917 0 46.605 25.389 39.903 51.458z" opacity="1" data-original="#f14f4a"></path><path d="m149.297 384.226-4.975 19.325a12.987 12.987 0 0 1-12.587 9.765H51.879a12.987 12.987 0 0 1-12.587-9.765l-1.095-4.27h59.528c17.692 0 33.119-11.974 37.519-29.09 2.915-11.324.854-22.518-4.623-31.541 14.926 8.985 23.429 27.123 18.676 45.576z" opacity="1" fill="#00000012" data-original="#00000012"></path><path fill="#474747" d="M131.981 285.233c0 22.179-17.974 40.192-40.152 40.192-22.219 0-40.192-18.013-40.192-40.192s17.973-40.192 40.192-40.192c22.179 0 40.152 18.013 40.152 40.192z" opacity="1" data-original="#474747"></path><path d="M131.985 285.226c0 22.192-17.965 40.195-40.157 40.195-16.342 0-30.382-9.737-36.647-23.74 5.02 2.303 10.605 3.548 16.455 3.548 22.192 0 40.157-18.003 40.157-40.195a39.444 39.444 0 0 0-3.586-16.493c14.003 6.265 23.778 20.342 23.778 36.685z" opacity="1" fill="#00000010" data-original="#00000010"></path><path fill="#ebd8ae" d="M123.266 291.038v14.63c0 17.617-14.416 32.867-32.03 32.542-8.482-.156-16.107-3.671-21.677-9.204-5.699-5.736-9.209-13.587-9.209-22.267v-15.701c0-6.253 5.069-11.323 11.323-11.323h40.271c6.253 0 11.322 5.069 11.322 11.323z" opacity="1" data-original="#ebd8ae"></path><path fill="#e8f1f8" d="M483.004 32.9v165.294c0 14.668-11.891 26.559-26.559 26.559H55.556c-14.668 0-26.559-11.891-26.559-26.559V32.9c0-14.668 11.891-26.559 26.559-26.559h400.888c14.669 0 26.56 11.891 26.56 26.559z" opacity="1" data-original="#e8f1f8"></path><path d="M482.977 32.9v165.307c0 14.66-11.845 26.559-26.559 26.559H55.582c-14.714 0-26.559-11.9-26.559-26.559v-48.179c42.601 24.593 92.055 38.671 144.802 38.671 122.174 0 226.764-75.482 269.579-182.358h13.014c14.714 0 26.559 11.899 26.559 26.559z" opacity="1" fill="#00000012" data-original="#00000012"></path><path fill="#474747" d="m177.73 187.685-67.945-38.553a5.314 5.314 0 0 1-1.997-7.242 5.308 5.308 0 0 1 7.242-2.002l64.347 36.514 65.084-67.929a5.309 5.309 0 0 1 6.295-1.037l64.116 33.469 65.208-79.352a5.305 5.305 0 0 1 7.475-.731 5.31 5.31 0 0 1 .731 7.475l-67.945 82.682a5.314 5.314 0 0 1-6.562 1.338l-64.407-33.62-65.185 68.038a5.312 5.312 0 0 1-6.457.95z" opacity="1" data-original="#474747"></path><path fill="#474747" d="M386.559 94.052 354.13 67.473c-5.294-4.339-3.021-12.886 3.728-14.024l31.471-5.305c4.772-.804 9.157 2.789 9.302 7.624l.958 31.884c.206 6.838-7.736 10.739-13.03 6.4z" opacity="1" data-original="#474747"></path></g></svg>