<svg xmlns="http://www.w3.org/2000/svg" version="1.1" xmlns:xlink="http://www.w3.org/1999/xlink" width="512" height="512" x="0" y="0" viewBox="0 0 512 512" style="enable-background:new 0 0 512 512" xml:space="preserve" class=""><circle r="256" cx="256" cy="256" fill="#ffffff" shape="circle"></circle><g transform="matrix(0.69,0,0,0.69,79.35844848632814,79.35999807834628)"><g fill-rule="evenodd" clip-rule="evenodd"><path fill="#0593fc" d="M467.79 330.28h-20.86c-24.04 0-43.71 19.67-43.71 43.71v19.13c0 3.34 2.72 6.09 6.09 6.09h96.09c3.34 0 6.09-2.75 6.09-6.09v-19.13c.01-24.04-19.66-43.71-43.7-43.71z" opacity="1" data-original="#0593fc"></path><path fill="#0584e3" d="M467.79 330.28h-20.86c-9.72 0-18.74 3.2-25.99 8.65 9.3 9.33 22.2 15.11 36.43 15.11s27.1-5.78 36.43-15.14c-7.3-5.42-16.29-8.62-26.01-8.62z" opacity="1" data-original="#0584e3"></path><path fill="#056bb8" d="M423.17 399.22h16.5v-23.5c0-4.56-3.69-8.25-8.25-8.25-4.54 0-8.25 3.69-8.25 8.25zm51.88 0h16.47v-23.5c0-4.56-3.69-8.25-8.25-8.25-4.54 0-8.22 3.69-8.22 8.25z" opacity="1" data-original="#056bb8"></path><path fill="#fbbd80" d="M457.36 338.05c19.5 0 35.43-15.9 35.43-35.43 0-19.5-15.93-35.43-35.43-35.43-19.53 0-35.43 15.93-35.43 35.43 0 19.53 15.9 35.43 35.43 35.43z" opacity="1" data-original="#fbbd80"></path><path fill="#0593fc" d="M282.09 17.88h55.11l35.54 45.04v47.79h-90.65z" opacity="1" data-original="#0593fc"></path><path fill="#8bd7fa" d="M322.34 17.88h14.86l35.54 45.04h-50.4z" opacity="1" data-original="#8bd7fa"></path><path fill="#ff4646" d="M144.58 2.6h145.7v108.11h-145.7z" opacity="1" data-original="#ff4646"></path><path fill="#2f5274" d="M331.5 131.18c11.28 0 20.47-9.21 20.47-20.47 0-11.28-9.18-20.47-20.47-20.47-11.25 0-20.44 9.18-20.44 20.47 0 11.25 9.19 20.47 20.44 20.47zM188.35 131.18c11.25 0 20.44-9.21 20.44-20.47 0-11.28-9.18-20.47-20.44-20.47-11.28 0-20.47 9.18-20.47 20.47.01 11.25 9.19 20.47 20.47 20.47z" opacity="1" data-original="#2f5274"></path><path fill="#ffd400" d="M7.84 269.14h116.7c4.05 0 7.34 3.32 7.34 7.34v115.4c0 4.03-3.29 7.34-7.34 7.34H7.84c-4.03 0-7.34-3.32-7.34-7.34v-115.4c0-4.02 3.32-7.34 7.34-7.34z" opacity="1" data-original="#ffd400"></path><path fill="#ff4646" d="M66.21 269.14h20.41v50.17l-20.41-14.97-20.44 14.97v-50.17z" opacity="1" data-original="#ff4646"></path><path fill="#2f5274" d="M306.41 382.44h-77.73v27.07c0 9.64 7.88 17.55 17.52 17.55h42.69c9.64 0 17.52-7.91 17.52-17.55z" opacity="1" data-original="#2f5274"></path><path fill="#ffd400" d="M267.55 176.64c-47.14 0-85.38 38.21-85.38 85.35 0 35.97 16.67 48.93 33.53 68.66 8.73 10.2 12.98 21.74 12.98 35.18h77.73c0-13.44 4.25-24.97 12.98-35.18 16.87-19.73 33.53-32.68 33.53-68.66.01-47.13-38.23-85.35-85.37-85.35z" opacity="1" data-original="#ffd400"></path><path fill="#daeafa" d="M308.91 391.96h-82.72c-8.82 0-16.04-7.23-16.04-16.04 0-8.82 7.23-16.04 16.04-16.04h82.72c8.82 0 16.04 7.23 16.04 16.04 0 8.82-7.23 16.04-16.04 16.04z" opacity="1" data-original="#daeafa"></path><path fill="#2f5274" d="M283.79 218.85c4.76 1.79 9.16 4.34 13.01 7.51l12.87-7.43 16.24 28.12-12.87 7.43c.4 2.47.62 4.96.62 7.51 0 2.58-.23 5.07-.62 7.51l12.87 7.46-16.24 28.12-12.87-7.43a45.793 45.793 0 0 1-13.01 7.51v14.85H251.3v-14.85a45.893 45.893 0 0 1-13.01-7.51l-12.87 7.43-16.24-28.12 12.87-7.46c-.4-2.44-.62-4.93-.62-7.51 0-2.55.23-5.05.62-7.51l-12.87-7.43 16.24-28.12 12.87 7.43c3.85-3.17 8.25-5.73 13.01-7.51V204h32.49z" opacity="1" data-original="#2f5274"></path><path fill="#edf6ff" d="M267.55 283.88c12.05 0 21.88-9.84 21.88-21.88 0-12.05-9.84-21.85-21.88-21.85-12.05 0-21.88 9.81-21.88 21.85s9.83 21.88 21.88 21.88z" opacity="1" data-original="#edf6ff"></path></g><path fill="#70da40" d="M44.07 239.26c-.74 4.48-4.99 7.51-9.47 6.75a8.194 8.194 0 0 1-6.75-9.47 232.381 232.381 0 0 1 27.5-77.16c13.72-24.01 31.61-45.38 52.72-63.13 3.46-2.92 8.65-2.47 11.57.99 2.89 3.46 2.47 8.65-1.02 11.57a218.506 218.506 0 0 0-48.98 58.73 216.43 216.43 0 0 0-25.57 71.72zm354.61-130.45c-3.46-2.92-3.91-8.11-.99-11.57s8.11-3.91 11.57-.99c21.46 18.06 39.6 39.86 53.43 64.37a232.564 232.564 0 0 1 27.24 78.72c.68 4.48-2.38 8.67-6.86 9.35-4.48.71-8.67-2.38-9.38-6.86-4.03-26.19-12.78-50.88-25.37-73.16a217.784 217.784 0 0 0-49.64-59.86zm18.12 316.01c3.09-3.32 8.31-3.46 11.62-.37 3.29 3.12 3.46 8.33.34 11.62-21.77 23.02-48.1 41.61-77.58 54.31-28.37 12.25-59.67 19.02-92.52 19.02-32.83 0-64.12-6.77-92.49-19.02-29.48-12.7-55.84-31.29-77.58-54.31-3.12-3.29-2.95-8.5.34-11.62 3.32-3.09 8.53-2.95 11.62.37 20.21 21.34 44.7 38.64 72.11 50.46 26.36 11.34 55.45 17.63 86 17.63 30.59 0 59.64-6.29 86.03-17.63 27.4-11.83 51.89-29.12 72.11-50.46z" opacity="1" data-original="#70da40"></path><path fill="#e63f3f" fill-rule="evenodd" d="M144.58 2.6h15.73v108.11h-15.73z" clip-rule="evenodd" opacity="1" data-original="#e63f3f" class=""></path><path fill="#2a4a68" fill-rule="evenodd" d="M176.56 110.71c0-9.81 6.92-18 16.13-19.98-1.42-.31-2.86-.48-4.34-.48-11.31 0-20.47 9.16-20.47 20.47 0 11.28 9.16 20.47 20.47 20.47 1.47 0 2.92-.17 4.34-.48-9.21-2-16.13-10.19-16.13-20zM331.5 90.24c-11.28 0-20.44 9.16-20.44 20.47 0 11.28 9.16 20.47 20.44 20.47 1.5 0 2.95-.17 4.34-.48-9.21-1.98-16.1-10.18-16.1-19.98s6.89-18 16.1-19.98c-1.39-.33-2.84-.5-4.34-.5z" clip-rule="evenodd" opacity="1" data-original="#2a4a68"></path><path fill="#e6bf00" fill-rule="evenodd" d="M15.66 391.88v-115.4c0-4.03 3.29-7.34 7.34-7.34H7.84c-4.03 0-7.34 3.32-7.34 7.34v115.4c0 4.03 3.32 7.34 7.34 7.34h15.17c-4.06 0-7.35-3.32-7.35-7.34z" clip-rule="evenodd" opacity="1" data-original="#e6bf00"></path><path fill="#e63f3f" fill-rule="evenodd" d="M54.3 313.05v-43.91h-8.53v50.17zM70.46 301.23l-4.25 3.11 20.41 14.97v-6.26z" clip-rule="evenodd" opacity="1" data-original="#e63f3f" class=""></path><path fill="#e6bf00" fill-rule="evenodd" d="M245.02 359.88c-1.08-10.91-5.27-20.55-12.67-29.23-16.87-19.73-33.53-32.68-33.53-68.66 0-44.33 33.82-80.79 77.05-84.95-2.72-.28-5.5-.4-8.31-.4-47.14 0-85.38 38.21-85.38 85.35 0 35.97 16.67 48.93 33.53 68.66 7.4 8.67 11.59 18.31 12.67 29.23h14.46z" clip-rule="evenodd" opacity="1" data-original="#e6bf00"></path><path fill="#c4d3e1" fill-rule="evenodd" d="M226.79 375.92c0-3.83 1.33-7.34 3.6-10.09 2.95-3.63 7.43-5.95 12.44-5.95h-16.64c-8.82 0-16.04 7.23-16.04 16.04 0 8.82 7.23 16.04 16.04 16.04H242.82c-6.09 0-11.45-3.46-14.14-8.5a15.846 15.846 0 0 1-1.89-7.54z" clip-rule="evenodd" opacity="1" data-original="#c4d3e1"></path><path fill="#2a4a68" fill-rule="evenodd" d="M242.83 391.96h-14.14v17.55c0 9.64 7.88 17.55 17.52 17.55h16.64c-9.64 0-17.55-7.91-17.55-17.55v-17.55z" clip-rule="evenodd" opacity="1" data-original="#2a4a68"></path><path fill="#d5dde6" fill-rule="evenodd" d="M254.4 262c0-10.57 7.54-19.39 17.52-21.43a22.41 22.41 0 0 0-4.37-.43c-12.08 0-21.88 9.78-21.88 21.85 0 12.1 9.81 21.88 21.88 21.88 1.5 0 2.95-.14 4.37-.43-9.98-2.03-17.52-10.84-17.52-21.44z" clip-rule="evenodd" opacity="1" data-original="#d5dde6"></path></g></svg>