<svg xmlns="http://www.w3.org/2000/svg" version="1.1" xmlns:xlink="http://www.w3.org/1999/xlink" width="512" height="512" x="0" y="0" viewBox="0 0 512 512" style="enable-background:new 0 0 512 512" xml:space="preserve" class=""><circle r="256" cx="256" cy="256" fill="#ffffff" shape="circle"></circle><g transform="matrix(0.69,0,0,0.69,79.3598439025879,79.35999822610898)"><path fill="#cdbeb9" d="M159.125 168.917a7.707 7.707 0 0 1-5.466-2.264l-31.555-31.56a7.725 7.725 0 0 1 .003-10.927 7.73 7.73 0 0 1 10.93.003l31.555 31.56a7.725 7.725 0 0 1-5.467 13.188zM352.875 168.888a7.726 7.726 0 0 1-5.493-13.161l31.555-31.876a7.73 7.73 0 0 1 10.93-.057 7.726 7.726 0 0 1 .057 10.927l-31.555 31.876a7.712 7.712 0 0 1-5.494 2.291zM127.57 394.261a7.725 7.725 0 0 1-5.463-13.191l31.555-31.532a7.73 7.73 0 0 1 10.93.002 7.725 7.725 0 0 1-.003 10.927l-31.555 31.532a7.705 7.705 0 0 1-5.464 2.262zM384.43 394.634a7.707 7.707 0 0 1-5.494-2.292l-31.555-31.876a7.726 7.726 0 0 1 .057-10.927 7.731 7.731 0 0 1 10.93.057l31.555 31.876a7.726 7.726 0 0 1-5.493 13.162zM118.985 265.808H83.469a7.727 7.727 0 1 1 0-15.452h35.517a7.727 7.727 0 1 1-.001 15.452zM428.531 265.808h-35.517a7.727 7.727 0 1 1 0-15.452h35.517a7.727 7.727 0 1 1 0 15.452zM256 438.399a7.727 7.727 0 0 1-7.729-7.726V395.15c0-4.267 3.46-7.726 7.729-7.726s7.729 3.459 7.729 7.726v35.523a7.727 7.727 0 0 1-7.729 7.726zM256 128.77a7.727 7.727 0 0 1-7.729-7.726V85.52c0-4.267 3.46-7.726 7.729-7.726s7.729 3.459 7.729 7.726v35.523A7.728 7.728 0 0 1 256 128.77z" opacity="1" data-original="#cdbeb9"></path><path fill="#22a6fe" fill-rule="evenodd" d="M478.95 129.285c15.893-13.464 26.013-33.632 26.013-55.999C504.963 32.91 472.031 0 431.69 0c-40.369 0-73.274 32.91-73.274 73.286 0 22.373 10.116 42.535 26.013 55.999 12.773 10.817 81.745 10.824 94.521 0z" clip-rule="evenodd" opacity="1" data-original="#22a6fe"></path><path fill="#0182fc" fill-rule="evenodd" d="M431.69 0c40.456 0 73.274 32.795 73.274 73.286 0 40.463-32.818 73.286-73.274 73.286a73.008 73.008 0 0 1-23.343-3.819c28.597-9.965 49.155-37.189 49.155-69.209 0-32.307-20.931-59.732-49.959-69.496A73.875 73.875 0 0 1 431.69 0z" clip-rule="evenodd" opacity="1" data-original="#0182fc"></path><path fill="#fd4755" fill-rule="evenodd" d="M412.309 86.209c-16.395 7.438-27.88 23.979-27.88 43.076 12.748 10.769 29.258 17.288 47.26 17.288 18.003 0 34.483-6.519 47.26-17.288 0-19.097-11.485-35.638-27.88-43.076z" clip-rule="evenodd" opacity="1" data-original="#fd4755"></path><path fill="#ffe5c1" fill-rule="evenodd" d="M400.767 62.115c0 9.735 4.508 18.408 11.542 24.094 5.283 4.279 12.03 6.835 19.381 6.835 7.35 0 14.069-2.556 19.381-6.835 7.034-5.686 11.542-14.359 11.542-24.094 0-17.087-13.839-30.928-30.923-30.928s-30.923 13.842-30.923 30.928z" clip-rule="evenodd" opacity="1" data-original="#ffe5c1"></path><path fill="#fed1a3" fill-rule="evenodd" d="M423.938 32.163c13.322 3.446 23.142 15.536 23.142 29.952 0 9.735-4.479 18.408-11.514 24.094h-.029c-3.359 2.699-7.293 4.738-11.628 5.83a30.24 30.24 0 0 0 7.781 1.005c7.35 0 14.069-2.556 19.381-6.835 7.034-5.686 11.542-14.359 11.542-24.094 0-17.087-13.839-30.928-30.923-30.928-2.67 0-5.283.316-7.752.976z" clip-rule="evenodd" opacity="1" data-original="#fed1a3"></path><path fill="#e41e2b" fill-rule="evenodd" d="M439.988 91.895c13.236 9.706 22.223 31.015 22.596 47.843a73.144 73.144 0 0 0 16.366-10.453c0-19.097-11.485-35.638-27.88-43.076-3.215 2.585-6.976 4.566-11.082 5.686z" clip-rule="evenodd" opacity="1" data-original="#e41e2b"></path><path fill="#22a6fe" fill-rule="evenodd" d="M122.996 494.322c15.915-13.464 26.051-33.568 26.051-55.953 0-40.376-32.933-73.286-73.274-73.286-40.369 0-73.274 32.91-73.274 73.286 0 22.388 10.131 42.496 26.047 55.96 12.769 10.8 81.679 10.798 94.45-.007z" clip-rule="evenodd" opacity="1" data-original="#22a6fe"></path><path fill="#0182fc" fill-rule="evenodd" d="M75.774 365.082c40.455 0 73.274 32.795 73.274 73.286 0 40.463-32.818 73.286-73.274 73.286a72.876 72.876 0 0 1-23.343-3.819c28.597-9.965 49.127-37.189 49.127-69.209 0-32.307-20.902-59.732-49.931-69.467 7.551-2.641 15.676-4.077 24.147-4.077z" clip-rule="evenodd" opacity="1" data-original="#0182fc"></path><path fill="#fd4755" fill-rule="evenodd" d="M56.364 451.292c-16.395 7.438-27.851 23.979-27.851 43.076 12.748 10.769 29.229 17.288 47.26 17.288 18.003 0 34.483-6.519 47.26-17.288 0-19.097-11.485-35.638-27.88-43.076z" clip-rule="evenodd" opacity="1" data-original="#fd4755"></path><path fill="#ffe5c1" fill-rule="evenodd" d="M44.85 427.198c0 9.735 4.479 18.408 11.514 24.094a30.822 30.822 0 0 0 19.409 6.835 30.802 30.802 0 0 0 19.381-6.835c7.034-5.686 11.542-14.359 11.542-24.094 0-17.087-13.868-30.928-30.923-30.928-17.083-.001-30.923 13.841-30.923 30.928z" clip-rule="evenodd" opacity="1" data-original="#ffe5c1"></path><path fill="#fed1a3" fill-rule="evenodd" d="M68.021 397.246c13.322 3.446 23.142 15.536 23.142 29.952 0 9.735-4.508 18.408-11.542 24.094a31.117 31.117 0 0 1-11.628 5.858c2.498.632 5.082.976 7.781.976a30.802 30.802 0 0 0 19.381-6.835c7.034-5.686 11.542-14.359 11.542-24.094 0-17.087-13.868-30.928-30.923-30.928-2.699 0-5.284.345-7.753.977z" clip-rule="evenodd" opacity="1" data-original="#fed1a3"></path><path fill="#e41e2b" fill-rule="evenodd" d="M84.071 457.006c13.236 9.678 22.195 30.986 22.597 47.814a73.783 73.783 0 0 0 16.366-10.453c0-19.097-11.485-35.638-27.88-43.076a31.073 31.073 0 0 1-11.083 5.715z" clip-rule="evenodd" opacity="1" data-original="#e41e2b"></path><path fill="#22a6fe" fill-rule="evenodd" d="M482.794 495.233c16.295-13.458 26.706-33.808 26.706-56.52 0-40.348-32.904-73.286-73.274-73.286-40.341 0-73.274 32.939-73.274 73.286 0 22.406 10.142 42.513 26.063 55.973 12.77 10.795 81.106 11.015 93.779.547z" clip-rule="evenodd" opacity="1" data-original="#22a6fe"></path><path fill="#0182fc" fill-rule="evenodd" d="M436.226 365.427c40.484 0 73.274 32.824 73.274 73.286 0 40.491-32.789 73.286-73.274 73.286-8.154 0-15.993-1.321-23.314-3.791 28.597-9.965 49.127-37.189 49.127-69.209 0-32.307-20.902-59.732-49.931-69.496a72.99 72.99 0 0 1 24.118-4.076z" clip-rule="evenodd" opacity="1" data-original="#0182fc"></path><path fill="#fdb440" fill-rule="evenodd" d="M416.846 451.636c-16.395 7.438-27.88 24.008-27.88 43.105C401.743 505.51 418.224 512 436.226 512c18.031 0 34.512-6.49 47.26-17.259 0-19.097-11.456-35.667-27.851-43.105z" clip-rule="evenodd" opacity="1" data-original="#fdb440"></path><path fill="#ffe5c1" fill-rule="evenodd" d="M405.303 427.543c0 9.735 4.508 18.436 11.542 24.094a30.802 30.802 0 0 0 19.381 6.835 30.82 30.82 0 0 0 19.409-6.835 30.836 30.836 0 0 0 11.514-24.094c0-17.058-13.839-30.928-30.923-30.928-17.055-.001-30.923 13.869-30.923 30.928z" clip-rule="evenodd" opacity="1" data-original="#ffe5c1"></path><path fill="#fed1a3" fill-rule="evenodd" d="M428.474 397.59c13.322 3.446 23.171 15.565 23.171 29.952 0 9.735-4.508 18.436-11.542 24.094a30.694 30.694 0 0 1-11.628 5.858 31.32 31.32 0 0 0 7.752.976 30.82 30.82 0 0 0 19.409-6.835 30.836 30.836 0 0 0 11.514-24.094c0-17.058-13.839-30.928-30.923-30.928a31.594 31.594 0 0 0-7.753.977z" clip-rule="evenodd" opacity="1" data-original="#fed1a3"></path><path fill="#fe9900" fill-rule="evenodd" d="M444.524 457.351c13.265 9.678 22.223 31.015 22.625 47.843a73.573 73.573 0 0 0 16.337-10.453c0-19.097-11.456-35.667-27.851-43.105a30.981 30.981 0 0 1-11.111 5.715z" clip-rule="evenodd" opacity="1" data-original="#fe9900"></path><path fill="#22a6fe" fill-rule="evenodd" d="M127.57 129.285c15.916-13.464 26.047-33.571 26.047-55.959C153.617 32.95 120.713.04 80.343.04 40.002.04 7.069 32.95 7.069 73.326c0 22.385 10.137 42.49 26.052 55.954 12.772 10.804 81.682 10.806 94.449.005z" clip-rule="evenodd" opacity="1" data-original="#22a6fe"></path><path fill="#0182fc" fill-rule="evenodd" d="M80.31 0c40.484 0 73.274 32.795 73.274 73.286 0 40.463-32.789 73.286-73.274 73.286a73.137 73.137 0 0 1-23.343-3.819c28.626-9.965 49.155-37.189 49.155-69.209 0-32.307-20.902-59.732-49.931-69.496A73.711 73.711 0 0 1 80.31 0z" clip-rule="evenodd" opacity="1" data-original="#0182fc"></path><path fill="#fdb440" fill-rule="evenodd" d="M60.929 86.209c-16.395 7.438-27.88 23.979-27.88 43.076 12.777 10.769 29.258 17.288 47.26 17.288s34.512-6.519 47.26-17.288c0-19.097-11.485-35.638-27.88-43.076z" clip-rule="evenodd" opacity="1" data-original="#fdb440"></path><path fill="#ffe5c1" fill-rule="evenodd" d="M49.387 62.115c0 9.735 4.508 18.408 11.542 24.094a30.802 30.802 0 0 0 19.381 6.835c7.35 0 14.098-2.556 19.381-6.835 7.034-5.686 11.542-14.359 11.542-24.094 0-17.087-13.839-30.928-30.923-30.928S49.387 45.029 49.387 62.115z" clip-rule="evenodd" opacity="1" data-original="#ffe5c1"></path><path fill="#fed1a3" fill-rule="evenodd" d="M72.558 32.163c13.322 3.446 23.171 15.536 23.171 29.952 0 9.735-4.508 18.408-11.542 24.094-3.388 2.699-7.322 4.738-11.628 5.83a30.017 30.017 0 0 0 7.752 1.005c7.35 0 14.098-2.556 19.381-6.835 7.034-5.686 11.542-14.359 11.542-24.094 0-17.087-13.839-30.928-30.923-30.928-2.671 0-5.255.316-7.753.976z" clip-rule="evenodd" opacity="1" data-original="#fed1a3"></path><path fill="#fe9900" fill-rule="evenodd" d="M88.608 91.895c13.236 9.706 22.223 31.015 22.625 47.843a73.573 73.573 0 0 0 16.337-10.453c0-19.097-11.485-35.638-27.88-43.076-3.215 2.585-6.976 4.566-11.082 5.686z" clip-rule="evenodd" opacity="1" data-original="#fe9900"></path><path fill="#f8f2f0" fill-rule="evenodd" d="M337.316 368.284c33.75-25.006 55.699-65.121 55.699-110.202 0-75.469-61.559-137.039-137.015-137.039s-137.015 61.57-137.015 137.039c0 45.08 21.948 85.195 55.697 110.201 22.773 16.872 139.862 16.873 162.634.001z" clip-rule="evenodd" opacity="1" data-original="#f8f2f0"></path><path fill="#fed1a3" fill-rule="evenodd" d="m211.898 318.675 36.206 32.554c6.144 3.992 9.647 3.992 15.792 0l36.206-32.554c-3.359-.948-6.747-1.809-10.021-2.728-7.666-2.068-9.676-11.946-11.255-15.134-1.83-5.731-5.427-21.123-8.24-20.089-10.537 3.934-18.634 3.934-29.172 0-2.814-1.034-5.895 12.105-8.24 20.089-1.579 3.188-3.589 13.066-11.255 15.134-3.274.919-6.662 1.781-10.021 2.728z" clip-rule="evenodd" opacity="1" data-original="#fed1a3"></path><path fill="#fd4755" fill-rule="evenodd" d="M174.63 358.65v9.706c22.769 16.828 50.907 26.793 81.37 26.793s58.602-9.965 81.37-26.793v-9.706c0-27.08-18.433-34.69-37.268-39.974l-36.206 21.222c-6.144 3.992-9.647 3.992-15.792 0l-36.206-21.222c-18.835 5.283-37.268 12.893-37.268 39.974z" clip-rule="evenodd" opacity="1" data-original="#fd4755"></path><path fill="#ffe5c1" fill-rule="evenodd" d="M197.743 248.548c0 18.465 15.304 41.094 35.431 52.265 2.67 1.465 5.427 2.757 8.24 3.791 10.537 3.934 18.634 3.934 29.172 0 2.814-1.034 5.57-2.326 8.24-3.791 20.127-11.171 35.431-33.8 35.431-52.265v-17.805c-15.052-4.799-20.07-28.943-36.35-24.75-12.576 3.245-17.227 4.882-21.907 4.882s-9.331-1.637-21.907-4.882c-16.28-4.193-17.9 17.228-36.35 24.75z" clip-rule="evenodd" opacity="1" data-original="#ffe5c1"></path><path fill="#6d80aa" fill-rule="evenodd" d="M256 165.038c-29.143.488-58.257 22.428-58.257 65.705 23.573-1.666 20.07-19.671 36.35-15.479 12.576 3.245 17.227 4.882 21.907 4.882s9.331-1.637 21.907-4.882c16.28-4.193 12.777 13.813 36.35 15.479 0-43.277-29.114-65.217-58.257-65.705z" clip-rule="evenodd" opacity="1" data-original="#6d80aa"></path><path fill="#fed1a3" fill-rule="evenodd" d="M283.248 246.71c0 20.906-19.639 47.154-43.671 56.056-.488.172-.947.345-1.436.517 1.091.488 2.182.919 3.273 1.321 10.537 3.934 18.634 3.934 29.172 0 2.814-1.034 5.57-2.326 8.24-3.791 20.127-11.171 35.431-33.8 35.431-52.265v-17.805c-21.304-1.493-20.501-16.34-32.129-16.11.747 4.48 1.12 9.218 1.12 14.244z" clip-rule="evenodd" opacity="1" data-original="#fed1a3"></path><path fill="#49679b" fill-rule="evenodd" d="M243.682 166.531c18.491 6.548 34.168 22.572 38.446 48.101 11.628-.23 10.825 14.617 32.129 16.11 0-43.277-29.114-65.217-58.257-65.705a59.487 59.487 0 0 0-12.318 1.494z" clip-rule="evenodd" opacity="1" data-original="#49679b" class=""></path><path fill="#e41e2b" fill-rule="evenodd" d="M313.74 373.324v9.075a134.914 134.914 0 0 0 23.63-14.043v-9.706c0-27.08-18.433-34.69-37.268-39.974l-18.003 10.568c13.696 3.618 31.641 7.121 31.641 44.08z" clip-rule="evenodd" opacity="1" data-original="#e41e2b"></path><path fill="#ffbc85" fill-rule="evenodd" d="M233.174 300.813c-1.177 2.384-2.613 8.529-6.489 12.348a62.284 62.284 0 0 0 5.714 2.47c10.566 3.934 23.113 7.524 33.679 3.618 2.125-.459 2.986-1.666 4.364.976 2.642 5.083 6.518 7.725 11.571 9.075l18.089-10.625c-3.359-.948-6.747-1.809-10.021-2.728-7.666-2.068-9.676-11.946-11.255-15.134-2.67 1.465-5.427 2.757-8.24 3.791-10.537 3.934-18.634 3.934-29.172 0a52.082 52.082 0 0 1-3.273-1.321 66.692 66.692 0 0 1-4.967-2.47z" clip-rule="evenodd" opacity="1" data-original="#ffbc85"></path><path fill="#eee1dc" fill-rule="evenodd" d="M230.102 123.484c65.32 10.453 115.193 67.055 115.193 135.316 0 26.104-7.293 50.514-19.955 71.305 7.207 5.944 12.03 14.703 12.03 28.545v9.706c33.766-24.955 55.644-65.045 55.644-110.274 0-75.67-61.329-137.039-137.015-137.039-8.842 0-17.513.833-25.897 2.441z" clip-rule="evenodd" opacity="1" data-original="#eee1dc"></path><path fill="#80d261" fill-rule="evenodd" d="M83.468 258.082c0-21.854-17.744-39.572-39.594-39.572S4.28 236.228 4.28 258.082c0 21.883 17.744 39.601 39.594 39.601s39.594-17.718 39.594-39.601zM428.532 258.082c0-21.854 17.744-39.572 39.594-39.572s39.594 17.719 39.594 39.572c0 21.883-17.744 39.601-39.594 39.601s-39.594-17.718-39.594-39.601zM256 430.673c21.85 0 39.594 17.719 39.594 39.572 0 21.883-17.744 39.601-39.594 39.601s-39.594-17.719-39.594-39.601c0-21.854 17.744-39.572 39.594-39.572zM256 85.52c21.85 0 39.594-17.719 39.594-39.601 0-21.854-17.744-39.572-39.594-39.572s-39.594 17.719-39.594 39.572c0 21.882 17.744 39.601 39.594 39.601z" clip-rule="evenodd" opacity="1" data-original="#80d261"></path><path fill="#4fc122" fill-rule="evenodd" d="M32.935 220.032c15.332 5.456 26.3 20.102 26.3 37.304 0 18.063-12.088 33.312-28.626 38.079a39.71 39.71 0 0 0 13.265 2.269c21.85 0 39.594-17.719 39.594-39.601 0-21.854-17.744-39.572-39.594-39.572-3.79-.001-7.465.516-10.939 1.521zM245.061 7.869c15.332 5.456 26.3 20.102 26.3 37.304 0 18.092-12.088 33.312-28.626 38.079A39.71 39.71 0 0 0 256 85.521c21.85 0 39.594-17.719 39.594-39.601 0-21.796-17.658-39.486-39.451-39.572h-.287a39.152 39.152 0 0 0-10.795 1.521zM483.487 257.335c0 18.063-12.088 33.312-28.626 38.079a39.71 39.71 0 0 0 13.265 2.269c21.85 0 39.594-17.719 39.594-39.601 0-21.854-17.744-39.572-39.594-39.572-3.79 0-7.465.517-10.939 1.522 15.332 5.456 26.3 20.102 26.3 37.303zM271.361 469.498c0 18.063-12.088 33.312-28.626 38.05A39.032 39.032 0 0 0 256 509.845c21.85 0 39.594-17.719 39.594-39.601 0-21.854-17.744-39.572-39.594-39.572-3.79 0-7.465.517-10.939 1.522 15.332 5.457 26.3 20.103 26.3 37.304z" clip-rule="evenodd" opacity="1" data-original="#4fc122" class=""></path></g></svg>