<svg xmlns="http://www.w3.org/2000/svg" version="1.1" xmlns:xlink="http://www.w3.org/1999/xlink" width="512" height="512" x="0" y="0" viewBox="0 0 468 468" style="enable-background:new 0 0 512 512" xml:space="preserve" class=""><circle r="234" cx="234" cy="234" fill="#ffffff" shape="circle"></circle><g transform="matrix(0.69,0,0,0.69,73.06955539787424,72.53984597206119)"><clipPath id="a"><path d="m3.42 74.063 104.478 56.885-.361-113.1z" fill="#000000" opacity="1" data-original="#000000"></path></clipPath><path fill="#c2ace5" d="M89.063 76.73a2 2 0 0 1-.082-3.998c2.979-.124 6.018-.224 9.03-.296l.05-.001a2 2 0 0 1 .048 3.999 534.735 534.735 0 0 0-9.046.296zM453.986 392.968a2 2 0 0 1-1.883-2.675 307.946 307.946 0 0 0 5.447-16.688 2 2 0 0 1 3.837 1.129 311.078 311.078 0 0 1-5.52 16.906 1.995 1.995 0 0 1-1.881 1.328zm9.932-33.899a2 2 0 0 1-1.953-2.439 237.798 237.798 0 0 0 3.22-17.222 2 2 0 0 1 3.957.585 241.927 241.927 0 0 1-3.274 17.513 2.001 2.001 0 0 1-1.95 1.563zm5.116-34.935a2 2 0 0 1-1.998-2.126 184.15 184.15 0 0 0 .3-17.475 2 2 0 0 1 1.938-2.06c1.104-.055 2.025.834 2.06 1.938.056 1.844.085 3.729.086 5.604 0 4.014-.132 8.133-.392 12.244a2 2 0 0 1-1.994 1.875zm-1.133-35.267a1.999 1.999 0 0 1-1.979-1.733A159.147 159.147 0 0 0 462.663 270a2.002 2.002 0 0 1 1.459-2.424 2.005 2.005 0 0 1 2.424 1.459 163.675 163.675 0 0 1 3.341 17.565 2.001 2.001 0 0 1-1.986 2.267zm-8.52-34.22a2.001 2.001 0 0 1-1.874-1.302 153.575 153.575 0 0 0-7.018-15.949 2.002 2.002 0 0 1 .874-2.69 1.998 1.998 0 0 1 2.69.874 157.765 157.765 0 0 1 7.201 16.367 2 2 0 0 1-1.873 2.7zm-15.979-31.425c-.651 0-1.29-.317-1.674-.902a171.8 171.8 0 0 0-10.322-14.083 2 2 0 0 1 3.103-2.523 175.864 175.864 0 0 1 10.563 14.411 2 2 0 0 1-1.67 3.097zm-22.488-27.266a1.994 1.994 0 0 1-1.411-.582c-3.987-3.969-8.3-8.02-12.818-12.039a2 2 0 0 1 2.658-2.988 320.481 320.481 0 0 1 12.982 12.191c.782.779.785 2.046.007 2.829a1.994 1.994 0 0 1-1.418.589zm-26.401-23.547c-.441 0-.886-.146-1.255-.443a393.32 393.32 0 0 0-13.94-10.739 2 2 0 1 1 2.369-3.223 395.634 395.634 0 0 1 14.083 10.849 2.001 2.001 0 0 1-1.257 3.556zm-28.482-20.964c-.383 0-.771-.109-1.112-.34a425.173 425.173 0 0 0-14.814-9.5 2.001 2.001 0 0 1 2.088-3.412 427.528 427.528 0 0 1 14.955 9.592 1.997 1.997 0 0 1 .546 2.774 1.996 1.996 0 0 1-1.663.886zm-30.15-18.464c-.329 0-.663-.081-.972-.253a434.062 434.062 0 0 0-15.544-8.247 2 2 0 1 1 1.803-3.571 436.41 436.41 0 0 1 15.688 8.323 1.999 1.999 0 0 1 .773 2.721 1.995 1.995 0 0 1-1.748 1.027zm-31.553-15.928c-.277 0-.559-.058-.827-.18a440.04 440.04 0 0 0-16.158-6.963 2 2 0 1 1 1.509-3.705 446.347 446.347 0 0 1 16.305 7.027 1.998 1.998 0 0 1 .992 2.648 1.998 1.998 0 0 1-1.821 1.173zm-32.726-13.334c-.226 0-.455-.039-.68-.12a448.535 448.535 0 0 0-16.66-5.652 2 2 0 0 1 1.211-3.813 452.245 452.245 0 0 1 16.809 5.703 2 2 0 0 1-.68 3.882zm-33.676-10.692c-.176 0-.354-.023-.531-.072a453.375 453.375 0 0 0-17.051-4.331 2 2 0 1 1 .91-3.894 460.41 460.41 0 0 1 17.201 4.368 2.002 2.002 0 0 1-.529 3.929zm-34.405-8.036c-.126 0-.253-.012-.381-.036a471.84 471.84 0 0 0-17.333-3.013 2 2 0 1 1 .611-3.953 475.166 475.166 0 0 1 17.479 3.038 2.001 2.001 0 0 1-.376 3.964zm-34.912-5.396c-.078 0-.156-.004-.234-.014a488.844 488.844 0 0 0-17.509-1.721 1.998 1.998 0 0 1-1.834-2.152 1.993 1.993 0 0 1 2.152-1.834 491.824 491.824 0 0 1 17.653 1.734 2 2 0 0 1-.228 3.987zm-35.213-2.822-.091-.002a508.704 508.704 0 0 0-17.588-.471 2 2 0 0 1 .019-4h.019c5.918.057 11.883.216 17.729.475a2 2 0 0 1-.088 3.998zM444.081 417.657a2.002 2.002 0 0 1-1.829-2.811 386.744 386.744 0 0 0 3.533-8.229 1.999 1.999 0 1 1 3.693 1.535 390.116 390.116 0 0 1-3.568 8.313 1.997 1.997 0 0 1-1.829 1.192z" opacity="1" data-original="#c2ace5"></path><path fill="#f955af" d="m3.42 74.063 104.478 56.885-.361-113.1z" opacity="1" data-original="#f955af"></path><path fill="#ef009f" d="m3.42 74.063 104.116-56.215.042 12.949-92.196 49.779z" opacity="1" data-original="#ef009f"></path><path fill="#ffffff" d="M94.06 97.297h-.007l-25.771-.083a2 2 0 0 1 .007-4h.007l25.771.083a2 2 0 0 1-.007 4zM93.717 55.604h-.007l-25.082-.081a2 2 0 0 1 .007-4h.007l25.082.081a2 2 0 0 1-.007 4z" opacity="1" data-original="#ffffff"></path><g clip-path="url(#a)"><path fill="#ffffff" d="M108.516 76.4h-.007L1.993 76.059a2 2 0 0 1 .007-4h.007l106.515.341a2 2 0 0 1-.006 4z" opacity="1" data-original="#ffffff"></path></g><path fill="#131c46" d="M436.082 453.113H163.764a8 8 0 0 1-8-8V46.493a8 8 0 0 1 8-8h272.318a8 8 0 0 1 8 8v398.62a8 8 0 0 1-8 8z" opacity="1" data-original="#131c46"></path><path fill="#ffffff" d="M432.047 50.529v390.547H167.8V50.529z" opacity="1" data-original="#ffffff"></path><path fill="#f955af" d="M249.137 369.626h36.935v71.542h-36.935z" opacity="1" data-original="#f955af"></path><path fill="#ef009f" d="M249.137 369.626h11.315v71.542h-11.315z" opacity="1" data-original="#ef009f"></path><path fill="#ffc31a" d="M184.501 350.723h36.935v90.445h-36.935z" opacity="1" data-original="#ffc31a"></path><path fill="#ffaf00" d="M184.501 350.723h11.315v90.445h-11.315z" opacity="1" data-original="#ffaf00"></path><path fill="#865acc" d="M378.409 341.314h36.935v99.855h-36.935z" opacity="1" data-original="#865acc"></path><path fill="#6a42ba" d="M378.409 341.314h11.315v99.854h-11.315z" opacity="1" data-original="#6a42ba"></path><path fill="#61ceac" d="M313.773 322.406h36.935v118.763h-36.935z" opacity="1" data-original="#61ceac"></path><path fill="#52c1a1" d="M313.773 322.406h11.315v118.763h-11.315z" opacity="1" data-original="#52c1a1"></path><path fill="#131c46" d="m416.526 259.739-21.962-.96a2 2 0 0 0-.174 3.996l16.318.713-35.726 25.384-33.881-26.666a2.004 2.004 0 0 0-2.37-.077l-62.702 43.104-26.675-21.272a2 2 0 0 0-2.391-.077l-65.232 45.464a2 2 0 1 0 2.288 3.281l64.009-44.61 26.667 21.266a2.002 2.002 0 0 0 2.38.085l62.71-43.108 33.899 26.681a2 2 0 0 0 2.396.059l36.793-26.143-5.415 15.292c-.833 2.486 2.84 3.806 3.771 1.336l7.458-21.063c.414-1.881-1.419-2.708-2.161-2.685z" opacity="1" data-original="#131c46"></path><path fill="#61ceac" d="M226.43 11.887h146.986v52.764H226.43z" opacity="1" data-original="#61ceac"></path><path fill="#52c1a1" d="M237.745 11.888H226.43v52.764h146.985V53.337H266.032c-15.623 0-28.287-12.665-28.287-28.287z" opacity="1" data-original="#52c1a1"></path><path fill="#e2d2f7" d="M212.371 146.259h-.15c-13.807 0-25-11.193-25-25v-.15c0-13.807 11.193-25 25-25h.15c13.807 0 25 11.193 25 25v.15c0 13.807-11.192 25-25 25zM415.815 104.34H268.829a2 2 0 0 1 0-4h146.986a2 2 0 0 1 0 4zM415.815 142.028H268.829a2 2 0 0 1 0-4h146.986a2 2 0 0 1 0 4zM212.371 231.059h-.15c-13.807 0-25-11.193-25-25v-.15c0-13.807 11.193-25 25-25h.15c13.807 0 25 11.193 25 25v.15c0 13.807-11.192 25-25 25zM415.815 189.14H268.829a2 2 0 0 1 0-4h146.986a2 2 0 0 1 0 4zM415.815 226.828H268.829a2 2 0 0 1 0-4h146.986a2 2 0 0 1 0 4z" opacity="1" data-original="#e2d2f7"></path><path fill="#131c46" d="M164.658 424.118c1.134-41.19-7.18-84.969-7.18-84.969l-49.126-1.134s-5.668 25.319-3.401 48.353c1.358 13.794 10.126 44.402 16.943 69.744h42.266c.026-10.345.163-19.835.498-31.994zM98.782 338.016l-49.126 1.134s-8.314 43.778-7.18 84.969c.335 12.159.471 21.65.498 28.995H85.24c6.817-22.342 15.585-52.95 16.943-66.744 2.267-23.035-3.401-48.354-3.401-48.354z" opacity="1" data-original="#131c46"></path><path fill="#0b1226" d="m60.97 339.149 37.868-.874-.057-.26-49.126 1.134s-8.314 43.778-7.18 84.969c.335 12.159.471 21.65.498 28.995h11.315c-.027-7.345-.164-16.836-.498-28.995-1.133-41.19 7.18-84.969 7.18-84.969z" opacity="1" data-original="#0b1226"></path><path fill="#865acc" d="M150.104 283.56s-101.519-8.42-98.391 13.953c3.127 22.373-7.217 63.99-7.217 63.99s59.4 31.033 118.799 0c0 0-10.344-41.618-7.217-63.99 3.127-22.373-98.391-23.382-98.391-23.382" opacity="1" data-original="#865acc"></path><path fill="#865acc" d="M143.928 203.978H65.703c-6.674 0-12.085 5.411-12.085 12.085v57.682c0 6.674 5.411 12.085 12.085 12.085h78.225c6.674 0 12.085-5.411 12.085-12.085v-57.682c0-6.674-5.41-12.085-12.085-12.085z" opacity="1" data-original="#865acc"></path><path fill="#865acc" d="M147.418 244.688s-4.09 24.057 0 32.236l-46.189 7.698-16.358 5.052c22.777 14.425 52.891 19.566 64.586 21.093 2.896.378 5.764.9 8.635 1.438 35.554 6.652 23.91-51.395 14.743-84.031a37.687 37.687 0 0 0-27.152-26.375l-30.54-7.629h-8.62" opacity="1" data-original="#865acc"></path><path fill="#865acc" d="M65.465 246.582v23.094s38.491-2.566 59.66-8.019c20.36-5.244 25.266 1.453 24.185 13.957a1.885 1.885 0 0 1-1.615 1.716c-1.983.271-5.74.802-9.702 1.448a37.44 37.44 0 0 0-13.027 4.734c-6.556 3.877-22.651 11.224-60.785 21.127-40.754 10.582-37.094-40.792-31.293-72.355a37.69 37.69 0 0 1 26.582-29.393l28.547-8.271 18.637-.422" opacity="1" data-original="#865acc"></path><path fill="#6a42ba" d="M135.339 273.14c-6.556 3.877-22.651 11.224-60.785 21.126-40.754 10.583-37.094-40.791-31.293-72.354a37.644 37.644 0 0 1 5.735-14.117c-8.32 5.574-14.239 14.325-16.107 24.489-5.801 31.563-9.46 82.937 31.293 72.355 38.134-9.902 54.229-17.25 60.785-21.126a37.433 37.433 0 0 1 13.027-4.734 392.659 392.659 0 0 1 9.702-1.448 1.885 1.885 0 0 0 1.615-1.715c.237-2.74.186-5.202-.252-7.319l-.693.111a37.39 37.39 0 0 0-13.027 4.732z" opacity="1" data-original="#6a42ba"></path><path fill="#f9a395" d="M102.201 213.651h-.087c-8.014 0-14.51-6.497-14.51-14.51v-19.178c0-.259.21-.468.468-.468h28.172c.259 0 .468.21.468.468v19.178c0 8.013-6.497 14.51-14.511 14.51z" opacity="1" data-original="#f9a395"></path><path fill="#ffc0b3" d="M74.694 111.714v50.447c0 15.168 12.296 27.465 27.464 27.465s27.464-12.297 27.464-27.465v-50.447z" opacity="1" data-original="#ffc0b3"></path><path fill="#333333" d="M74.776 133.811s.532-10.645 10.645-10.512c2.541.034 5.538.582 8.27 1.246 6.073 1.476 12.429 1.428 18.459-.217 2.066-.564 4.239-.996 6.748-1.029 10.112-.133 10.645 10.512 10.645 10.512v14.137l6.707 1.819c5.137-10.988 12.871-33.978-3.285-48.848-7.557-6.955-19.957-11.338-30.174-10.781-8.682.473-20.659 4.648-27.264 14.162a2.85 2.85 0 0 0-4.403-.831c-16.71 14.563-7.364 35.875-1.841 45.366l5.494-.886v-14.138z" opacity="1" data-original="#333333"></path><path fill="#212121" d="M81.152 105.473a2.85 2.85 0 0 1 4.403.832c6.605-9.514 18.581-13.688 27.264-14.162a34.82 34.82 0 0 1 4.566.074c-4.878-1.56-9.96-2.333-14.596-2.08-8.682.474-20.659 4.648-27.264 14.162a2.852 2.852 0 0 0-4.403-.832c-16.71 14.563-7.364 35.875-1.841 45.366l5.494-.886v-6.534c-4.077-10.647-6.009-25.145 6.377-35.94z" opacity="1" data-original="#212121"></path><path fill="#ffc0b3" d="M126.67 152.141s4.667-7.368 7.426-4.95c6.868 6.021-.926 22.3-6.791 18.435M77.646 152.141s-4.667-7.368-7.426-4.95c-6.868 6.021.926 22.3 6.791 18.435" opacity="1" data-original="#ffc0b3"></path><path fill="#6a42ba" d="M143.887 271.633a2 2 0 0 1-1.991-1.837c-.854-10.451 1.562-24.836 1.665-25.443a2.001 2.001 0 0 1 3.944.67c-.024.144-2.434 14.503-1.622 24.447a1.999 1.999 0 0 1-1.996 2.163z" opacity="1" data-original="#6a42ba"></path><path fill="#ffc0b3" d="M125.125 261.628c-13.017 3.353-32.579 5.614-45.719 6.858s-5.25 15.486 2.409 31.286c25.698-7.469 37.713-13.074 43.151-16.29a37.433 37.433 0 0 1 13.027-4.734 392.659 392.659 0 0 1 9.702-1.448 1.885 1.885 0 0 0 1.615-1.715c1.081-12.504-3.825-19.201-24.185-13.957z" opacity="1" data-original="#ffc0b3"></path><path fill="#f9a395" d="M124.966 283.482a37.433 37.433 0 0 1 13.027-4.734 392.659 392.659 0 0 1 9.702-1.448c3.12-1.222 1.447-6.369 1.363-9.005l-.693.111a37.4 37.4 0 0 0-13.027 4.734c-6.278 3.713-21.319 10.61-56.072 19.884a40.541 40.541 0 0 0 2.549 6.749c25.698-7.469 37.714-13.075 43.151-16.291z" opacity="1" data-original="#f9a395"></path><path fill="#865acc" d="M147.418 244.688s-4.09 24.057 0 32.236c0 0-15.663 3.137-18.456 4.509s-15.312 8.654-33.428 14.127c0 0 25.147 11.339 49.038 14.737 3.746.533 7.469 1.191 11.177 1.943 8.92 1.811 28.189 2.183 26.504-29.053-2.171-40.254-13.447-64.316-13.447-64.316" opacity="1" data-original="#865acc"></path><path fill="#6a42ba" d="M65.465 271.647c-1.072.022-2.022-.926-2-2v-23.095a2 2 0 0 1 4 0v20.942c2.193-.165 5.795-.445 9.488-.771 1.114-.083 2.071.717 2.168 1.816a2 2 0 0 1-1.816 2.168c-5.938.524-11.642.931-11.698.935a1.7 1.7 0 0 1-.142.005z" opacity="1" data-original="#6a42ba"></path><path fill="#ffc0b3" d="M135.664 279.49c-3.015.724-5.696 1.448-6.702 1.942-2.793 1.371-15.312 8.654-33.428 14.127 0 0 18.011 8.12 38.028 12.676 7.801-8.851 2.102-28.745 2.102-28.745z" opacity="1" data-original="#ffc0b3"></path></g></svg>