<svg xmlns="http://www.w3.org/2000/svg" version="1.1" xmlns:xlink="http://www.w3.org/1999/xlink" width="512" height="512" x="0" y="0" viewBox="0 0 510 510" style="enable-background:new 0 0 512 512" xml:space="preserve" fill-rule="evenodd" class=""><circle r="255" cx="255" cy="255" fill="#ffffff" shape="circle"></circle><g transform="matrix(0.69,0,0,0.69,79.04996363639836,79.0501537322998)"><path fill="#8ac9fe" d="M110.732 279.644a7.005 7.005 0 0 1 2.136-4.914 7.006 7.006 0 0 1 4.985-1.963l27.822.486a6.996 6.996 0 0 1 6.877 7.121l-2.389 136.819a6.996 6.996 0 0 1-7.121 6.876l-27.821-.485a7.001 7.001 0 0 1-6.877-7.121l2.388-136.819z" opacity="1" data-original="#8ac9fe" class=""></path><path fill="#60b7ff" d="M116.297 272.914a7.024 7.024 0 0 1 1.556-.147l27.822.486a6.996 6.996 0 0 1 6.877 7.121l-2.389 136.819a6.996 6.996 0 0 1-7.121 6.876l-8.443-.147a6.996 6.996 0 0 0 5.564-6.729l2.389-136.819a7 7 0 0 0-6.877-7.121z" opacity="1" data-original="#60b7ff" class=""></path><path fill="#ffe177" d="M187.888 309.514a6.997 6.997 0 0 1 7.121-6.877l27.821.486a6.999 6.999 0 0 1 6.877 7.121l-1.89 108.304a7 7 0 0 1-7.121 6.877l-27.822-.486a6.999 6.999 0 0 1-6.877-7.121l1.891-108.304z" opacity="1" data-original="#ffe177"></path><path fill="#ffd064" d="M193.452 302.784a7.033 7.033 0 0 1 1.557-.147l27.821.486a6.999 6.999 0 0 1 6.877 7.121l-1.89 108.304a7 7 0 0 1-7.121 6.877l-8.437-.147a7.004 7.004 0 0 0 5.558-6.73l1.89-108.304a6.999 6.999 0 0 0-6.877-7.121z" opacity="1" data-original="#ffd064"></path><path fill="#fe646f" d="M31.82 348.867a6.997 6.997 0 0 1 7.121-6.877l27.849.486a7 7 0 0 1 6.877 7.121l-1.157 66.24a6.997 6.997 0 0 1-7.121 6.877l-27.849-.486a7 7 0 0 1-6.876-7.121l1.156-66.24z" opacity="1" data-original="#fe646f"></path><path fill="#fd4755" d="M37.385 342.137a7.019 7.019 0 0 1 1.556-.147l27.849.486a7 7 0 0 1 6.877 7.121l-1.157 66.24a6.997 6.997 0 0 1-7.121 6.877l-8.444-.147a6.997 6.997 0 0 0 5.565-6.73l1.157-66.24a7.002 7.002 0 0 0-6.877-7.121z" opacity="1" data-original="#fd4755"></path><path fill="#a79ba7" d="M14.86 429.833c-4.414-.077-7.936-3.723-7.859-8.138s3.724-7.936 8.139-7.859l228.236 3.984c4.414.077 7.936 3.723 7.859 8.138s-3.724 7.936-8.139 7.859zM456.633 106.594 215.306 248.962a8 8 0 0 1-7.728.222l-72.277-37.227-74.757 62.858a8.005 8.005 0 0 1-11.272-.975 8.004 8.004 0 0 1 .975-11.272l78.834-66.285a8 8 0 0 1 8.811-.989l73.087 37.644 237.17-139.916-4.063-1.136a8.004 8.004 0 0 1-5.552-9.857 8.004 8.004 0 0 1 9.858-5.552l23.155 6.47a8 8 0 0 1 5.552 9.858l-6.47 23.154c-1.189 4.253-5.606 6.741-9.858 5.552a8.003 8.003 0 0 1-5.552-9.858l1.414-5.059z" opacity="1" data-original="#a79ba7" class=""></path><path fill="#8ac9fe" d="M468.698 133.691a5 5 0 0 1 7.5 4.331v142.669h-38.349V154.389a5 5 0 0 1 2.5-4.33l28.349-16.368z" opacity="1" data-original="#8ac9fe" class=""></path><path fill="#60b7ff" d="m466.941 134.706 1.757-1.015a5 5 0 0 1 7.5 4.331v142.669h-8V138.022a5 5 0 0 0-1.257-3.316z" opacity="1" data-original="#60b7ff" class=""></path><path fill="#6cf5c2" d="M366.622 195.512c0-1.787.953-3.437 2.5-4.33l28.35-16.368a5 5 0 0 1 7.5 4.33v101.547h-38.35z" opacity="1" data-original="#6cf5c2"></path><path fill="#00e499" d="m395.714 175.829 1.758-1.015a5 5 0 0 1 7.5 4.33v101.547h-8V179.144c0-1.239-.46-2.414-1.258-3.315z" opacity="1" data-original="#00e499"></path><path fill="#fe646f" d="M295.395 236.635c0-1.787.953-3.437 2.5-4.33l28.35-16.368a5 5 0 0 1 7.5 4.33v60.424h-38.35z" opacity="1" data-original="#fe646f"></path><path fill="#fd4755" d="m324.487 216.952 1.758-1.015a5 5 0 0 1 7.5 4.33v60.424h-8v-60.424c0-1.24-.459-2.414-1.258-3.315z" opacity="1" data-original="#fd4755"></path><path fill="#a79ba7" d="M274.774 288.691c-4.415 0-8-3.584-8-8 0-4.415 3.585-8 8-8H495c4.415 0 8 3.585 8 8 0 4.416-3.585 8-8 8z" opacity="1" data-original="#a79ba7" class=""></path></g></svg>