<svg xmlns="http://www.w3.org/2000/svg" version="1.1" xmlns:xlink="http://www.w3.org/1999/xlink" width="512" height="512" x="0" y="0" viewBox="0 0 512 511" style="enable-background:new 0 0 512 512" xml:space="preserve"><circle r="256" cx="256" cy="255.5" fill="#ffffff" shape="circle"></circle><g transform="matrix(0.69,0,0,0.69,79.36018079712991,66.64876058876516)"><linearGradient id="f" x1="284.079" x2="284.079" y1="35.201" y2="59.891" gradientUnits="userSpaceOnUse"><stop offset="0" stop-color="#ff6e3a"></stop><stop offset=".16" stop-color="#ff6440"></stop><stop offset=".427" stop-color="#ff4b52"></stop><stop offset=".766" stop-color="#ff216e"></stop><stop offset="1" stop-color="#ff0084"></stop></linearGradient><linearGradient id="g" x1="211.319" x2="129.936" y1="91.392" y2="10.009" gradientUnits="userSpaceOnUse"><stop offset="0" stop-color="#ff0084" stop-opacity="0"></stop><stop offset=".074" stop-color="#f4087e" stop-opacity=".075"></stop><stop offset=".335" stop-color="#d2216b" stop-opacity=".333"></stop><stop offset=".583" stop-color="#ba335e" stop-opacity=".584"></stop><stop offset=".811" stop-color="#ab3d56" stop-opacity=".812"></stop><stop offset="1" stop-color="#a64153"></stop></linearGradient><linearGradient id="a"><stop offset="0" stop-color="#8be1e2"></stop><stop offset=".187" stop-color="#87e1e1"></stop><stop offset=".356" stop-color="#7ce2dd"></stop><stop offset=".517" stop-color="#6ae2d7"></stop><stop offset=".674" stop-color="#50e4ce"></stop><stop offset=".828" stop-color="#2fe5c2"></stop><stop offset=".977" stop-color="#07e7b4"></stop><stop offset="1" stop-color="#00e7b2"></stop></linearGradient><linearGradient xlink:href="#a" id="h" x1="147.363" x2="475.229" y1="118.648" y2="446.514" gradientUnits="userSpaceOnUse"></linearGradient><linearGradient id="b"><stop offset=".003" stop-color="#00e7b2" stop-opacity="0"></stop><stop offset=".431" stop-color="#1bc4b7" stop-opacity=".427"></stop><stop offset="1" stop-color="#3b9abe"></stop></linearGradient><linearGradient xlink:href="#b" id="i" x1="407.642" x2="114.09" y1="409.753" y2="116.2" gradientUnits="userSpaceOnUse"></linearGradient><linearGradient xlink:href="#b" id="j" x1="253.505" x2="253.505" y1="54.096" y2="148.98" gradientUnits="userSpaceOnUse"></linearGradient><linearGradient id="k" x1="201.69" x2="388.825" y1="153.808" y2="490.652" gradientUnits="userSpaceOnUse"><stop offset="0" stop-color="#ecf7ff"></stop><stop offset="1" stop-color="#c2e0ff"></stop></linearGradient><linearGradient id="l" x1="511.089" x2="325.571" y1="274.918" y2="267.622" gradientUnits="userSpaceOnUse"><stop offset=".003" stop-color="#c2e0ff" stop-opacity="0"></stop><stop offset=".076" stop-color="#bfdcfd" stop-opacity=".075"></stop><stop offset="1" stop-color="#9eb2e7"></stop></linearGradient><linearGradient xlink:href="#a" id="m" x1="147.915" x2="258.392" y1="26.929" y2="382.332" gradientUnits="userSpaceOnUse"></linearGradient><linearGradient xlink:href="#b" id="n" x1="250.999" x2="250.999" y1="391.533" y2="450.525" gradientUnits="userSpaceOnUse"></linearGradient><linearGradient xlink:href="#b" id="o" x1="380.349" x2="143.414" y1="395.444" y2="254.394" gradientUnits="userSpaceOnUse"></linearGradient><linearGradient id="c"><stop offset="0" stop-color="#ffc738"></stop><stop offset=".429" stop-color="#ffbb23"></stop><stop offset="1" stop-color="#ffa700"></stop></linearGradient><linearGradient xlink:href="#c" id="p" x1="147.772" x2="298.538" y1="291.649" y2="381.938" gradientUnits="userSpaceOnUse"></linearGradient><linearGradient xlink:href="#c" id="q" x1="204.546" x2="204.546" y1="240.814" y2="261.54" gradientUnits="userSpaceOnUse"></linearGradient><linearGradient id="d"><stop offset="0" stop-color="#ffa700" stop-opacity="0"></stop><stop offset=".021" stop-color="#fea600" stop-opacity=".02"></stop><stop offset=".635" stop-color="#ec8c00" stop-opacity=".635"></stop><stop offset="1" stop-color="#e58200"></stop></linearGradient><linearGradient xlink:href="#d" id="r" x1="251.953" x2="179.144" y1="315.31" y2="192.334" gradientUnits="userSpaceOnUse"></linearGradient><linearGradient xlink:href="#d" id="s" x1="289.053" x2="253.909" y1="276.252" y2="240.335" gradientUnits="userSpaceOnUse"></linearGradient><linearGradient xlink:href="#d" id="t" x1="242.55" x2="188.997" y1="369.279" y2="315.726" gradientUnits="userSpaceOnUse"></linearGradient><linearGradient id="e"><stop offset="0" stop-color="#3b395f"></stop><stop offset=".063" stop-color="#37355a"></stop><stop offset=".403" stop-color="#232543"></stop><stop offset=".723" stop-color="#171b35"></stop><stop offset="1" stop-color="#131830"></stop></linearGradient><linearGradient xlink:href="#e" id="u" x1="197.542" x2="224.606" y1="313.121" y2="363.21" gradientUnits="userSpaceOnUse"></linearGradient><linearGradient xlink:href="#e" id="v" x1="204.546" x2="204.546" y1="227.942" y2="267.535" gradientUnits="userSpaceOnUse"></linearGradient><linearGradient xlink:href="#d" id="w" x1="204.546" x2="204.546" y1="385.516" y2="415.346" gradientUnits="userSpaceOnUse"></linearGradient><path fill="url(#f)" d="M395.14 58.121v31.293H173.017v-54.89C173.016 15.737 188.25.5 207.039.5h78.266a34.014 34.014 0 0 1 29.914 17.816l10.71 19.758a38.297 38.297 0 0 0 33.665 20.047zm0 0" opacity="1" data-original="url(#f)"></path><path fill="url(#g)" d="m232.371 76.121-56.11-56.11a33.904 33.904 0 0 0-3.245 14.512v54.891h72.644zm0 0" opacity="1" data-original="url(#g)"></path><path fill="url(#h)" d="m185.96 38.074-10.706-19.758A34.027 34.027 0 0 0 145.34.5H67.066C48.277.5 33.043 15.734 33.043 34.523V395.47c0 18.789 15.234 34.02 34.023 34.02H477.98c18.79 0 34.02-15.231 34.02-34.02V92.145c0-18.79-15.23-34.02-34.02-34.02H219.63a38.293 38.293 0 0 1-33.668-20.05zm0 0" opacity="1" data-original="url(#h)"></path><path fill="url(#i)" d="M67.066 429.488H477.98c18.79 0 34.02-15.23 34.02-34.02V139.708l-48.055-48.055-148.582-1.09a33.159 33.159 0 0 1-29.152 17.36H62.504c-16.27 0-29.461 13.191-29.461 29.46V395.47c0 18.789 15.234 34.02 34.023 34.02zm0 0" opacity="1" data-original="url(#i)"></path><path fill="url(#j)" d="M473.965 151.266c0-51.442-41.7-93.141-93.137-93.141h-161.2a38.293 38.293 0 0 1-33.667-20.05L175.25 18.311A34.013 34.013 0 0 0 145.34.5H67.066C48.277.5 33.043 15.73 33.043 34.52v116.742h440.922zm0 0" opacity="1" data-original="url(#j)"></path><path fill="url(#k)" d="M474.332 109.57v299.766c0 8.965-5.848 16.562-13.945 19.18-1.961.632-4.043.976-6.211.976H66.586c-11.129 0-20.156-9.023-20.156-20.156V109.57c0-11.132 9.027-20.156 20.156-20.156h387.59c11.129 0 20.156 9.024 20.156 20.156zm0 0" opacity="1" data-original="url(#k)"></path><path fill="url(#l)" d="M474.332 190.059v219.277c0 8.965-5.848 16.562-13.945 19.18L312.285 280.414c-19.492-18.805-33.094-138.016-37.77-165.906h113.532c7.98 0 15.203 3.586 20.05 9.308zm0 0" opacity="1" data-original="url(#l)"></path><path fill="url(#m)" d="M477.977 429.492H62.507c-16.277 0-29.46-13.195-29.46-29.46L.219 144.116c-2.016-15.703 10.219-29.61 26.05-29.61h361.774c13.21 0 24.367 9.813 26.05 22.919l33.68 261.855c0 16.688 13.524 30.211 30.204 30.211zm0 0" opacity="1" data-original="url(#m)"></path><path fill="url(#n)" d="m24.02 325.598 9.023 74.433c0 16.27 13.191 29.457 29.46 29.457H477.98c-16.683 0-30.207-13.523-30.207-30.203l-9.027-73.683H24.02zm0 0" opacity="1" data-original="url(#n)"></path><path fill="url(#o)" d="M204.547 132.465c-34.211 0-62.043 27.836-62.043 62.043v50.883a295.243 295.243 0 0 0-12.445 3.097c-5.45 1.489-9.223 6.461-9.223 12.11v130.097c0 3.989 1.883 7.625 4.898 9.953l28.844 28.844h323.399c-16.68 0-30.204-13.527-30.204-30.215l-7.261-56.449-190.985-190.984c-11.312-11.922-27.289-19.38-44.98-19.38zm0 0" opacity="1" data-original="url(#o)"></path><path fill="url(#p)" d="M279.031 402.809c-49.336 13.468-99.636 13.468-148.972 0-5.45-1.489-9.223-6.461-9.223-12.11V260.602c0-5.653 3.773-10.625 9.223-12.114 49.336-13.468 99.636-13.468 148.976 0 5.45 1.489 9.223 6.461 9.223 12.114v130.097c0 5.649-3.774 10.621-9.227 12.11zm0 0" opacity="1" data-original="url(#p)"></path><path fill="url(#q)" d="M276.477 247.813c-1.012-.266-2.02-.528-3.028-.782-.676-.172-1.355-.336-2.031-.504-.98-.242-1.961-.476-2.941-.703-.688-.16-1.375-.32-2.063-.472-.98-.223-1.965-.438-2.945-.649-.68-.148-1.356-.293-2.035-.433-1.012-.211-2.028-.41-3.043-.61-.641-.129-1.286-.258-1.93-.379-1.11-.21-2.223-.41-3.336-.605-.543-.098-1.086-.2-1.629-.29a272.95 272.95 0 0 0-4.96-.804l-.09-.012c-1.626-.25-3.255-.48-4.88-.699-.546-.074-1.093-.14-1.64-.21-1.113-.141-2.223-.282-3.336-.411-.649-.074-1.293-.145-1.942-.215-1.015-.11-2.03-.219-3.05-.32-.68-.067-1.36-.13-2.043-.188-.985-.09-1.973-.175-2.961-.254-.696-.054-1.387-.109-2.078-.16-.985-.07-1.97-.136-2.957-.195-.684-.043-1.368-.086-2.051-.121-1.02-.055-2.035-.102-3.055-.145a160.61 160.61 0 0 0-1.937-.082c-1.121-.043-2.239-.07-3.356-.097-.543-.012-1.09-.032-1.633-.04-1.66-.03-3.32-.046-4.98-.046h-.004c-1.656 0-3.316.015-4.977.047-.546.007-1.093.027-1.64.039-1.117.027-2.23.054-3.348.097-.648.024-1.293.051-1.941.082-1.016.043-2.035.09-3.051.145-.684.035-1.367.078-2.05.121a251.003 251.003 0 0 0-8 .61c-.68.058-1.36.12-2.044.187-1.015.101-2.031.21-3.05.32-.645.07-1.294.14-1.938.215-1.113.129-2.227.27-3.34.41-.547.07-1.09.137-1.64.211-1.626.219-3.247.45-4.872.695-.035.008-.066.012-.097.016-1.653.25-3.305.523-4.957.805-.543.09-1.086.195-1.633.289-1.113.195-2.223.394-3.336.605-.645.121-1.285.25-1.926.375-1.016.2-2.031.403-3.047.614-.676.14-1.355.285-2.035.43a264.245 264.245 0 0 0-5.008 1.124c-.98.227-1.957.461-2.937.703a192.947 192.947 0 0 0-5.059 1.286c-.644.167-1.285.335-1.93.507l-.847.239a12.503 12.503 0 0 0-7.102 5.394c54.114 16.27 109.5 16.27 163.614 0a12.494 12.494 0 0 0-7.098-5.394c-.285-.079-.566-.16-.852-.239-.64-.172-1.285-.336-1.925-.507zm0 0" opacity="1" data-original="url(#q)"></path><path fill="url(#r)" d="M279.031 248.488c-45.195-12.34-91.199-13.363-136.527-3.097v1.586c0 3.738 1.906 7.023 4.797 8.949l139.87 139.87c.7-1.57 1.087-3.3 1.087-5.1V260.597c0-5.649-3.774-10.621-9.227-12.11zm0 0" opacity="1" data-original="url(#r)"></path><path fill="url(#s)" d="M288.258 260.602c0-5.653-3.774-10.625-9.227-12.114a287.934 287.934 0 0 0-33.879-7.11v5.602c0 3.735 1.91 7.02 4.801 8.946l38.305 38.304zm0 0" opacity="1" data-original="url(#s)"></path><path fill="url(#t)" d="m273.73 359.684-52.945-52.946c-4.398-4.675-10.793-7.46-17.828-6.972-10.969.761-19.86 9.632-20.644 20.601-.5 7.059 2.289 13.469 6.988 17.88l5.289 5.288c1.71 2.61 2.633 5.715 2.633 8.903v9.128a7.694 7.694 0 0 0 2.804 5.934l42.758 42.758c7.711-1.07 15.41-2.465 23.094-4.188.039-4.77 2.184-9.347 6.012-12.207 5.433-4.066 8.949-10.547 8.949-17.855 0-6.45-2.735-12.254-7.11-16.324zm0 0" opacity="1" data-original="url(#t)"></path><path fill="url(#u)" d="M226.836 322c0-12.836-10.848-23.137-23.879-22.234-10.969.761-19.863 9.632-20.644 20.601-.563 7.91 3.007 15.024 8.769 19.395 3.934 2.988 6.14 7.734 6.14 12.675v9.125c0 4.036 3.153 7.493 7.188 7.567a7.322 7.322 0 0 0 7.461-7.32v-9.614c0-4.82 2.152-9.453 6.012-12.336 5.437-4.066 8.953-10.55 8.953-17.859zm0 0" opacity="1" data-original="url(#u)"></path><path fill="url(#v)" d="M255.844 257.723c-5.934 0-10.742-4.809-10.742-10.743v-52.472c0-22.36-18.196-40.551-40.555-40.551-22.363 0-40.555 18.191-40.555 40.55v52.473c0 5.934-4.808 10.743-10.742 10.743-5.938 0-10.746-4.809-10.746-10.743v-52.472c0-34.207 27.832-62.043 62.043-62.043s62.043 27.836 62.043 62.043v52.472c0 5.934-4.809 10.743-10.746 10.743zm0 0" opacity="1" data-original="url(#v)"></path><path fill="url(#w)" d="M120.836 354.984V390.7c0 5.649 3.773 10.621 9.223 12.11 49.336 13.468 99.636 13.468 148.972 0 5.453-1.489 9.223-6.461 9.223-12.11v-35.715zm0 0" opacity="1" data-original="url(#w)"></path></g></svg>