<svg xmlns="http://www.w3.org/2000/svg" version="1.1" xmlns:xlink="http://www.w3.org/1999/xlink" width="512" height="512" x="0" y="0" viewBox="0 0 64 64" style="enable-background:new 0 0 512 512" xml:space="preserve"><circle r="32" cx="32" cy="32" fill="#ffffff" shape="circle"></circle><g transform="matrix(0.69,0,0,0.69,9.919999926090245,9.920000000000002)"><path fill="#8fb3cc" d="M52 54H12.5a11.5 11.5 0 0 1 0-23h5.52a1 1 0 0 1 0 2H12.5a9.5 9.5 0 0 0 0 19H52a1 1 0 0 1 0 2zM51 33h-5.02a1 1 0 1 1 0-2H51a10 10 0 0 0 0-20H10a1 1 0 0 1 0-2h41a12 12 0 1 1 0 24z" opacity="1" data-original="#8fb3cc"></path><path fill="#fbb040" d="M13.091 24.667a18.911 18.911 0 0 1 37.818 0C50.909 34.976 32 58 32 58S13.091 34.976 13.091 24.667z" opacity="1" data-original="#fbb040"></path><circle cx="32" cy="25" r="8" fill="#f1f2f2" opacity="1" data-original="#f1f2f2"></circle><circle cx="57" cy="53" r="5" fill="#ff5a5f" opacity="1" data-original="#ff5a5f"></circle><circle cx="6" cy="10" r="4" fill="#729caf" opacity="1" data-original="#729caf"></circle></g></svg>