<?xml version="1.0" encoding="UTF-8"?>
<svg id="Layer_2" data-name="Layer 2" xmlns="http://www.w3.org/2000/svg" viewBox="0 0 30 30">
  <defs>
    <style>
      .cls-1 {
        fill: #000;
        strokeWidth: 0px;
      }
    </style>
  </defs>
  <g id="Layer_1-2" data-name="Layer 1">
    <path className="cls-1" d="M15,0C6.72,0,0,6.72,0,15s6.72,15,15,15,15-6.72,15-15S23.28,0,15,0ZM10.64,22.68h-3.65v-10.99h3.65v10.99ZM8.81,10.18h-.02c-1.23,0-2.02-.84-2.02-1.9s.82-1.9,2.07-1.9,2.02.82,2.04,1.9c0,1.05-.79,1.9-2.07,1.9ZM23.81,22.68h-3.65v-5.88c0-1.48-.53-2.49-1.85-2.49-1.01,0-1.61.68-1.87,1.34-.1.23-.12.56-.12.89v6.14h-3.65s.05-9.96,0-10.99h3.65v1.56c.49-.75,1.35-1.81,3.29-1.81,2.4,0,4.21,1.57,4.21,4.95v6.3Z"/>
  </g>
</svg>