<?xml version="1.0" encoding="UTF-8"?>
<svg id="Layer_2" data-name="Layer 2" xmlns="http://www.w3.org/2000/svg" viewBox="0 0 30 30">
  <defs>
    <style>
      .cls-1 {
        fill: #000;
        strokeWidth: 0px;
      }
    </style>
  </defs>
  <g id="Layer_1-2" data-name="Layer 1">
    <g>
      <path class="cls-1" d="M17.87,15c0,1.59-1.29,2.87-2.87,2.87s-2.87-1.29-2.87-2.87,1.29-2.87,2.87-2.87,2.87,1.29,2.87,2.87Z"/>
      <path class="cls-1" d="M21.71,9.92c-.14-.37-.36-.71-.64-.99-.28-.29-.62-.51-.99-.64-.3-.12-.76-.26-1.6-.3-.91-.04-1.18-.05-3.48-.05s-2.57,0-3.48.05c-.84.04-1.3.18-1.6.3-.37.14-.71.36-.99.64-.29.28-.51.62-.64.99-.12.3-.26.76-.3,1.6-.04.91-.05,1.18-.05,3.48s0,2.57.05,3.48c.04.84.18,1.3.3,1.6.14.37.36.71.64.99.28.29.62.51.99.64.3.12.76.26,1.6.3.91.04,1.18.05,3.48.05s2.57,0,3.48-.05c.84-.04,1.3-.18,1.6-.3.75-.29,1.34-.88,1.63-1.63.12-.3.26-.76.3-1.6.04-.91.05-1.18.05-3.48s0-2.57-.05-3.48c-.04-.84-.18-1.3-.3-1.6ZM15,19.42c-2.44,0-4.42-1.98-4.42-4.42s1.98-4.42,4.42-4.42,4.42,1.98,4.42,4.42-1.98,4.42-4.42,4.42ZM19.6,11.44c-.57,0-1.03-.46-1.03-1.03s.46-1.03,1.03-1.03,1.03.46,1.03,1.03c0,.57-.46,1.03-1.03,1.03Z"/>
      <path class="cls-1" d="M15,0C6.72,0,0,6.72,0,15s6.72,15,15,15,15-6.72,15-15S23.28,0,15,0ZM23.56,18.55c-.04.92-.19,1.54-.4,2.09-.45,1.16-1.36,2.07-2.52,2.52-.55.21-1.17.36-2.09.4-.92.04-1.21.05-3.55.05s-2.63-.01-3.55-.05c-.92-.04-1.54-.19-2.09-.4-.57-.22-1.1-.56-1.53-.99-.44-.43-.78-.95-.99-1.53-.21-.55-.36-1.17-.4-2.09-.04-.92-.05-1.21-.05-3.55s0-2.63.05-3.55c.04-.92.19-1.54.4-2.09.22-.57.56-1.1.99-1.53.43-.44.95-.78,1.53-.99.55-.21,1.17-.36,2.09-.4.92-.04,1.21-.05,3.55-.05s2.63.01,3.55.05c.92.04,1.54.19,2.09.4.57.22,1.1.56,1.53.99.44.43.78.95.99,1.53.21.55.36,1.17.4,2.09.04.92.05,1.21.05,3.55s0,2.63-.05,3.55Z"/>
    </g>
  </g>
</svg>