<?xml version="1.0" encoding="UTF-8"?>
<svg id="Layer_2" data-name="Layer 2" xmlns="http://www.w3.org/2000/svg" viewBox="0 0 30 30">
  <defs>
    <style>
      .cls-1 {
        fill: #000;
        strokeWidth: 0px;
      }
    </style>
  </defs>
  <g id="Capa_1" data-name="Capa 1">
    <g>
      <path class="cls-1" d="M12.27,18.29c2.25-1.17,4.48-2.32,6.73-3.49-2.26-1.18-4.49-2.34-6.73-3.51v7Z"/>
      <path class="cls-1" d="M15,0C6.72,0,0,6.72,0,15s6.72,15,15,15,15-6.72,15-15S23.28,0,15,0ZM25.22,20.01c-.26,1.13-1.18,1.96-2.29,2.08-2.63.29-5.28.3-7.93.29-2.65,0-5.31,0-7.93-.29-1.11-.12-2.03-.95-2.29-2.08-.37-1.6-.37-3.36-.37-5.01s0-3.4.37-5.01c.26-1.13,1.18-1.96,2.29-2.08,2.63-.29,5.29-.29,7.93-.29,2.65,0,5.3,0,7.93.29,1.11.12,2.03.95,2.29,2.08.37,1.6.37,3.36.37,5.01s0,3.4-.37,5.01Z"/>
    </g>
  </g>
</svg>