<svg xmlns="http://www.w3.org/2000/svg" version="1.1" xmlns:xlink="http://www.w3.org/1999/xlink" width="512" height="512" x="0" y="0" viewBox="0 0 64 64" style="enable-background:new 0 0 512 512" xml:space="preserve"><circle r="32" cx="32" cy="32" fill="#ffffff" shape="circle"></circle><g transform="matrix(0.69,0,0,0.69,9.842500000000005,9.920000000000002)"><g fill="#7a8899"><path d="M31 9h2v9h-2zM31 46h2v9h-2zM44.707 19.707l-1.414-1.414 4-4A1 1 0 0 1 48 14h4.5v2h-4.086zM45 31h12v2H45zM52.5 50H48a1 1 0 0 1-.707-.293l-4-4 1.414-1.414L48.414 48H52.5z" fill="#7a8899" opacity="1" data-original="#7a8899"></path></g><circle cx="32" cy="7" r="3" fill="#e65c5e" opacity="1" data-original="#e65c5e"></circle><circle cx="55.5" cy="15" r="3" fill="#e65c5e" opacity="1" data-original="#e65c5e"></circle><circle cx="32" cy="57" r="3" fill="#e65c5e" opacity="1" data-original="#e65c5e"></circle><circle cx="55.5" cy="49" r="3" fill="#e65c5e" opacity="1" data-original="#e65c5e"></circle><circle cx="59.5" cy="32" r="3" fill="#e65c5e" opacity="1" data-original="#e65c5e"></circle><path fill="#596c80" d="M8.769 46.217c.467-.368.933-.731 1.393-1.088l.224-.174C6.355 41.688 3 38.151 3 32c0-7.26 4.669-10.878 9.613-14.709C17.719 13.333 23 9.24 23 1h-2c0 7.26-4.669 10.878-9.613 14.709C6.281 19.667 1 23.76 1 32c0 6.825 3.624 10.8 7.769 14.217z" opacity="1" data-original="#596c80"></path><path fill="#3e9944" d="M17.419 7H3.5v2h12.471a13.9 13.9 0 0 0 1.448-2z" opacity="1" data-original="#3e9944"></path><path fill="#e6992e" d="M6.581 26H20.5v-2H8.029a13.9 13.9 0 0 0-1.448 2z" opacity="1" data-original="#e6992e"></path><path fill="#596c80" d="M15.231 48.783c-.467.368-.933.731-1.393 1.088l-.224.174C17.645 53.312 21 56.849 21 63h2c0-6.825-3.624-10.8-7.769-14.217z" opacity="1" data-original="#596c80"></path><path fill="#e6992e" d="M15.982 55H3.5v2h13.936a13.835 13.835 0 0 0-1.454-2z" opacity="1" data-original="#e6992e"></path><path fill="#596c80" d="M8.769 15.217c.467-.368.933-.731 1.393-1.088l.224-.174C6.355 10.688 3 7.151 3 1H1c0 6.825 3.624 10.8 7.769 14.217z" opacity="1" data-original="#596c80"></path><path fill="#d9575d" d="M5 32c0 .343.014.675.036 1H22v-2H5.041c-.024.326-.041.656-.041 1z" opacity="1" data-original="#d9575d"></path><path fill="#3e9944" d="M8.018 40H20.5v-2H6.564a13.835 13.835 0 0 0 1.454 2z" opacity="1" data-original="#3e9944"></path><path fill="#596c80" d="M15.231 17.783c-.467.368-.933.731-1.393 1.088l-.224.174C17.645 22.312 21 25.849 21 32c0 7.26-4.669 10.878-9.613 14.709C6.281 50.667 1 54.76 1 63h2c0-7.26 4.669-10.878 9.613-14.709C17.719 44.333 23 40.24 23 32c0-6.825-3.624-10.8-7.769-14.217z" opacity="1" data-original="#596c80"></path><rect width="27" height="22" x="15" y="21" fill="#2970cc" rx="1" opacity="1" data-original="#2970cc"></rect><path fill="#f2f2f2" d="M25 26h-2a1 1 0 0 0-.967.745L19.071 38h2.068l1.053-4h3.616l1.053 4h2.068l-2.962-11.255A1 1 0 0 0 25 26zm-2.282 6 1.053-4h.458l1.053 4zM31 28h2.5v8H31v2h7v-2h-2.5v-8H38v-2h-7z" opacity="1" data-original="#f2f2f2"></path></g></svg>