<svg xmlns="http://www.w3.org/2000/svg" version="1.1" xmlns:xlink="http://www.w3.org/1999/xlink" width="512" height="512" x="0" y="0" viewBox="0 0 512 512" style="enable-background:new 0 0 512 512" xml:space="preserve" class=""><circle r="256" cx="256" cy="256" fill="#ffffff" shape="circle"></circle><g transform="matrix(0.69,0,0,0.69,79.3599967479706,79.35999704360964)"><path fill="#5d689e" d="M196.15 408.493h102.668v66.798H196.15z" opacity="1" data-original="#5d689e"></path><path fill="#495586" d="M283.509 408.493h15.309v66.798h-15.309z" opacity="1" data-original="#495586"></path><path fill="#7986bf" fill-rule="evenodd" d="M170.327 465.708h154.314c15.612 0 28.344 12.735 28.344 28.343v6.879H141.984v-6.879c0-15.611 12.732-28.343 28.342-28.343z" opacity="1" data-original="#7986bf"></path><path fill="#909cd1" fill-rule="evenodd" d="M170.327 465.708h136.32c15.612 0 28.343 12.735 28.343 28.343v6.879H141.984v-6.879c0-15.611 12.732-28.343 28.342-28.343z" opacity="1" data-original="#909cd1"></path><rect width="466.421" height="324.811" x="14.273" y="94.758" fill="#b6dbff" rx="17.34" opacity="1" data-original="#b6dbff"></rect><path fill="#f3f3ff" d="M43.9 124.383h407.17v249.404H43.9z" opacity="1" data-original="#f3f3ff" class=""></path><path fill="#85caff" fill-rule="evenodd" d="M284.524 373.787v-71.554a7 7 0 0 1 7-7h51.216a7 7 0 1 1 0 14h-44.216v64.554zm-88.078 0v-64.554H152.23a7 7 0 1 1 0-14h51.216a7 7 0 0 1 7 7v71.554zm29.359 0h14V282.27a6.983 6.983 0 0 0-2.098-4.997l-38.606-38.606a7 7 0 0 0-9.898 9.898l36.602 36.602v88.619zm29.359 0h14v-88.619l36.603-36.602a7 7 0 0 0-9.898-9.898l-38.606 38.606a6.978 6.978 0 0 0-2.099 4.997v91.517z" opacity="1" data-original="#85caff"></path><circle cx="146.238" cy="302.233" r="17.058" fill="#2a93fc" transform="rotate(-22.48 146.27 301.944)" opacity="1" data-original="#2a93fc"></circle><path fill="#f23353" fill-rule="evenodd" d="M177.093 243.617c0-9.421 7.637-17.059 17.058-17.059s17.058 7.638 17.058 17.059-7.637 17.058-17.058 17.058-17.058-7.637-17.058-17.058z" opacity="1" data-original="#f23353"></path><circle cx="348.73" cy="302.233" r="17.058" fill="#fdc72e" transform="rotate(-13.34 348.033 302.204)" opacity="1" data-original="#fdc72e" class=""></circle><g fill-rule="evenodd"><path fill="#2dd62d" d="M317.876 243.617c0-9.421-7.638-17.059-17.059-17.059s-17.058 7.638-17.058 17.059 7.637 17.058 17.058 17.058 17.059-7.637 17.059-17.058z" opacity="1" data-original="#2dd62d"></path><path fill="#4eb1fc" d="M129.18 302.233c0-7.727 5.138-14.252 12.183-16.35 7.045 2.098 12.183 8.623 12.183 16.35s-5.138 14.252-12.183 16.35c-7.045-2.098-12.183-8.623-12.183-16.35z" opacity="1" data-original="#4eb1fc"></path><path fill="#ff5471" d="M177.093 243.617c0-7.727 5.138-14.253 12.183-16.35 7.045 2.098 12.183 8.623 12.183 16.35s-5.138 14.252-12.183 16.35c-7.045-2.098-12.183-8.623-12.183-16.35z" opacity="1" data-original="#ff5471"></path><path fill="#fcdb35" d="M343.855 285.883c-7.045 2.098-12.183 8.623-12.183 16.35s5.138 14.252 12.183 16.35c7.045-2.098 12.183-8.623 12.183-16.35s-5.138-14.252-12.183-16.35z" opacity="1" data-original="#fcdb35" class=""></path><path fill="#43f043" d="M295.942 227.267c-7.045 2.098-12.183 8.623-12.183 16.35s5.138 14.252 12.183 16.35c7.046-2.098 12.184-8.623 12.184-16.35s-5.138-14.253-12.184-16.35z" opacity="1" data-original="#43f043"></path></g><path fill="#4eb1fc" d="M397.454 147.854h30.144v30.144h-30.144z" opacity="1" data-original="#4eb1fc"></path><path fill="#fcdb35" d="M406.697 24.409h36.132v36.132h-36.132z" opacity="1" data-original="#fcdb35" class=""></path><path fill="#ff5471" d="M451.069 77.726h46.658v46.658h-46.658z" opacity="1" data-original="#ff5471"></path><path fill="#2a93fc" d="M419.154 147.854h8.444v30.144h-8.444z" opacity="1" data-original="#2a93fc"></path><path fill="#f23353" d="M486.84 77.726h10.887v46.658H486.84z" opacity="1" data-original="#f23353"></path><path fill="#fdc72e" d="M434.386 24.409h8.444v36.132h-8.444z" opacity="1" data-original="#fdc72e" class=""></path><path fill="#f9ac00" fill-rule="evenodd" d="m290.871 38.159 14.667-9.835 23.193 23.193-9.836 14.667 9.766 23.571 17.323 3.415v32.801l-17.323 3.415-9.766 23.571 9.836 14.667-23.193 23.193-14.667-9.836-23.571 9.766-3.416 17.323h-32.8l-3.416-17.324-23.57-9.765-14.667 9.836-23.193-23.193 9.835-14.667-9.765-23.571-17.324-3.415V93.17l17.324-3.415 9.765-23.571-9.835-14.667 23.193-23.193 14.666 9.835 23.571-9.765 3.416-17.324h32.8l3.416 17.324z" opacity="1" data-original="#f9ac00"></path><path fill="#fcdb35" fill-rule="evenodd" d="m290.871 38.159 8.332-5.586 18.945 18.944-9.836 14.667 9.766 23.571 17.323 3.415v32.801l-17.323 3.416-9.766 23.571 9.836 14.667-18.945 18.943-8.332-5.587-8.576-5.75-24.522 10.16-4.472 22.679h-22.217l-3.415-17.324-23.571-9.765h-.001l-8.772-3.634-11.591 7.773-17.496-17.496 9.835-14.667-9.765-23.571-17.324-3.415V93.17l17.324-3.415 9.765-23.571-9.835-14.667 17.496-17.496 11.591 7.773 8.772-3.635 23.572-9.765 3.415-17.324h22.217l4.472 22.68 24.522 10.16z" opacity="1" data-original="#fcdb35" class=""></path><circle cx="238.413" cy="109.57" r="50.514" fill="#f9ac00" transform="rotate(-76.7 238.484 109.594)" opacity="1" data-original="#f9ac00"></circle><circle cx="247.484" cy="109.57" r="50.514" fill="#f3f3ff" transform="rotate(-45 247.482 109.624)" opacity="1" data-original="#f3f3ff" class=""></circle></g></svg>