<svg xmlns="http://www.w3.org/2000/svg" version="1.1" xmlns:xlink="http://www.w3.org/1999/xlink" width="512" height="512" x="0" y="0" viewBox="0 0 500 500" style="enable-background:new 0 0 512 512" xml:space="preserve" class=""><circle r="250" cx="250" cy="250" fill="#ffffff" shape="circle"></circle><g transform="matrix(0.69,0,0,0.69,77.51949443817139,76.82184159278873)"><g fill-rule="evenodd" clip-rule="evenodd"><path fill="#4187b5" d="M250 61.522c109.064 0 197.48 88.416 197.48 197.479S359.064 456.48 250 456.48 52.521 368.065 52.521 259.001c0-109.063 88.415-197.479 197.479-197.479zm130.004 67.476c-71.797-71.797-188.21-71.797-260.007 0s-71.797 188.21 0 260.007 188.209 71.797 260.007 0c71.797-71.797 71.797-188.209 0-260.007z" opacity="1" data-original="#4187b5"></path><path fill="#60b7fe" d="M250 148.444a29.829 29.829 0 0 0-24.899 13.372c-4.397 6.626-12.055 9.798-19.85 8.222-20.944-4.234-39.446 14.269-35.213 35.213 1.576 7.795-1.596 15.453-8.223 19.85-17.808 11.819-17.808 37.98 0 49.798 6.626 4.398 9.798 12.055 8.222 19.85-4.234 20.944 14.268 39.447 35.212 35.212 7.795-1.576 15.453 1.596 19.85 8.222 11.819 17.808 37.979 17.808 49.798 0 4.398-6.626 12.055-9.798 19.851-8.222 20.944 4.234 39.446-14.269 35.212-35.212-1.576-7.795 1.596-15.453 8.222-19.85 17.809-11.819 17.809-37.979 0-49.798-6.626-4.397-9.798-12.055-8.222-19.85 4.234-20.944-14.268-39.447-35.212-35.213-7.795 1.576-15.453-1.596-19.85-8.222A29.825 29.825 0 0 0 250 148.444z" opacity="1" data-original="#60b7fe"></path><path fill="#2b3f4f" d="M192.548 252.522a6.788 6.788 0 1 1 10.168-8.996l26.129 29.5 69.026-60.743a6.808 6.808 0 1 1 8.996 10.221l-74.106 65.214-.013-.015a6.789 6.789 0 0 1-9.569-.597z" opacity="1" data-original="#2b3f4f"></path><circle cx="102.812" cy="397.189" r="70.849" fill="#4187b5" transform="rotate(-16.86 102.653 396.9)" opacity="1" data-original="#4187b5"></circle><path fill="#f0b16e" d="M102.812 406.19c24.689 0 45.415 17.813 49.971 41.22-27.641 27.503-72.302 27.504-99.943 0 4.557-23.407 25.283-41.22 49.972-41.22z" opacity="1" data-original="#f0b16e"></path><path fill="#f0b16e" d="M102.812 406.19c14.057 0 25.453-11.396 25.453-25.453 0-14.058-11.396-25.453-25.453-25.453s-25.453 11.396-25.453 25.453c-.001 14.057 11.395 25.453 25.453 25.453z" opacity="1" data-original="#f0b16e"></path><circle cx="102.812" cy="102.811" r="70.849" fill="#4187b5" transform="rotate(-22.48 102.783 102.688)" opacity="1" data-original="#4187b5"></circle><path fill="#f0b16e" d="M102.812 111.813c24.689 0 45.415 17.812 49.971 41.22-27.641 27.504-72.301 27.504-99.943.001 4.557-23.408 25.283-41.221 49.972-41.221zM102.812 111.813c14.057 0 25.453-11.396 25.453-25.453 0-14.058-11.396-25.453-25.453-25.453S77.359 72.303 77.359 86.36c-.001 14.057 11.395 25.453 25.453 25.453z" opacity="1" data-original="#f0b16e"></path><circle cx="397.189" cy="102.811" r="70.849" fill="#4187b5" transform="rotate(-22.48 396.943 102.553)" opacity="1" data-original="#4187b5"></circle><path fill="#f0b16e" d="M397.189 111.813c24.689 0 45.415 17.812 49.971 41.22-27.64 27.504-72.302 27.504-99.943.001 4.557-23.408 25.283-41.221 49.972-41.221zM397.189 111.813c14.057 0 25.453-11.396 25.453-25.453 0-14.058-11.396-25.453-25.453-25.453s-25.453 11.396-25.453 25.453c-.001 14.057 11.395 25.453 25.453 25.453z" opacity="1" data-original="#f0b16e"></path><circle cx="397.189" cy="397.189" r="70.849" fill="#4187b5" transform="rotate(-16.86 396.8 396.96)" opacity="1" data-original="#4187b5"></circle><g fill="#f0b16e"><path d="M397.189 406.19c24.689 0 45.415 17.813 49.971 41.22-27.64 27.503-72.302 27.504-99.943 0 4.557-23.407 25.283-41.22 49.972-41.22z" fill="#f0b16e" opacity="1" data-original="#f0b16e"></path><path d="M397.189 406.19c14.057 0 25.453-11.396 25.453-25.453 0-14.058-11.396-25.453-25.453-25.453s-25.453 11.396-25.453 25.453c-.001 14.057 11.395 25.453 25.453 25.453z" fill="#f0b16e" opacity="1" data-original="#f0b16e"></path></g></g></g></svg>