<svg xmlns="http://www.w3.org/2000/svg" version="1.1" xmlns:xlink="http://www.w3.org/1999/xlink" width="512" height="512" x="0" y="0" viewBox="0 0 512 512" style="enable-background:new 0 0 512 512" xml:space="preserve" class=""><circle r="256" cx="256" cy="256" fill="#ffffff" shape="circle"></circle><g transform="matrix(0.69,0,0,0.69,77.19929607391359,78.0347465705872)"><path fill="#f8be9b" fill-rule="evenodd" d="M141.25 367.36c41.16-42.07 39.69-35.55 123.87-38.55 29.2-1.05 30.67 35.52 1.9 40.76l-49.29 9.01 88.87-3.03c6.15.51 10.86-2.38 16.3-5.33l74.95-40.54c25.85-13.97 54.96 5.16 33.02 24.75C266.83 500.85 297.73 460.82 95.48 460.82v-93.46z" clip-rule="evenodd" opacity="1" data-original="#f8be9b"></path><path fill="#1d4e89" fill-rule="evenodd" d="M92.58 349.05H62.51c-7.54 0-13.72 6.18-13.72 13.75v100.18c0 7.57 6.18 13.75 13.72 13.75h30.08c7.54 0 13.72-6.18 13.72-13.75V362.8c-.01-7.57-6.19-13.75-13.73-13.75z" clip-rule="evenodd" opacity="1" data-original="#1d4e89"></path><path fill="#d81159" d="M143.24 333.09c2.24 3.8.99 8.7-2.81 10.94s-8.7.99-10.94-2.81c-5.61-9.5-10.35-19.59-14.12-30.13a174.044 174.044 0 0 1-8.05-32.26 7.946 7.946 0 0 1 6.75-9.04c4.37-.65 8.42 2.38 9.07 6.75 1.5 10.09 3.97 19.87 7.31 29.23 3.41 9.58 7.69 18.7 12.79 27.32zm21.32-188.65c-3.03 3.2-8.08 3.32-11.28.28-3.2-3.03-3.32-8.08-.28-11.28 6.15-6.52 12.84-12.56 19.98-18.09 7.11-5.5 14.63-10.43 22.51-14.77 3.86-2.13 8.7-.71 10.83 3.15a8 8 0 0 1-3.15 10.86c-7.2 3.97-14.03 8.45-20.44 13.41a157.986 157.986 0 0 0-18.17 16.44z" opacity="1" data-original="#d81159"></path><g fill-rule="evenodd" clip-rule="evenodd"><path fill="#1d4e89" d="m345.49 101.9-8.33-22.2H306.8l-8.33 22.2c-12.3 2.75-23.84 7.6-34.16 14.15l-21.6-9.81-21.46 21.46 9.81 21.6a107.074 107.074 0 0 0-14.17 34.19l-22.2 8.33v30.36l22.2 8.33c2.75 12.3 7.6 23.84 14.17 34.16l-9.81 21.6 21.46 21.46 21.6-9.81a106.913 106.913 0 0 0 34.16 14.17l8.33 22.2h30.36l8.33-22.2c12.33-2.75 23.84-7.6 34.16-14.17l21.6 9.81 21.49-21.46-9.81-21.6c6.55-10.32 11.4-21.85 14.14-34.16l22.2-8.33v-30.36l-22.2-8.33c-2.75-12.33-7.6-23.84-14.14-34.19l9.81-21.6-21.49-21.46-21.6 9.81a107.044 107.044 0 0 0-34.16-14.15z" opacity="1" data-original="#1d4e89"></path><path fill="#153964" d="M225.13 159.89c-3.2 6.55-5.73 13.49-7.57 20.69 39.37 33.08 169.48 33.08 208.83 0a107.77 107.77 0 0 0-7.54-20.69c-62.45 14.26-131.3 14.26-193.72 0z" opacity="1" data-original="#153964"></path><path fill="#ffffff" d="M321.99 134.75c39.88 0 72.23 32.34 72.23 72.23 0 39.88-32.34 72.23-72.23 72.23-39.91 0-72.23-32.34-72.23-72.23s32.32-72.23 72.23-72.23z" opacity="1" data-original="#ffffff"></path><path fill="#fb8500" d="M430.87 153.66c3.77-38.81-15.62-76.45-50.31-97.26-3.17-1.9-6.41-3.63-9.69-5.19V35.62H349.5l.88-8.9h-55.3l.88 8.9h-21.37v15.59c-3.29 1.56-6.52 3.29-9.69 5.19-34.75 20.83-54.14 58.54-50.29 97.4.06 0 .14.03.2.06 68.54 17.55 145.84 17.55 214.38 0 .55-.17 1.11-.23 1.68-.2z" opacity="1" data-original="#fb8500"></path><path fill="#b76100" d="M430.87 153.66c.09-.99.17-2.01.23-3-.62-.06-1.28 0-1.93.17-68.54 17.57-145.84 17.57-214.38 0-.14-.03-.31-.08-.45-.08.06 1.02.14 2.04.26 3.06.06 0 .14.03.2.06 68.54 17.55 145.84 17.55 214.38 0a4.65 4.65 0 0 1 1.69-.21z" opacity="1" data-original="#b76100"></path><path fill="#ffb703" d="M207.47 163.24c17.55 51.48 211.46 51.48 229.04 0 1.79-5.3-2.41-10.66-7.34-9.38-68.54 17.55-145.84 17.55-214.38 0-4.94-1.28-9.13 4.11-7.32 9.38z" opacity="1" data-original="#ffb703"></path></g><path fill="#ffb703" d="m349.66 35.62-12.36.2-4.08 52.27c-.34 4.39 2.15 8.31 5.56 8.73 3.4.43 6.41-2.78 6.75-7.17zm-41.56.37 4.11 52.1c.34 4.39-2.15 8.31-5.56 8.73-3.4.43-6.41-2.78-6.75-7.17l-4.17-54.08zM282.56 77.09c0 4.42-3.57 8.02-7.99 8.02s-7.99-3.6-7.99-8.02V35.62h15.99v41.47zm96.29 0c0 4.42-3.57 8.02-7.99 8.02s-8.02-3.6-8.02-8.02V35.62h16.02v41.47z" opacity="1" data-original="#ffb703"></path><path fill="#ffb703" fill-rule="evenodd" d="M121.92 252.62c27.38 0 49.69-22.34 49.69-49.69s-22.31-49.69-49.69-49.69c-27.35 0-49.66 22.34-49.66 49.69s22.31 49.69 49.66 49.69z" clip-rule="evenodd" opacity="1" data-original="#ffb703"></path><path fill="#218380" d="M92.27 207.57c-2.21-3.8-.91-8.7 2.92-10.91 3.8-2.21 8.7-.91 10.91 2.92l4.68 8.14 28.23-28.26c3.15-3.12 8.19-3.12 11.31 0 3.15 3.15 3.15 8.19 0 11.31l-35.57 35.6h-.03c-.48.48-1.02.91-1.64 1.25-3.8 2.21-8.7.91-10.91-2.89z" opacity="1" data-original="#218380"></path></g></svg>