<svg xmlns="http://www.w3.org/2000/svg" version="1.1" xmlns:xlink="http://www.w3.org/1999/xlink" width="512" height="512" x="0" y="0" viewBox="0 0 58 58" style="enable-background:new 0 0 512 512" xml:space="preserve"><circle r="29" cx="29" cy="29" fill="#ffffff" shape="circle"></circle><g transform="matrix(0.69,0,0,0.69,8.990000000000006,8.990000000000006)"><g fill="#9eebf9"><path d="M44 30a1 1 0 0 1-1-1c0-2.206 1.794-4 4-4h6c.551 0 1-.449 1-1v-5a1 1 0 0 1 2 0v5c0 1.654-1.346 3-3 3h-6c-1.103 0-2 .897-2 2a1 1 0 0 1-1 1zM16 19h-5c-4.963 0-9-4.038-9-9a1 1 0 0 1 2 0c0 3.86 3.14 7 7 7h5a1 1 0 0 1 0 2zM23 53h-8a1 1 0 0 1 0-2h8c2.757 0 5-2.243 5-5a1 1 0 0 1 2 0c0 3.86-3.14 7-7 7zM16 41H6a1 1 0 0 1 0-2h10a1 1 0 0 1 0 2zM29 7a1 1 0 0 1-1-1c0-1.103-.897-2-2-2h-5a1 1 0 0 1 0-2h5c2.206 0 4 1.794 4 4a1 1 0 0 1-1 1z" fill="#9eebf9" opacity="1" data-original="#9eebf9"></path><path d="M29 13a1 1 0 0 1-1-1V6a1 1 0 0 1 2 0v6a1 1 0 0 1-1 1zM37 15a1 1 0 0 1-1-1c0-2.206 1.794-4 4-4h3c.551 0 1-.449 1-1V6a1 1 0 0 1 2 0v3c0 1.654-1.346 3-3 3h-3c-1.103 0-2 .897-2 2a1 1 0 0 1-1 1zM55 42a1 1 0 0 1-1-1v-3c0-.551-.449-1-1-1h-9.525C41.396 37 40 35.393 40 33a1 1 0 0 1 2 0c0 .602.144 2 1.475 2H53c1.654 0 3 1.346 3 3v3a1 1 0 0 1-1 1zM42 50a1 1 0 0 1-1-1c0-.551-.449-1-1-1-2.206 0-4-1.794-4-4a1 1 0 0 1 2 0c0 1.103.897 2 2 2 1.654 0 3 1.346 3 3a1 1 0 0 1-1 1z" fill="#9eebf9" opacity="1" data-original="#9eebf9"></path></g><circle cx="3" cy="7" r="3" fill="#5469e0" opacity="1" data-original="#5469e0"></circle><circle cx="18" cy="3" r="3" fill="#5469e0" opacity="1" data-original="#5469e0"></circle><circle cx="55" cy="16" r="3" fill="#5469e0" opacity="1" data-original="#5469e0"></circle><circle cx="55" cy="44" r="3" fill="#5469e0" opacity="1" data-original="#5469e0"></circle><circle cx="12" cy="52" r="3" fill="#5469e0" opacity="1" data-original="#5469e0"></circle><circle cx="3" cy="40" r="3" fill="#5469e0" opacity="1" data-original="#5469e0"></circle><circle cx="45" cy="3" r="3" fill="#5469e0" opacity="1" data-original="#5469e0"></circle><circle cx="29" cy="29" r="17" fill="#5469e0" opacity="1" data-original="#5469e0"></circle><path fill="#9eebf9" d="M42 53a1 1 0 0 1-1-1v-3a1 1 0 0 1 2 0v3a1 1 0 0 1-1 1zM21 27h16v12H21z" opacity="1" data-original="#9eebf9"></path><path fill="#ffffff" d="M26 31h6v4h-6zM29 17a6 6 0 0 0-6 6v4h4v-4a2 2 0 0 1 4 0v4h4v-4a6 6 0 0 0-6-6z" opacity="1" data-original="#ffffff"></path><circle cx="42" cy="55" r="3" fill="#5469e0" opacity="1" data-original="#5469e0"></circle></g></svg>