<svg xmlns="http://www.w3.org/2000/svg" version="1.1" xmlns:xlink="http://www.w3.org/1999/xlink" width="512" height="512" x="0" y="0" viewBox="0 0 64 64" style="enable-background:new 0 0 512 512" xml:space="preserve" class=""><g><path fill="#ffc239" d="M41 44v-4.135C47.525 36.572 52 29.808 52 22c0-11.046-8.954-20-20-20s-20 8.954-20 20c0 7.808 4.475 14.572 11 17.865V44z" opacity="1" data-original="#ffc239"></path><path fill="#ffd55d" d="M32 2c-5.757 0-10.93 2.446-14.579 6.339 2.288 14.506 13.748 25.962 28.256 28.243C49.566 32.934 52 27.753 52 22c0-11.046-8.954-20-20-20z" opacity="1" data-original="#ffd55d"></path><ellipse cx="41.771" cy="11.455" fill="#fff7df" rx="3.187" ry="6.362" transform="rotate(-47.31 41.775 11.457)" opacity="1" data-original="#fff7df"></ellipse><path fill="#f1f1f3" d="M30 44h-2V28.414l-2.707-2.707 1.414-1.414 3 3A.997.997 0 0 1 30 28zM36 44h-2V28c0-.265.105-.52.293-.707l3-3 1.414 1.414L36 28.414z" opacity="1" data-original="#f1f1f3" class=""></path><path fill="#0e7e99" d="M59.965 12.21A6.001 6.001 0 0 0 63 7c0-3.309-2.691-6-6-6a5.997 5.997 0 0 0-5.215 3.045c-5.281.324-12.411 3.718-19.783 9.245C20.734 4.851 10.285 1.615 5.95 5.95c-2.978 2.978-2.54 8.735 1.201 16.249A3.984 3.984 0 0 0 6 25c0 2.206 1.794 4 4 4s4-1.794 4-4-1.794-4-4-4c-.392 0-.764.074-1.123.18C5.701 14.737 5.122 9.606 7.364 7.364c3.168-3.167 12.292-.719 22.994 7.186A95.886 95.886 0 0 0 22 22C11.471 32.53 4.515 44.113 4.045 51.785A5.997 5.997 0 0 0 1 57c0 3.309 2.691 6 6 6a6 6 0 0 0 5.213-3.041c3.263-.203 7.333-1.594 11.799-4.054l3.747-1.772-.855-1.808-3.801 1.8c-3.872 2.131-7.351 3.413-10.177 3.768.044-.293.074-.589.074-.893 0-3.309-2.691-6-6-6-.306 0-.605.03-.899.075.892-7.132 7.648-17.995 17.313-27.66a92.497 92.497 0 0 1 8.606-7.604 93.404 93.404 0 0 1 8.565 7.604c4.08 4.08 7.728 8.466 10.614 12.737A3.983 3.983 0 0 0 50 39c0 2.206 1.794 4 4 4 .392 0 .764-.074 1.123-.18 3.176 6.443 3.754 11.574 1.513 13.816-2.485 2.483-8.369 1.544-15.78-2.533l-2.91-1.43-.882 1.795 2.868 1.408c4.95 2.725 9.292 4.108 12.671 4.108 2.299 0 4.152-.641 5.446-1.935 2.978-2.978 2.54-8.735-1.201-16.249A3.976 3.976 0 0 0 58 39c0-2.206-1.794-4-4-4-.368 0-.718.066-1.057.16a75.734 75.734 0 0 0-2.243-3.159c5.606-7.491 8.943-14.624 9.265-19.791zM12 25c0 1.103-.897 2-2 2s-2-.897-2-2 .897-2 2-2 2 .897 2 2zm-1 32c0 2.206-1.794 4-4 4s-4-1.794-4-4 1.794-4 4-4 4 1.794 4 4zm45-18c0 1.103-.897 2-2 2s-2-.897-2-2 .897-2 2-2 2 .897 2 2zm1-36c2.206 0 4 1.794 4 4s-1.794 4-4 4-4-1.794-4-4 1.794-4 4-4zM33.663 14.564c6.48-4.777 12.745-7.879 17.412-8.462A5.902 5.902 0 0 0 51 7c0 3.309 2.691 6 6 6 .302 0 .597-.03.888-.073-.585 4.575-3.645 10.899-8.453 17.425A95.674 95.674 0 0 0 42 22a95.648 95.648 0 0 0-8.337-7.436z" opacity="1" data-original="#5490f5" class=""></path><path fill="#393a3a" d="M23 48v3h18v-3zM39 55a7 7 0 1 1-14 0z" opacity="1" data-original="#393a3a"></path><path fill="#d5d6d8" d="M42 48H22a1 1 0 0 1-1-1v-2a1 1 0 0 1 1-1h20a1 1 0 0 1 1 1v2a1 1 0 0 1-1 1z" opacity="1" data-original="#d5d6d8"></path><path fill="#f1f1f3" d="M42 44H23v1a2 2 0 0 0 2 2h18v-2a1 1 0 0 0-1-1z" opacity="1" data-original="#f1f1f3" class=""></path><path fill="#d5d6d8" d="M42 55H22a1 1 0 0 1-1-1v-2a1 1 0 0 1 1-1h20a1 1 0 0 1 1 1v2a1 1 0 0 1-1 1z" opacity="1" data-original="#d5d6d8"></path><path fill="#f1f1f3" d="M42 51H23v1a2 2 0 0 0 2 2h18v-2a1 1 0 0 0-1-1z" opacity="1" data-original="#f1f1f3" class=""></path><path fill="#0e7e99" d="M57 1a5.997 5.997 0 0 0-5.215 3.045c-5.281.324-12.411 3.718-19.783 9.245-6.948-5.204-13.579-8.42-18.663-9.112.074.69.163 1.375.261 2.057 4.354.741 10.261 3.516 16.759 8.315a95.749 95.749 0 0 0-10.802 9.991c.328.623.671 1.236 1.021 1.844a94.707 94.707 0 0 1 2.836-2.971 92.497 92.497 0 0 1 8.606-7.604 93.404 93.404 0 0 1 8.565 7.604c4.08 4.08 7.728 8.466 10.614 12.737A3.987 3.987 0 0 0 50 39c0 2.206 1.794 4 4 4 .392 0 .764-.074 1.123-.18 2.176 4.413 3.131 8.21 2.797 10.886a58.42 58.42 0 0 0 1.976.384c.444-3.135-.577-7.325-3.048-12.288A3.985 3.985 0 0 0 58 39c0-2.206-1.794-4-4-4-.368 0-.718.066-1.057.16a75.734 75.734 0 0 0-2.243-3.159c5.606-7.49 8.943-14.623 9.265-19.791A6.001 6.001 0 0 0 63 7c0-3.309-2.691-6-6-6zm-3 36c1.103 0 2 .897 2 2s-.897 2-2 2-2-.897-2-2 .897-2 2-2zm-4.565-6.648A95.674 95.674 0 0 0 42 22a95.657 95.657 0 0 0-8.336-7.437c6.48-4.777 12.745-7.879 17.412-8.462A5.8 5.8 0 0 0 51 7c0 3.309 2.691 6 6 6 .302 0 .597-.03.888-.073-.585 4.575-3.645 10.899-8.453 17.425zM57 11c-2.206 0-4-1.794-4-4s1.794-4 4-4 4 1.794 4 4-1.794 4-4 4z" opacity="1" data-original="#81b4fc" class=""></path></g></svg>