<svg id="Layer_1" enable-background="new 0 0 512 512" viewBox="0 0 512 512" xmlns="http://www.w3.org/2000/svg"><g clip-rule="evenodd" fill-rule="evenodd"><path d="m412.84 321h64.78v173.43h-64.78z" fill="#60b7ff"/><path d="m297.81 407.1h64.78v87.33h-64.78z" fill="#77c7a6"/><path d="m186.8 354.72h64.78v139.71h-64.78z" fill="#ffd064"/><path d="m73.79 407.1h64.78v87.33h-64.78z" fill="#f1626c"/><g fill="#60b7ff"><path d="m71.65 343.88c0-15.62 12.71-28.33 28.33-28.33 15.63 0 28.34 12.7 28.34 28.33s-12.71 28.34-28.34 28.34c-15.62-.01-28.33-12.72-28.33-28.34z"/><path d="m188.8 271.39c0-15.63 12.7-28.34 28.33-28.34s28.33 12.71 28.33 28.34-12.7 28.33-28.33 28.33-28.33-12.71-28.33-28.33z"/><path d="m332.19 313.8c15.62 0 28.33 12.71 28.33 28.33s-12.71 28.34-28.33 28.34c-15.63 0-28.34-12.71-28.34-28.34s12.71-28.33 28.34-28.33z"/><path d="m423.09 238.19c0-15.63 12.7-28.33 28.33-28.33s28.33 12.71 28.33 28.33-12.7 28.34-28.33 28.34-28.33-12.71-28.33-28.34z"/><path d="m293.98 226.26c0 2.79-2.28 5.07-5.07 5.07h-23.78c-2.79 0-5.07-2.28-5.07-5.07v-17.15c0-3.93-2.5-7.39-6.24-8.61-3.54-1.16-7-2.6-10.32-4.28-1.27-.64-2.67-.99-4.1-.99-2.4 0-4.7.96-6.4 2.66l-12.14 12.14c-.95.95-2.24 1.48-3.58 1.48-1.35 0-2.63-.52-3.59-1.48l-16.82-16.82c-1.97-1.97-1.97-5.19 0-7.16l12.14-12.14c2.78-2.78 3.44-7.01 1.67-10.51-1.68-3.32-3.11-6.78-4.27-10.32-1.23-3.73-4.69-6.23-8.62-6.23h-17.15c-2.79 0-5.07-2.28-5.07-5.07v-23.79c0-2.79 2.28-5.07 5.07-5.07h17.15c3.93 0 7.39-2.5 8.62-6.24 1.16-3.54 2.59-7 4.28-10.32 1.77-3.5 1.11-7.73-1.67-10.5l-12.14-12.14c-1.97-1.97-1.97-5.2 0-7.17l16.82-16.82c.96-.96 2.24-1.48 3.59-1.48s2.63.52 3.58 1.48l12.13 12.14c2.77 2.77 7 3.45 10.5 1.67 3.32-1.68 6.78-3.12 10.32-4.28 3.74-1.23 6.24-4.68 6.24-8.62v-17.14c0-2.79 2.28-5.07 5.07-5.07h23.78c2.79 0 5.07 2.28 5.07 5.07v17.16c0 3.93 2.5 7.39 6.24 8.61 3.54 1.16 7 2.6 10.32 4.28 3.5 1.77 7.73 1.1 10.51-1.68l12.14-12.14c.95-.95 2.23-1.48 3.58-1.48 1.33 0 2.59.5 3.55 1.43l16.86 16.87c.95.96 1.47 2.23 1.47 3.58s-.51 2.63-1.47 3.58l-12.14 12.14c-2.78 2.78-3.46 7.01-1.68 10.51 1.68 3.32 3.12 6.78 4.28 10.31 1.23 3.74 4.69 6.24 8.62 6.24h17.15c2.79 0 5.07 2.28 5.07 5.07v23.79c0 2.78-2.28 5.07-5.07 5.07h-17.15c-3.93 0-7.39 2.5-8.62 6.24-1.16 3.54-2.6 7-4.28 10.32-1.78 3.5-1.09 7.73 1.68 10.51l12.14 12.14c.96.96 1.47 2.23 1.47 3.58s-.51 2.63-1.47 3.58l-16.86 16.86c-.96.93-2.22 1.44-3.55 1.44-1.34 0-2.62-.53-3.58-1.48l-12.14-12.14c-2.78-2.78-7-3.45-10.51-1.67-3.32 1.68-6.78 3.12-10.32 4.28-3.74 1.23-6.23 4.68-6.23 8.61v17.15z"/><path d="m168.8 208.84 14.2 3.81-5.73 21.4-14.22-3.81c-2.88-.77-5.9.38-7.53 2.88-1.39 2.12-2.94 4.15-4.63 6.04-1.99 2.22-2.32 5.44-.83 8.02l7.35 12.74-19.17 11.08-7.35-12.74c-1.48-2.57-4.45-3.9-7.36-3.29-2.48.52-5.01.85-7.55.99-2.98.16-5.49 2.2-6.26 5.08l-3.81 14.21-21.4-5.73 3.81-14.21c.77-2.88-.38-5.9-2.88-7.53-2.13-1.39-4.15-2.94-6.04-4.63-2.22-1.99-5.44-2.32-8.02-.83l-12.73 7.36-11.08-19.19 12.73-7.35c2.57-1.48 3.91-4.46 3.3-7.36-.52-2.48-.85-5.01-.99-7.55-.17-2.98-2.2-5.49-5.09-6.26l-14.21-3.81 5.73-21.4 14.22 3.81c2.89.77 5.9-.39 7.54-2.89 1.39-2.12 2.93-4.15 4.62-6.04 1.99-2.22 2.32-5.44.83-8.02l-7.35-12.74 19.19-11.07 7.35 12.74c1.48 2.57 4.46 3.9 7.37 3.29 2.48-.52 5.01-.85 7.54-.99 2.98-.16 5.49-2.2 6.26-5.08l3.8-14.21 21.41 5.74-3.8 14.21c-.77 2.89.38 5.9 2.88 7.54 2.12 1.39 4.14 2.94 6.03 4.63 2.22 1.99 5.44 2.33 8.02.83l12.73-7.35 11.08 19.18-12.73 7.35c-2.57 1.48-3.9 4.46-3.3 7.36.52 2.48.85 5.01.99 7.55.16 2.97 2.2 5.47 5.08 6.24z"/></g><path d="m277.02 186.38c31.15 0 56.5-25.35 56.5-56.5s-25.35-56.5-56.5-56.5-56.5 25.35-56.5 56.5 25.35 56.5 56.5 56.5z" fill="#f1f1f2"/><path d="m140.2 189.79c-8.59-14.88-27.76-20.02-42.65-11.43-14.88 8.59-20.03 27.76-11.44 42.65 5.6 9.7 15.94 15.6 27.1 15.6 5.48 0 10.81-1.44 15.55-4.18 14.89-8.58 20.03-27.76 11.44-42.64z" fill="#f1f1f2"/><path d="m101.55 185.29c5.37-3.1 11.62-3.92 17.62-2.32 5.99 1.6 10.99 5.45 14.1 10.82 6.4 11.09 2.58 25.32-8.5 31.72-11.09 6.4-25.32 2.59-31.72-8.5-6.4-11.08-2.59-25.32 8.5-31.72zm11.67 55.33c5.97 0 12.01-1.52 17.55-4.71 16.81-9.71 22.6-31.29 12.89-48.11s-31.3-22.6-48.11-12.89c-16.82 9.71-22.6 31.29-12.9 48.11 6.52 11.28 18.38 17.6 30.57 17.6zm-60.2-8.67 7.08 12.26 9.27-5.36c4.08-2.35 9.18-1.83 12.69 1.31 1.73 1.55 3.6 2.98 5.56 4.26 3.95 2.58 5.78 7.37 4.56 11.92l-2.77 10.35 13.67 3.66 2.77-10.35c1.22-4.56 5.21-7.79 9.91-8.04 2.33-.13 4.67-.44 6.95-.91 4.61-.96 9.29 1.13 11.64 5.21l5.35 9.27 12.26-7.08-5.35-9.27c-2.36-4.08-1.83-9.17 1.31-12.69 1.55-1.74 2.99-3.61 4.26-5.56 2.58-3.94 7.37-5.78 11.92-4.56l10.35 2.77 3.66-13.67-10.34-2.77c-4.56-1.22-7.79-5.2-8.05-9.91-.12-2.33-.43-4.67-.91-6.95-.96-4.61 1.13-9.29 5.21-11.65l9.27-5.35-7.08-12.26-9.27 5.35c-4.08 2.36-9.17 1.82-12.69-1.32-1.73-1.55-3.6-2.98-5.55-4.26-3.95-2.58-5.79-7.37-4.56-11.92l2.77-10.34-13.68-3.67-2.77 10.35c-1.22 4.56-5.2 7.79-9.91 8.04-2.33.13-4.66.43-6.94.91-4.61.96-9.29-1.13-11.65-5.21l-5.35-9.27-12.26 7.08 5.35 9.27c2.36 4.08 1.83 9.17-1.31 12.69-1.55 1.74-2.98 3.61-4.26 5.56-2.58 3.95-7.37 5.78-11.92 4.56l-10.35-2.77-3.66 13.67 10.35 2.77c4.55 1.22 7.78 5.2 8.04 9.91.13 2.33.43 4.67.91 6.95.96 4.61-1.13 9.29-5.21 11.65zm21.65 17.7c1.8 1.57 3.72 3.03 5.71 4.37l-2.86 10.65c-.75 2.81-.36 5.74 1.09 8.25 1.46 2.52 3.8 4.32 6.6 5.07l15.85 4.25c.93.25 1.88.37 2.83.37 1.88 0 3.74-.49 5.42-1.47 2.52-1.45 4.32-3.8 5.07-6.6l2.85-10.65c2.39-.16 4.79-.48 7.13-.93l5.51 9.55c3 5.19 9.67 6.97 14.86 3.98l14.21-8.2c5.19-3 6.97-9.66 3.98-14.85l-5.51-9.55c1.56-1.8 3.03-3.72 4.37-5.7l10.65 2.85c2.8.75 5.73.37 8.25-1.09 2.52-1.45 4.32-3.8 5.07-6.6l4.25-15.85c.75-2.8.36-5.73-1.09-8.25-1.46-2.52-3.8-4.32-6.6-5.07l-10.66-2.86c-.16-2.39-.47-4.78-.93-7.12l9.55-5.52c2.51-1.45 4.31-3.79 5.06-6.6s.37-5.74-1.08-8.25l-8.21-14.21c-2.99-5.19-9.66-6.98-14.85-3.98l-9.55 5.51c-1.8-1.57-3.72-3.04-5.7-4.37l2.85-10.65c.75-2.8.36-5.73-1.09-8.25s-3.8-4.32-6.6-5.07l-15.85-4.25c-5.79-1.56-11.76 1.9-13.32 7.69l-2.85 10.65c-2.39.16-4.78.48-7.13.94l-5.51-9.55c-1.45-2.51-3.8-4.31-6.61-5.06-2.8-.76-5.73-.37-8.25 1.08l-14.2 8.2c-2.52 1.45-4.31 3.8-5.07 6.61-.75 2.81-.37 5.74 1.09 8.25l5.51 9.55c-1.57 1.81-3.04 3.72-4.38 5.71l-10.65-2.85c-5.79-1.55-11.76 1.89-13.32 7.69l-4.24 15.85c-.75 2.8-.37 5.73 1.09 8.25 1.45 2.52 3.79 4.32 6.6 5.07l10.65 2.85c.16 2.39.48 4.78.93 7.13l-9.54 5.51c-2.52 1.45-4.31 3.79-5.07 6.6-.75 2.81-.36 5.74 1.09 8.25l8.2 14.21c1.45 2.51 3.79 4.31 6.6 5.06s5.74.37 8.25-1.08zm170.78-118.86c-2.34-2.34-2.34-6.15 0-8.48 2.34-2.34 6.14-2.34 8.49 0l16.2 16.19 29.96-29.96c2.34-2.34 6.14-2.34 8.49 0 2.34 2.34 2.34 6.14 0 8.48l-34.21 34.21c-1.17 1.17-2.71 1.76-4.24 1.76-1.54 0-3.07-.58-4.25-1.76zm31.57-49.41c-26.74 0-48.5 21.76-48.5 48.5s21.76 48.5 48.5 48.5 48.5-21.76 48.5-48.5-21.76-48.5-48.5-48.5zm0 109c33.36 0 60.5-27.14 60.5-60.5s-27.14-60.5-60.5-60.5-60.5 27.14-60.5 60.5 27.14 60.5 60.5 60.5zm-97.45-72.39c0-.58.49-1.07 1.07-1.07h17.15c5.66 0 10.65-3.61 12.42-8.99 1.09-3.34 2.45-6.62 4.04-9.76 2.56-5.05 1.59-11.14-2.41-15.14l-12.14-12.14c-.41-.41-.41-1.1 0-1.51l16.82-16.82c.26-.25.55-.31.76-.31.2 0 .5.05.75.31l12.14 12.14c4 4 10.09 4.97 15.14 2.41 3.14-1.59 6.43-2.95 9.76-4.05 5.38-1.77 8.99-6.76 8.99-12.42v-17.14c0-.58.49-1.07 1.07-1.07h23.78c.58 0 1.07.49 1.07 1.07v17.16c0 5.66 3.61 10.64 8.99 12.41 3.34 1.09 6.62 2.46 9.76 4.05 5.05 2.56 11.14 1.59 15.14-2.42l12.14-12.14c.25-.25.55-.31.75-.31.21 0 .5.05.76.31l16.82 16.82c.25.25.3.55.3.75 0 .21-.05.5-.3.76l-12.14 12.14c-4 4-4.98 10.09-2.42 15.14 1.59 3.14 2.96 6.42 4.05 9.75 1.77 5.38 6.76 8.99 12.42 8.99h17.15c.58 0 1.07.49 1.07 1.07v23.79c0 .58-.49 1.07-1.07 1.07h-17.15c-5.66 0-10.65 3.61-12.42 8.99-1.09 3.33-2.45 6.61-4.05 9.76-2.56 5.06-1.58 11.14 2.42 15.14l12.14 12.14c.25.25.3.55.3.75s-.05.5-.3.76l-16.82 16.82c-.26.25-.55.31-.76.31-.2 0-.5-.06-.75-.31l-12.14-12.14c-4.01-4.01-10.09-4.98-15.14-2.41-3.15 1.59-6.43 2.95-9.76 4.05-5.38 1.76-8.99 6.75-8.99 12.41v17.15c0 .58-.49 1.07-1.07 1.07h-23.78c-.58 0-1.07-.49-1.07-1.07v-17.15c0-5.66-3.61-10.65-8.99-12.41-3.33-1.09-6.61-2.46-9.76-4.05-1.88-.95-3.9-1.42-5.91-1.42-3.38 0-6.72 1.32-9.23 3.83l-12.14 12.14c-.25.25-.55.31-.75.31-.21 0-.5-.06-.76-.31l-16.82-16.82c-.41-.41-.41-1.1 0-1.51l12.14-12.14c4-4 4.97-10.09 2.41-15.14-1.59-3.14-2.95-6.42-4.04-9.76-1.77-5.37-6.76-8.99-12.42-8.99h-17.15c-.58 0-1.07-.49-1.07-1.07zm1.07 36.85c-7.21 0-13.07-5.86-13.07-13.07v-23.79c0-7.21 5.86-13.07 13.07-13.07h17.15c.52 0 .86-.25 1.02-.74 1.28-3.91 2.88-7.76 4.74-11.44.23-.46.17-.87-.2-1.24l-12.13-12.14c-5.1-5.1-5.1-13.38 0-18.48l16.82-16.82c2.46-2.46 5.74-3.82 9.24-3.82 3.49 0 6.77 1.36 9.24 3.82l12.13 12.14c.37.36.78.43 1.24.2 3.68-1.86 7.53-3.46 11.43-4.74.49-.16.74-.5.74-1.02v-17.13c0-7.21 5.86-13.07 13.07-13.07h23.78c7.21 0 13.07 5.86 13.07 13.07v17.16c0 .51.25.85.73 1.01 3.92 1.29 7.76 2.88 11.44 4.74.46.23.87.17 1.24-.2l12.13-12.14c2.47-2.46 5.75-3.82 9.24-3.82 3.5 0 6.78 1.36 9.24 3.82l16.82 16.82c2.47 2.47 3.82 5.75 3.82 9.24 0 3.5-1.35 6.78-3.82 9.24l-12.13 12.14c-.37.36-.43.78-.2 1.24 1.86 3.68 3.46 7.53 4.74 11.44.16.49.5.74 1.02.74h17.15c7.21 0 13.07 5.86 13.07 13.07v23.79c0 7.21-5.86 13.07-13.07 13.07h-17.15c-.52 0-.86.25-1.02.74-1.28 3.9-2.88 7.75-4.74 11.43-.23.46-.17.87.2 1.24l12.13 12.14c2.47 2.46 3.82 5.75 3.82 9.24 0 3.5-1.35 6.78-3.82 9.24l-16.82 16.79c-2.46 2.47-5.74 3.82-9.24 3.82-3.49 0-6.77-1.36-9.24-3.82l-12.13-12.13c-.37-.36-.78-.43-1.24-.2-3.68 1.87-7.53 3.46-11.44 4.74-.48.16-.73.5-.73 1.01v17.15c0 7.21-5.86 13.07-13.07 13.07h-23.78c-7.21 0-13.07-5.86-13.07-13.07v-17.15c0-.51-.25-.85-.74-1.01-3.9-1.28-7.75-2.88-11.43-4.74-.46-.23-.87-.16-1.24.2l-12.13 12.13c-2.47 2.47-5.75 3.82-9.24 3.82-3.5 0-6.78-1.36-9.24-3.82l-16.82-16.82c-2.47-2.46-3.83-5.74-3.83-9.24 0-3.49 1.36-6.77 3.83-9.24l12.13-12.14c.37-.36.43-.78.2-1.24-1.86-3.68-3.46-7.53-4.74-11.43-.16-.49-.51-.74-1.02-.74h-17.15zm-80.66 164.7c13.42 0 24.34 10.91 24.34 24.33s-10.92 24.34-24.34 24.34c-13.41 0-24.33-10.92-24.33-24.34 0-13.41 10.92-24.33 24.33-24.33zm117.15-72.49c13.42 0 24.33 10.91 24.33 24.34 0 13.42-10.91 24.33-24.33 24.33s-24.33-10.91-24.33-24.33 10.91-24.34 24.33-24.34zm115.06 70.75c13.41 0 24.33 10.91 24.33 24.33s-10.92 24.34-24.33 24.34c-13.42 0-24.34-10.91-24.34-24.34 0-13.42 10.92-24.33 24.34-24.33zm119.23-103.94c13.42 0 24.33 10.91 24.33 24.33s-10.91 24.34-24.33 24.34-24.33-10.92-24.33-24.34c0-13.41 10.91-24.33 24.33-24.33zm-351.44 166.35c20.04 0 36.34-16.3 36.34-36.34 0-4.86-.97-9.51-2.71-13.75l56.23-34.8c6.66 7.59 16.42 12.39 27.29 12.39 10.9 0 20.7-4.83 27.36-12.47l54.03 33.22c-1.71 4.22-2.67 8.83-2.67 13.65 0 20.04 16.3 36.34 36.34 36.34 20.03 0 36.33-16.3 36.33-36.34 0-6.97-1.97-13.48-5.39-19.01l65.23-56.86c6.28 5.17 14.31 8.28 23.06 8.28 20.03 0 36.33-16.3 36.33-36.34s-16.3-36.33-36.33-36.33-36.33 16.3-36.33 36.33c0 6.97 1.97 13.48 5.39 19.01l-65.23 56.86c-6.28-5.17-14.32-8.28-23.06-8.28-10.91 0-20.7 4.83-27.36 12.47l-54.04-33.23c1.72-4.21 2.67-8.82 2.67-13.65 0-20.04-16.3-36.34-36.33-36.34s-36.33 16.3-36.33 36.34c0 4.86.96 9.51 2.71 13.75l-56.23 34.8c-6.67-7.59-16.43-12.39-27.3-12.39-20.03 0-36.33 16.3-36.33 36.33 0 20.06 16.3 36.36 36.33 36.36zm258.61 110.22h-56.78v-79.33h56.78zm6-91.33h-68.78c-3.32 0-6 2.69-6 6v91.33c0 3.31 2.68 6 6 6h68.78c3.31 0 6-2.69 6-6v-91.33c0-3.32-2.69-6-6-6zm109.03 91.33h-56.78v-165.43h56.78zm6-177.43c3.31 0 6 2.69 6 6v177.43c0 3.31-2.69 6-6 6h-68.78c-3.32 0-6-2.69-6-6v-177.43c0-3.31 2.68-6 6-6zm-232.04 177.43h-56.78v-131.71h56.78zm6-143.71c3.32 0 6 2.68 6 6v143.71c0 3.31-2.68 6-6 6h-68.78c-3.31 0-6-2.69-6-6v-143.71c0-3.32 2.69-6 6-6zm-119.01 143.71h-56.78v-79.33h56.78zm6-91.33h-68.78c-3.32 0-6 2.69-6 6v91.33c0 3.31 2.68 6 6 6h68.78c3.31 0 6-2.69 6-6v-91.33c0-3.32-2.69-6-6-6z" fill="#222124"/></g></svg>