<svg xmlns="http://www.w3.org/2000/svg" version="1.1" xmlns:xlink="http://www.w3.org/1999/xlink" width="512" height="512" x="0" y="0" viewBox="0 0 512 512" style="enable-background:new 0 0 512 512" xml:space="preserve" class=""><g><path d="m227.28 367.3-38.03-10.18a1.078 1.078 0 0 1-.728-1.283l10.914-40.679a23.607 23.607 0 0 0-16.654-28.84l-12.555-3.373a10.6 10.6 0 0 0-12.976 7.478l-7.2 26.952c-5.062 18.9-17.937 24.687-46.552 20.134l.548-2.044a14.552 14.552 0 0 0-10.25-17.8L53.9 306.98a14.552 14.552 0 0 0-17.8 10.25L.505 450.15a14.523 14.523 0 0 0 10.247 17.781l39.9 10.684a14.409 14.409 0 0 0 11.048-1.461 14.318 14.318 0 0 0 6.722-8.788l1.6-5.955c9.4 3.889 17.261 8.3 22.582 12.711a80.961 80.961 0 0 0 32.13 16.591l50.435 13.523a23.6 23.6 0 0 0 28.926-28.68 23.571 23.571 0 0 0 18.9-30.281 23.558 23.558 0 0 0 14.663-34.668 24.035 24.035 0 0 0-1.987-2.927 23.562 23.562 0 0 0-8.391-41.38Zm-172.6 97.744a.477.477 0 0 1-.391.05L14.4 454.411a.544.544 0 0 1-.372-.616l35.6-132.92a.569.569 0 0 1 .525-.389.4.4 0 0 1 .109.015h.01l39.888 10.68a.557.557 0 0 1 .372.643l-35.64 132.95a.412.412 0 0 1-.216.267Zm175.769-72.483a9.628 9.628 0 0 1-11.75 6.8l-34.019-9.131a7 7 0 1 0-3.629 13.525l38.673 10.377a9.648 9.648 0 0 1 6.776 11.754 9.6 9.6 0 0 1-11.743 6.779l-7.512-2.019a28.382 28.382 0 0 0-.682-.193l-30.84-8.277a7 7 0 0 0-3.632 13.524l31.274 8.4a9.654 9.654 0 0 1 6.354 11.631 9.6 9.6 0 0 1-11.745 6.778l-9.768-2.621a23.078 23.078 0 0 0-.838-.243l-20.187-5.4-.053-.013a7 7 0 0 0-3.628 13.528l20.769 5.574a9.594 9.594 0 0 1-5.49 18.375l-50.427-13.522a67.575 67.575 0 0 1-26.824-13.848C93.4 457.6 82.713 452.4 73.672 448.778L99.856 351.1c15.27 2.557 26.516 2.494 35.887-.141 14.215-4 23.581-14.079 27.837-29.974l6.313-23.637 9.262 2.488a9.6 9.6 0 0 1 6.756 11.69l-10.919 40.7a15.072 15.072 0 0 0 10.655 18.422l38 10.171a9.629 9.629 0 0 1 6.798 11.739ZM72.6 342.909v.283a7 7 0 1 1-14 0v-.283a7 7 0 1 1 14 0Zm438.9 107.263-35.613-132.965a14.547 14.547 0 0 0-17.781-10.229l-39.892 10.688a14.6 14.6 0 0 0-10.27 17.786l.551 2.055c-28.594 4.551-41.472-1.229-46.55-20.131l-7.2-26.966a10.6 10.6 0 0 0-12.976-7.467l-12.513 3.369a23.6 23.6 0 0 0-16.693 28.846l10.907 40.656a1.074 1.074 0 0 1-.116.823 1.006 1.006 0 0 1-.623.485L284.7 367.3a23.565 23.565 0 0 0-8.369 41.381 24.156 24.156 0 0 0-1.986 2.925 23.556 23.556 0 0 0 14.665 34.666 23.434 23.434 0 0 0-.258 13.092 23.675 23.675 0 0 0 19.156 17.183 23.577 23.577 0 0 0 28.931 28.686l50.427-13.521a80.97 80.97 0 0 0 32.135-16.6c5.319-4.411 13.184-8.819 22.577-12.7l1.586 5.914a14.512 14.512 0 0 0 13.988 10.79 14.539 14.539 0 0 0 3.779-.5l39.922-10.69a14.514 14.514 0 0 0 10.247-17.754Zm-101.031 14.163a67.591 67.591 0 0 1-26.829 13.852l-50.424 13.521a9.631 9.631 0 0 1-11.726-6.8 9.6 9.6 0 0 1 6.327-11.6l20.688-5.547h.013a7 7 0 0 0-3.622-13.526l-20.257 5.419c-.236.063-.47.131-.7.2l-9.9 2.656a9.572 9.572 0 0 1-10.775-14.057 9.5 9.5 0 0 1 5.349-4.341l31.327-8.412a7 7 0 0 0-3.63-13.524l-30.86 8.275q-.369.1-.734.208l-7.458 2a9.593 9.593 0 1 1-4.97-18.532l38.691-10.375a7 7 0 0 0-3.627-13.525l-34.036 9.125a9.593 9.593 0 1 1-4.972-18.531l37.994-10.171A15.083 15.083 0 0 0 337 352.206l-10.912-40.673a9.6 9.6 0 0 1 6.792-11.7l9.225-2.483 6.314 23.65c4.269 15.887 13.64 25.967 27.855 29.963 9.371 2.634 20.61 2.7 35.866.141l26.185 97.681c-9.042 3.615-19.725 8.808-27.856 15.55Zm87.452-10.173a.492.492 0 0 1-.3.242l-39.921 10.69a.482.482 0 0 1-.38-.054.432.432 0 0 1-.22-.3l-3.538-13.2c-.03-.13-.068-.26-.105-.39l-31.978-119.288a.572.572 0 0 1 .368-.673L461.73 320.5h.01a.4.4 0 0 1 .109-.015.562.562 0 0 1 .519.367l35.608 132.965a.448.448 0 0 1-.055.345ZM453.4 342.909v.283a7 7 0 1 1-14 0v-.283a7 7 0 1 1 14 0ZM316.74 275.16a8.769 8.769 0 0 0 3.17-9.829L300.524 206.1l50.552-36.577a8.809 8.809 0 0 0-5.236-15.9l-62.327.131-19.144-59.29a8.735 8.735 0 0 0-8.291-6.107h-.071a8.779 8.779 0 0 0-8.373 6.082l-19.151 59.315-62.342-.131a8.8 8.8 0 0 0-5.154 15.933l50.487 36.544-19.36 59.232a8.787 8.787 0 0 0 13.529 9.849L256 238.446l50.39 36.757a8.79 8.79 0 0 0 10.35-.043Zm-56.616-51.036a7 7 0 0 0-8.252 0l-41.438 30.226 15.936-48.757a7 7 0 0 0-2.549-7.846l-41.573-30.1 51.314.108h.014a7 7 0 0 0 6.663-4.85L256 114.1l15.759 48.808a7 7 0 0 0 6.677 4.85l51.336-.108-41.594 30.094a7 7 0 0 0-2.55 7.85l15.964 48.775Zm89.058-29.208a8.266 8.266 0 0 0 3.029 9.271l35.518 25.694-13.61 41.668a8.3 8.3 0 0 0 12.769 9.3L422.3 255l35.443 25.864a8.313 8.313 0 0 0 12.766-9.328L456.88 229.88l35.509-25.688a8.3 8.3 0 0 0-4.874-15.032l-43.846.076-13.455-41.711-.022-.065a8.313 8.313 0 0 0-7.976-5.679 8.224 8.224 0 0 0-7.794 5.74l-13.481 41.715-43.862-.076a8.28 8.28 0 0 0-7.897 5.756Zm56.839 8.333h.012a7 7 0 0 0 6.667-4.849l9.617-29.759 9.6 29.755a7 7 0 0 0 6.664 4.853h.012l31.292-.055-25.345 18.335a7 7 0 0 0-2.551 7.85l9.737 29.754-25.296-18.454a7 7 0 0 0-8.254 0l-25.265 18.438 9.715-29.742a7 7 0 0 0-2.553-7.846l-25.345-18.335Zm-386.421.938 35.516 25.693-13.633 41.658c-.016.051-.032.1-.047.153a8.316 8.316 0 0 0 12.841 9.156L89.692 255l35.443 25.864a8.317 8.317 0 0 0 12.816-9.173c-.016-.052-.033-.1-.049-.155l-13.633-41.656 35.509-25.688a8.3 8.3 0 0 0-4.878-15.032l-43.846.076L97.6 147.525l-.021-.063a8.318 8.318 0 0 0-15.8.063l-13.452 41.711-43.858-.076a8.3 8.3 0 0 0-4.869 15.027Zm53.81-.938h.012a7 7 0 0 0 6.663-4.853l9.607-29.782L99.3 198.4a7 7 0 0 0 6.663 4.853h.012l31.293-.055-25.346 18.335a7 7 0 0 0-2.55 7.85l9.737 29.754-25.289-18.458a7 7 0 0 0-8.255 0l-25.289 18.454 9.737-29.754a7 7 0 0 0-2.551-7.85l-25.345-18.335Zm267.5-97.053 48.386-27.949a7 7 0 1 1 7 12.125l-48.386 27.949a7 7 0 1 1-7-12.125ZM173.74 40.415a7 7 0 0 1 12.127-7l27.949 48.414a7 7 0 1 1-12.126 7Zm126.223 34.812 27.92-48.414a7 7 0 1 1 12.131 7l-27.92 48.414a7 7 0 0 1-12.131-7ZM119.742 92.259a7 7 0 0 1 9.565-2.561l48.387 27.95a7 7 0 1 1-7 12.125l-48.394-27.95a7 7 0 0 1-2.558-9.564ZM249 68.861v-55.9a7 7 0 0 1 14 0v55.9a7 7 0 1 1-14 0Z" fill="#ef9f2f" opacity="1" data-original="#000000" class=""></path></g></svg>