<svg xmlns="http://www.w3.org/2000/svg" version="1.1" xmlns:xlink="http://www.w3.org/1999/xlink" width="512" height="512" x="0" y="0" viewBox="0 0 400.134 400" style="enable-background:new 0 0 512 512" xml:space="preserve" class=""><g><path d="m395.285 384.742-25.23-11.117a63.764 63.764 0 0 0-38.899-4.195l67.93-124.817a8.158 8.158 0 0 0 .293-6.855 8.157 8.157 0 0 0-5.055-4.649l-26.265-7.757v-57.286a8 8 0 0 0-8-8h-32v-72a8 8 0 0 0-8-8h-32v-72a8 8 0 0 0-8-8h-160a8 8 0 0 0-8 8v72h-32a8 8 0 0 0-8 8v72h-32a8 8 0 0 0-8 8v57.286l-26.266 7.757a8.147 8.147 0 0 0-4.762 11.504l67.93 124.82a63.702 63.702 0 0 0-38.899 4.192l-25.23 11.117A7.986 7.986 0 0 0 .051 391.2a8.002 8.002 0 0 0 3.238 7.356 8.004 8.004 0 0 0 7.996.828l25.23-11.117a47.306 47.306 0 0 1 39.083 0l2.464 1.086c1.793.789 3.614 1.453 5.442 2.074l.195.074a63.695 63.695 0 0 0 46.36-2.148l2.457-1.086a47.306 47.306 0 0 1 39.082 0l2.464 1.086a63.802 63.802 0 0 0 51.997 0l2.457-1.086a47.306 47.306 0 0 1 39.082 0l2.464 1.086a63.802 63.802 0 0 0 51.997 0l2.457-1.086a47.345 47.345 0 0 1 39.086 0l25.23 11.117a7.998 7.998 0 0 0 8.004-.817 7.991 7.991 0 0 0 3.246-7.363 7.998 7.998 0 0 0-4.797-6.46zM192.06 176.066v2.02l-64 18.906v-20.926zm-24-80h64v64h-64zm104 100.926-64-18.906v-2.02h64zM19.82 245.656l172.239-50.883v23.176L28.87 262.29zm188.239-50.883 172.238 50.883-9.05 16.633-163.188-44.34zm144 25.852-64-18.906v-25.653h64zm-40-60.559h-64v-64h64zm-40-80h-64v-64h64zm-144-64h64v64h-64zm-40 80h64v64h-64zm-40 80h64v25.653l-64 18.906zm129.996 197.559a63.802 63.802 0 0 0-51.996 0l-2.457 1.086a47.094 47.094 0 0 1-32.25 2.39L36.73 276.735l155.329-42.207v143.649a49.807 49.807 0 0 1-11.54-3.465zm98.465 1.086-2.465-1.086a63.802 63.802 0 0 0-51.996 0l-2.457 1.086a49.894 49.894 0 0 1-11.543 3.465V234.527l155.324 42.207-54.617 100.368a47.082 47.082 0 0 1-32.246-2.391zm0 0" fill="#ef9f2f" opacity="1" data-original="#000000"></path><path d="m266 264.305-32-8a7.995 7.995 0 0 0-9.703 5.82c-1.074 4.285 1.531 8.629 5.82 9.703l32 8a8.005 8.005 0 0 0 9.703-5.82c1.07-4.29-1.535-8.633-5.82-9.703zM266 288.305l-32-8a7.995 7.995 0 0 0-9.703 5.82c-1.074 4.285 1.531 8.629 5.82 9.703l32 8a8.005 8.005 0 0 0 9.703-5.82c1.07-4.29-1.535-8.633-5.82-9.703zM166.117 256.305l-32 8a7.995 7.995 0 0 0-5.82 9.703c1.07 4.285 5.414 6.89 9.703 5.82l32-8a8.005 8.005 0 0 0 5.82-9.703c-1.074-4.29-5.418-6.895-9.703-5.82zM166.117 280.305l-32 8a7.995 7.995 0 0 0-5.82 9.703c1.07 4.285 5.414 6.89 9.703 5.82l32-8a8.005 8.005 0 0 0 5.82-9.703c-1.074-4.29-5.418-6.895-9.703-5.82zm0 0" fill="#ef9f2f" opacity="1" data-original="#000000"></path></g></svg>