<svg id="Layer_1" enable-background="new 0 0 512 512" viewBox="0 0 512 512" xmlns="http://www.w3.org/2000/svg"><g><path clip-rule="evenodd" d="m130.01 281.27v-162.62l126-71.44 126 71.44v162.62z" fill="#1b5075" fill-rule="evenodd"/><path clip-rule="evenodd" d="m175.2 141.81h161.63v139.46h-161.63z" fill="#daeafa" fill-rule="evenodd"/><path clip-rule="evenodd" d="m175.2 141.81h161.63v33.65h-161.63z" fill="#0cf" fill-rule="evenodd"/><path clip-rule="evenodd" d="m256.01 119.16c10.63 0 19.3-8.67 19.3-19.3s-8.67-19.3-19.3-19.3c-10.66 0-19.33 8.67-19.33 19.3s8.68 19.3 19.33 19.3z" fill="#fea832" fill-rule="evenodd"/><path clip-rule="evenodd" d="m152.66 354.83h52.93l34.15 43.26v45.92h-87.08z" fill="#0593fc" fill-rule="evenodd"/><path clip-rule="evenodd" d="m184.41 354.83h21.18l34.15 43.26h-55.33z" fill="#8bd7fa" fill-rule="evenodd"/><path clip-rule="evenodd" d="m.5 325.26h160.02v118.74h-160.02z" fill="#ffd400" fill-rule="evenodd"/><path clip-rule="evenodd" d="m200.14 464.79c11.45 0 20.78-9.33 20.78-20.78s-9.33-20.78-20.78-20.78-20.78 9.33-20.78 20.78 9.33 20.78 20.78 20.78z" fill="#2f5274" fill-rule="evenodd"/><path clip-rule="evenodd" d="m45.29 464.79c11.45 0 20.78-9.33 20.78-20.78s-9.33-20.78-20.78-20.78-20.78 9.33-20.78 20.78 9.32 20.78 20.78 20.78z" fill="#2f5274" fill-rule="evenodd"/><path clip-rule="evenodd" d="m62.41 325.26h36.2v45.7l-18.09-10.66-18.11 10.66z" fill="#ff4646" fill-rule="evenodd"/><path clip-rule="evenodd" d="m141.61 238.89-42.38 42.38v-25.28h-98.73v-34.16h98.73v-25.32z" fill="#70da40" fill-rule="evenodd"/><path clip-rule="evenodd" d="m424.42 354.83h52.95l34.13 43.26v45.92h-87.08z" fill="#0593fc" fill-rule="evenodd"/><path clip-rule="evenodd" d="m456.17 354.83h21.2l34.13 43.26h-55.33z" fill="#8bd7fa" fill-rule="evenodd"/><path clip-rule="evenodd" d="m272.26 325.26h160.04v118.74h-160.04z" fill="#ffd400" fill-rule="evenodd"/><path clip-rule="evenodd" d="m471.9 464.79c11.45 0 20.78-9.33 20.78-20.78s-9.33-20.78-20.78-20.78-20.78 9.33-20.78 20.78 9.33 20.78 20.78 20.78z" fill="#2f5274" fill-rule="evenodd"/><path clip-rule="evenodd" d="m317.04 464.79c11.45 0 20.78-9.33 20.78-20.78s-9.33-20.78-20.78-20.78-20.78 9.33-20.78 20.78 9.33 20.78 20.78 20.78z" fill="#2f5274" fill-rule="evenodd"/><path clip-rule="evenodd" d="m334.19 325.26h36.17v45.7l-18.08-10.66-18.09 10.66z" fill="#ff4646" fill-rule="evenodd"/><path d="m379.66 432.87c-4.54 0-8.22-3.69-8.22-8.25 0-4.54 3.69-8.22 8.22-8.22h10.89c4.56 0 8.25 3.69 8.25 8.22 0 4.56-3.68 8.25-8.25 8.25zm-271.76-22.54c-4.54 0-8.25-3.71-8.25-8.25 0-4.56 3.71-8.25 8.25-8.25h28.35c4.56 0 8.25 3.69 8.25 8.25 0 4.54-3.69 8.25-8.25 8.25zm0 22.54c-4.54 0-8.25-3.69-8.25-8.25 0-4.54 3.71-8.22 8.25-8.22h10.89c4.56 0 8.25 3.69 8.25 8.22 0 4.56-3.69 8.25-8.25 8.25zm271.76-22.54c-4.54 0-8.22-3.71-8.22-8.25 0-4.56 3.69-8.25 8.22-8.25h28.35c4.56 0 8.25 3.69 8.25 8.25 0 4.54-3.69 8.25-8.25 8.25z" fill="#daeafa"/><g clip-rule="evenodd" fill-rule="evenodd"><path d="m511.5 238.89-42.38 42.38v-25.28h-98.73v-34.16h98.73v-25.32z" fill="#70da40"/><path d="m.5 221.83h12.98v34.16h-12.98z" fill="#65c43a"/><path d="m99.23 196.51v25.32h12.98v-12.33z" fill="#65c43a"/><path d="m112.21 255.99h-12.98v25.28l12.98-12.95z" fill="#65c43a"/><path d="m370.39 221.83v34.16h11.62 1.36v-34.16h-1.36z" fill="#65c43a"/><path d="m469.12 255.99v25.28l12.99-12.95v-12.33z" fill="#65c43a"/><path d="m469.12 221.83h12.99v-12.33l-12.99-12.99z" fill="#65c43a"/><path d="m50.59 464.11c-8.93-2.32-15.48-10.46-15.48-20.1s6.55-17.77 15.48-20.1c-1.7-.45-3.46-.68-5.3-.68-11.48 0-20.78 9.3-20.78 20.78s9.3 20.78 20.78 20.78c1.84 0 3.6-.23 5.3-.68z" fill="#2a4a68"/><path d="m179.37 444.01c0 11.48 9.3 20.78 20.78 20.78 1.81 0 3.6-.23 5.3-.68-8.93-2.32-15.51-10.46-15.51-20.1s6.58-17.77 15.51-20.1c-1.7-.45-3.49-.68-5.3-.68-11.49 0-20.78 9.3-20.78 20.78z" fill="#2a4a68"/><path d="m296.27 444.01c0 11.48 9.3 20.78 20.78 20.78 1.84 0 3.6-.23 5.3-.68-8.9-2.32-15.48-10.46-15.48-20.1s6.58-17.77 15.48-20.1c-1.7-.45-3.46-.68-5.3-.68-11.49 0-20.78 9.3-20.78 20.78z" fill="#2a4a68"/><path d="m451.12 444.01c0 11.48 9.3 20.78 20.78 20.78 1.81 0 3.6-.23 5.3-.68-8.93-2.32-15.51-10.46-15.51-20.1s6.58-17.77 15.51-20.1c-1.7-.45-3.49-.68-5.3-.68-11.48 0-20.78 9.3-20.78 20.78z" fill="#2a4a68"/><path d="m184.41 354.83h10.01v43.26h-10.01z" fill="#7dc2e1"/><path d="m456.17 354.83h10.01v43.26h-10.01z" fill="#7dc2e1"/><path d="m.5 325.26h14.63v118.74h-14.63z" fill="#e6bf00"/><path d="m62.41 325.26v45.7l14.62-8.59v-37.11z" fill="#e63f3f"/><path d="m272.26 325.26h14.63v118.74h-14.63z" fill="#e6bf00"/><path d="m334.19 325.26v45.7l14.6-8.59v-37.11z" fill="#e63f3f"/><path d="m175.2 141.81h9.95v33.65h-9.95z" fill="#00b8e6"/><path d="m175.2 175.45h9.95v105.82h-9.95z" fill="#c4d3e1"/><path d="m236.68 99.85c0 10.66 8.67 19.3 19.33 19.3 1.7 0 3.37-.23 4.96-.65-8.25-2.18-14.34-9.69-14.34-18.65s6.09-16.47 14.34-18.68c-1.59-.43-3.26-.62-4.96-.62-10.65 0-19.33 8.65-19.33 19.3z" fill="#e5972d"/></g></g></svg>