<svg xmlns="http://www.w3.org/2000/svg" version="1.1" xmlns:xlink="http://www.w3.org/1999/xlink" width="512" height="512" x="0" y="0" viewBox="0 0 510 510" style="enable-background:new 0 0 512 512" xml:space="preserve" fill-rule="evenodd"><circle r="255" cx="255" cy="255" fill="#ffffff" shape="circle"></circle><g transform="matrix(0.69,0,0,0.69,79.05003592014316,79.05001596450808)"><path fill="#a79ba7" d="m20.745 210.123-.214.158a8.003 8.003 0 0 1-11.186-1.694 8.004 8.004 0 0 1 1.694-11.186l18.832-13.877a7.998 7.998 0 0 1 11.984 3.034l10.477 22.266c1.88 3.995.163 8.765-3.832 10.644a8.004 8.004 0 0 1-10.645-3.832l-1.324-2.815a221.877 221.877 0 0 0-4.955 46.751c0 122.149 99.17 221.319 221.319 221.319 27.673 0 54.167-5.088 78.595-14.382 4.127-1.57 8.752.505 10.322 4.632s-.505 8.752-4.632 10.322c-26.197 9.967-54.608 15.428-84.285 15.428-130.98 0-237.319-106.339-237.319-237.319 0-16.955 1.782-33.497 5.169-49.449zM294.818 42.224a222.145 222.145 0 0 0-41.923-3.971c-20.347 0-40.057 2.75-58.777 7.901-4.257 1.172-8.664-1.334-9.836-5.591a8.003 8.003 0 0 1 5.591-9.835c20.072-5.524 41.205-8.475 63.022-8.475 15.797 0 31.236 1.547 46.173 4.498l-.682-.939a8.003 8.003 0 0 1 1.766-11.175 8.004 8.004 0 0 1 11.175 1.766l13.756 18.92a7.998 7.998 0 0 1-3.111 11.965L299.64 57.623c-4.007 1.854-8.766.106-10.62-3.901s-.107-8.766 3.9-10.62zM488.287 289.93l.662-.58a8.005 8.005 0 0 1 11.289.757 8.004 8.004 0 0 1-.757 11.288l-17.609 15.398a8 8 0 0 1-12.196-2.025l-12.296-21.315a8.004 8.004 0 0 1 2.932-10.927 8.004 8.004 0 0 1 10.927 2.932l1.219 2.113a223.243 223.243 0 0 0 1.757-27.999c0-24.118-3.865-47.34-11.011-69.08a8.003 8.003 0 0 1 5.102-10.098 8.004 8.004 0 0 1 10.098 5.101c7.663 23.313 11.811 48.214 11.811 74.077 0 10.284-.656 20.417-1.928 30.358z" opacity="1" data-original="#a79ba7"></path><path fill="#ffe177" d="M406.063 316.128c42.068 0 76.152 34.084 76.152 76.151s-34.084 76.151-76.152 76.151c-42.067 0-76.151-34.084-76.151-76.151s34.084-76.151 76.151-76.151z" opacity="1" data-original="#ffe177"></path><path fill="#eceff1" d="M406.063 327.039c36.04 0 65.241 29.2 65.241 65.24s-29.201 65.24-65.241 65.24c-36.039 0-65.24-29.2-65.24-65.24s29.201-65.24 65.24-65.24z" opacity="1" data-original="#eceff1"></path><path fill="#837683" d="M399.79 369.68c0-3.464 2.812-6.277 6.276-6.277s6.276 2.813 6.276 6.277v18.975l11.962 6.904a6.28 6.28 0 0 1 2.299 8.573 6.281 6.281 0 0 1-8.574 2.299l-15.101-8.716a6.277 6.277 0 0 1-3.138-5.436zm0-24.966c0-3.464 2.812-6.276 6.276-6.276s6.276 2.812 6.276 6.276v5.15c0 3.464-2.812 6.276-6.276 6.276s-6.276-2.812-6.276-6.276zm35.484 9.48a6.28 6.28 0 0 1 8.876 0 6.278 6.278 0 0 1 0 8.876l-3.653 3.654a6.28 6.28 0 0 1-8.876 0 6.28 6.28 0 0 1 0-8.876zm8.876 67.293a6.278 6.278 0 0 1 0 8.876 6.278 6.278 0 0 1-8.876 0l-3.653-3.653c-2.449-2.449-2.449-6.427 0-8.876s6.427-2.449 8.876 0zm-67.293 8.876a6.278 6.278 0 0 1-8.876 0 6.28 6.28 0 0 1 0-8.876l3.654-3.653a6.28 6.28 0 0 1 8.876 0 6.28 6.28 0 0 1 0 8.876zm-8.876-67.293a6.28 6.28 0 0 1 0-8.876 6.28 6.28 0 0 1 8.876 0l3.654 3.654a6.28 6.28 0 0 1 0 8.876 6.28 6.28 0 0 1-8.876 0zm85.667 22.933c3.464 0 6.276 2.812 6.276 6.276s-2.812 6.276-6.276 6.276h-5.167c-3.464 0-6.276-2.812-6.276-6.276s2.812-6.276 6.276-6.276zm-41.306 53.84c0 3.464-2.812 6.277-6.276 6.277s-6.276-2.813-6.276-6.277v-5.149c0-3.464 2.812-6.276 6.276-6.276s6.276 2.812 6.276 6.276zm-53.841-41.288c-3.464 0-6.276-2.812-6.276-6.276s2.812-6.276 6.276-6.276h5.15c3.464 0 6.276 2.812 6.276 6.276s-2.812 6.276-6.276 6.276zM421.222 42.872a64.905 64.905 0 0 1 19.032 7.888l12.367-5.487 14.571 14.571-5.487 12.367a64.905 64.905 0 0 1 7.888 19.032l12.619 4.857v20.615l-12.619 4.857a64.96 64.96 0 0 1-7.888 19.022l5.487 12.368-14.571 14.579-12.367-5.495a64.954 64.954 0 0 1-19.032 7.897l-4.857 12.61H395.75l-4.856-12.619a64.981 64.981 0 0 1-19.023-7.888l-12.367 5.495-14.58-14.579 5.495-12.359a65.162 65.162 0 0 1-7.897-19.031l-12.61-4.857V96.1l12.61-4.857a64.954 64.954 0 0 1 7.897-19.032l-5.495-12.367 14.58-14.571 12.358 5.487a65.107 65.107 0 0 1 19.032-7.888l4.856-12.619h20.615z" opacity="1" data-original="#837683"></path><path fill="#685e68" d="m448.466 47.117 4.155-1.844 14.571 14.571-5.487 12.367a64.905 64.905 0 0 1 7.888 19.032l12.619 4.857v20.615l-12.619 4.857a64.96 64.96 0 0 1-7.888 19.022l5.487 12.368-14.571 14.579-4.155-1.844 12.736-12.735-5.496-12.368a64.96 64.96 0 0 0 7.888-19.022l12.619-4.857V96.1l-12.619-4.857a64.905 64.905 0 0 0-7.888-19.032l5.496-12.367zm-90.806 0 1.844-1.844 12.358 5.487c-.873.485-1.736.989-2.582 1.52zm63.562-4.245a64.905 64.905 0 0 1 19.032 7.888l-3.409 1.52c-5.882-3.625-14.894-7.807-21.622-9.408l-4.857-12.619h5.999zm-49.351 119.174-12.367 5.495-1.844-1.844 11.62-5.162a62.005 62.005 0 0 0 2.591 1.511zm68.383 0a64.954 64.954 0 0 1-19.032 7.897l-4.857 12.61h-5.999l4.857-12.61c6.728-1.601 15.74-5.784 21.631-9.408z" opacity="1" data-original="#685e68"></path><path fill="#eceff1" d="M406.058 62.128c24.455 0 44.279 19.824 44.279 44.279 0 24.447-19.824 44.27-44.279 44.27-24.447 0-44.27-19.823-44.27-44.27 0-24.455 19.823-44.279 44.27-44.279z" opacity="1" data-original="#eceff1"></path><path fill="#d1d1d6" d="M406.058 62.128c1.007 0 2.006.036 3.004.108-23.052 1.538-41.284 20.723-41.284 44.171 0 23.439 18.232 42.624 41.284 44.171-.998.063-1.997.099-3.004.099-24.447 0-44.27-19.823-44.27-44.27 0-24.455 19.823-44.279 44.27-44.279z" opacity="1" data-original="#d1d1d6"></path><path fill="#ffc338" d="m269.693 125.017 8.389 25.015c21.827 23.422 37.739 43.252 47.721 60.789 31.899 56.02-13.483 112.92-74.272 111.892-60.773 1.028-106.17-55.872-74.257-111.892 9.983-17.537 25.88-37.367 47.722-60.789l8.403-24.985-20.456-20.472c-4.991-4.991-4.991-13.156 0-18.162 4.246-4.246 10.966-4.961 16.031-1.713 1.878 1.207 4.023 1.4 6.094.536 2.056-.849 3.442-2.503 3.918-4.693 1.252-5.751 6.422-10.116 12.545-10.116 6.02 0 11.264 4.246 12.56 10.116.477 2.19 1.863 3.844 3.919 4.693 2.056.864 4.216.671 6.094-.536 4.961-3.189 11.695-2.608 16.031 1.713 4.991 5.006 4.991 13.171 0 18.162z" opacity="1" data-original="#ffc338"></path><path fill="#f5b829" d="m269.693 125.017 8.389 25.015c21.827 23.422 37.739 43.252 47.721 60.789 31.899 56.02-13.483 112.92-74.272 111.892-1.191.015-2.369 0-3.546-.015 58.986-1.192 102-56.959 70.712-111.877-9.983-17.537-25.88-37.367-47.722-60.789l-8.374-25.015 20.427-20.442c4.991-4.991 4.991-13.156 0-18.162a12.892 12.892 0 0 0-5.527-3.248c4.335-1.236 9.222-.149 12.634 3.248 4.991 5.006 4.991 13.171 0 18.162zm-51.208-41.852a12.917 12.917 0 0 1 10.489 1.535l.015.015a6.68 6.68 0 0 1-1.028.521c-2.056.864-4.216.671-6.094-.536a12.991 12.991 0 0 0-3.382-1.535zm29.5-12.232a12.748 12.748 0 0 1 3.546-.506c6.02 0 11.264 4.246 12.56 10.116.388 1.803 1.401 3.248 2.891 4.172-1.877 1.192-4.023 1.385-6.079.521-2.056-.849-3.442-2.503-3.918-4.693-1.029-4.678-4.56-8.314-9-9.61z" opacity="1" data-original="#f5b829"></path><path fill="#ffe177" fill-rule="nonzero" d="M250.891 263.936c.134 0 .268-.015.402-.015.164 0 .328.015.492.03l.268-.015c.7-.015 1.535-.075 2.488-.194 3.516-.417 7.032-1.549 9.521-3.442 1.996-1.519 3.337-3.635 3.262-6.406 0-.224-.029-.551-.089-1.028-.417-3.487-2.414-5.826-5.051-7.42-3.307-1.996-7.658-3.054-11.74-3.725-5.066-.834-10.564-2.339-15.048-5.274-5.14-3.352-8.835-8.314-9.193-15.704-.358-7.375 2.816-13.275 7.822-17.342 3.248-2.652 7.286-4.455 11.591-5.334v-4.485a5.685 5.685 0 0 1 5.677-5.676 5.675 5.675 0 0 1 5.677 5.676v4.411c.566.104 1.117.223 1.653.357 7.465 1.892 14.259 6.794 17.82 15.287a5.69 5.69 0 0 1-3.04 7.434c-2.89 1.207-6.228-.149-7.434-3.039-2.027-4.828-5.871-7.599-10.087-8.671a17.325 17.325 0 0 0-4.172-.552c-.134.015-.283.015-.417.015-.104 0-.223 0-.328-.015-1.058.03-2.101.149-3.129.358-2.517.506-4.842 1.534-6.674 3.024-2.325 1.893-3.814 4.619-3.651 8.016.164 3.129 1.788 5.274 4.053 6.749 2.92 1.907 6.913 2.965 10.697 3.591 5.26.864 10.996 2.294 15.779 5.185 5.438 3.278 9.55 8.224 10.459 15.808.074.596.119 1.296.149 2.086.164 6.928-2.995 12.083-7.748 15.688-3.948 2.995-8.984 4.798-13.93 5.543v4.306a5.666 5.666 0 0 1-5.677 5.676 5.675 5.675 0 0 1-5.677-5.676v-4.41c-4.067-.716-7.941-2.191-11.293-4.411-4.887-3.262-8.641-8.06-10.221-14.422a5.67 5.67 0 0 1 11.011-2.711c.834 3.367 2.845 5.929 5.468 7.687 2.905 1.937 6.555 2.95 10.31 3.04z" opacity="1" data-original="#ffe177"></path><path fill="#837683" d="M223.655 150.032h55.753c6.883 0 12.5-5.617 12.5-12.5 0-6.868-5.617-12.485-12.5-12.485h-55.753c-6.868 0-12.5 5.617-12.5 12.485 0 6.883 5.632 12.5 12.5 12.5z" opacity="1" data-original="#837683"></path><path fill="#685e68" d="M272.316 150.032h7.092c6.883 0 12.5-5.617 12.5-12.5 0-6.868-5.617-12.485-12.5-12.485h-7.092c6.868 0 12.5 5.617 12.5 12.485 0 6.883-5.632 12.5-12.5 12.5z" opacity="1" data-original="#685e68"></path><path fill="#f6dccd" d="m94.961 310.838 55.397-32.09c10.402-6.027 20.97-10.301 32.407-6.595 12.739 4.141 33.542 13.007 54.763 16.83 7.88 2.554 12.789 10.435 10.652 18.432-2.154 7.998-8.899 12.122-18.449 10.652l7.43 1.186c8.498 1.369 16.295.2 23.741-4.141l53.261-31.021c41.406-24.109 47.483 12.99 33.725 21.471l-96.669 59.521c-8.883 5.46-18.616 6.746-28.701 4.041l-70.106-18.783-25.979 14.993c-4.993 2.872-11.404 1.152-14.292-3.84L91.137 325.13c-2.872-4.992-1.152-11.404 3.824-14.292z" opacity="1" data-original="#f6dccd"></path><path fill="#f1cbbc" d="M246.911 310.738c-2.955 5.793-9.066 8.582-17.18 7.329-11.47-3.038-22.957-6.144-34.427-9.216-3.072-.835-4.892-3.99-4.074-7.062s3.99-4.892 7.062-4.074zM94.961 310.838l55.397-32.09c10.402-6.027 20.97-10.301 32.407-6.595 6.812 2.204 15.945 5.777 26.196 9.2l-107.322 61.976-10.502-18.199c-2.872-4.992-1.152-11.404 3.824-14.292z" opacity="1" data-original="#f1cbbc"></path><path fill="#d1d1d6" d="m101.389 294.877 43.943 77.636c2.121 3.757.785 8.565-2.955 10.686l-14.959 8.464c-3.74 2.121-8.549.785-10.686-2.971l-43.927-77.637c-2.137-3.756-.801-8.565 2.955-10.685l14.943-8.465c3.757-2.121 8.565-.785 10.686 2.972z" opacity="1" data-original="#d1d1d6"></path><path fill="#b1b1b5" d="m124.513 348.22 7.763 13.741 7.697 13.591c2.12 3.74.801 8.531-2.938 10.669l5.342-3.022c3.74-2.121 5.076-6.929 2.955-10.686l-7.713-13.64-15.494-27.382-15.511-27.398-5.225-9.216c-1.837-3.256-5.694-4.692-9.133-3.64l9.032 15.961 15.494 27.382 7.714 13.624z" opacity="1" data-original="#b1b1b5"></path><path fill="#685e68" d="M90.436 304.961c-2.905.417-4.925 3.139-4.508 6.044a5.336 5.336 0 0 0 6.061 4.508c2.905-.417 4.925-3.122 4.508-6.044a5.336 5.336 0 0 0-6.061-4.508z" opacity="1" data-original="#685e68"></path><path fill="#ffc338" d="M100.678 182.553c-41.944 0-76.15-34.206-76.15-76.15 0-41.945 34.206-76.15 76.15-76.15s76.162 34.205 76.162 76.15c0 41.944-34.218 76.15-76.162 76.15z" opacity="1" data-original="#ffc338"></path><path fill="#f5b829" d="M167.747 106.403c0-40.531-31.662-73.665-71.604-76.021a83.056 83.056 0 0 1 4.535-.129c42.062 0 76.162 34.088 76.162 76.15s-34.1 76.15-76.162 76.15a82.06 82.06 0 0 1-4.535-.13c39.942-2.356 71.604-35.489 71.604-76.02z" opacity="1" data-original="#f5b829"></path><path fill="#ffe177" fill-rule="nonzero" d="M129.725 80.489c1.531 3.663-.189 7.869-3.84 9.4-3.652 1.531-7.857-.189-9.4-3.84-2.167-5.183-6.301-8.175-10.824-9.317a19.828 19.828 0 0 0-8.717-.212c-2.721.553-5.218 1.661-7.185 3.251-2.438 1.979-3.981 4.841-3.816 8.386.153 3.228 1.849 5.454 4.205 6.985 3.18 2.085 7.574 3.239 11.755 3.922 6.007.99 12.556 2.627 18.033 5.937 6.326 3.816 11.096 9.564 12.168 18.387.082.683.13 1.496.153 2.426.2 8.08-3.486 14.099-9.022 18.304-4.382 3.322-9.906 5.372-15.372 6.29v4.182a7.17 7.17 0 0 1-7.173 7.173 7.173 7.173 0 0 1-7.185-7.173v-4.311c-4.441-.872-8.681-2.521-12.356-4.971-5.666-3.781-10.012-9.341-11.85-16.714a7.154 7.154 0 0 1 5.242-8.657c3.84-.943 7.727 1.401 8.669 5.241.895 3.581 3.039 6.314 5.842 8.186 3.475 2.309 7.939 3.416 12.462 3.31a30.489 30.489 0 0 0 2.733-.224c3.84-.459 7.656-1.672 10.354-3.722 2.061-1.555 3.427-3.734 3.357-6.584 0-.2-.036-.554-.095-1.072-.447-3.651-2.532-6.101-5.324-7.786-3.616-2.191-8.421-3.357-12.933-4.087-5.807-.954-12.097-2.697-17.256-6.054-5.983-3.911-10.283-9.694-10.707-18.316-.412-8.564 3.275-15.431 9.094-20.166 3.604-2.933 8.045-4.982 12.768-6.03v-4.417a7.173 7.173 0 0 1 7.185-7.174 7.17 7.17 0 0 1 7.173 7.174v4.311c.424.094.848.188 1.272.294 8.622 2.191 16.467 7.857 20.59 17.668z" opacity="1" data-original="#ffe177"></path></g></svg>