<svg xmlns="http://www.w3.org/2000/svg" version="1.1" xmlns:xlink="http://www.w3.org/1999/xlink" width="512" height="512" x="0" y="0" viewBox="0 0 512 512" style="enable-background:new 0 0 512 512" xml:space="preserve" class=""><circle r="256" cx="256" cy="256" fill="#ffffff" shape="circle"></circle><g transform="matrix(0.69,0,0,0.69,79.35991722106937,79.35992209911348)"><g fill-rule="evenodd" clip-rule="evenodd"><path fill="#fecbaa" d="m66.203 370.283 32.211 120.213c43.748-12.747 64.941-2.737 101.246 6.992 10.97 2.94 21.47 1.557 31.307-4.121l150.549-86.923c10.844-6.258 14.594-20.258 8.333-31.106-6.26-10.845-20.259-14.6-31.109-8.336l-80.387 46.413c4.16-6.196 5.739-14.084 3.668-21.814-3.799-14.175-18.547-22.691-32.723-18.893l-27.284 7.311c-11.977 3.209-23.427 1.702-34.165-4.497l-36.372-21c-20.957-12.098-43.367 11.338-85.274 15.761z" opacity="1" data-original="#fecbaa"></path><path fill="#fecbaa" d="M218.807 436.2c-8.842 2.369-18.206 2.574-27.068.183a7.825 7.825 0 0 1 4.04-15.118c6.425 1.733 12.585 1.532 18.989-.183l44.309-11.873c11.568-3.1 19.354-13.453 19.781-24.861a26.49 26.49 0 0 1 3.162 7.252c3.804 14.195-4.698 28.921-18.893 32.724-14.774 3.958-29.547 7.916-44.32 11.876z" opacity="1" data-original="#fecbaa"></path><path fill="#fedfc5" d="m66.203 370.283 14.906 55.629c33.277 17.854 71.313 27.991 111.721 27.991 74.705 0 141.313-34.625 184.685-88.691-6.02-2.06-12.865-1.622-18.776 1.79l-80.387 46.413c4.16-6.196 5.739-14.084 3.668-21.814-3.799-14.174-18.547-22.691-32.723-18.893l-27.284 7.311c-11.977 3.209-23.427 1.702-34.165-4.498l-36.372-20.999c-20.956-12.099-43.365 11.337-85.274 15.761z" opacity="1" data-original="#fedfc5"></path><path fill="#fecbaa" d="M218.807 436.2c-8.843 2.369-18.206 2.574-27.068.183a7.825 7.825 0 0 1 4.04-15.118c6.424 1.733 12.585 1.532 18.989-.183l44.309-11.872c11.568-3.099 19.354-13.453 19.781-24.861a26.47 26.47 0 0 1 3.162 7.253c3.804 14.195-4.699 28.92-18.893 32.723l-44.32 11.875z" opacity="1" data-original="#fecbaa"></path><path fill="#ffc328" d="m68.803 361.397 35.959 134.201c.709 2.648-.876 5.395-3.524 6.105l-20.065 5.376c-2.647.71-5.394-.877-6.104-3.525L39.11 369.353c-.71-2.647.877-5.395 3.524-6.104l20.065-5.376c2.647-.711 5.395.876 6.104 3.524z" opacity="1" data-original="#ffc328" class=""></path><path fill="#ffd54f" d="m68.803 361.397 18.09 67.512a236.813 236.813 0 0 1-38.259-24.015l-9.523-35.54c-.71-2.647.877-5.395 3.524-6.104l20.065-5.376c2.646-.711 5.394.876 6.103 3.523z" opacity="1" data-original="#ffd54f"></path><circle cx="236.849" cy="175.462" r="118.981" fill="#ffc328" transform="rotate(-45 236.835 175.518)" opacity="1" data-original="#ffc328" class=""></circle><path fill="#ffd54f" d="M236.849 56.481c65.711 0 118.981 53.269 118.981 118.981 0 32.927-13.376 62.728-34.99 84.27-70.77-23.016-121.928-89.503-121.928-167.949 0-10.209.878-20.213 2.541-29.948 11.181-3.479 23.069-5.354 35.396-5.354z" opacity="1" data-original="#ffd54f"></path><path fill="#e0dfe1" d="M260.255 99.542 242.49 164.11l45.728 2.986c4.473.293 6.679 5.552 3.753 8.948l-69.194 80.314c-3.757 4.362-10.861.574-9.333-4.976l17.766-64.568-45.729-2.986c-4.473-.292-6.679-5.552-3.754-8.948l69.195-80.315c3.757-4.36 10.86-.573 9.333 4.977z" opacity="1" data-original="#e0dfe1"></path><path fill="#f0f0f0" d="M260.255 99.542 242.49 164.11l45.728 2.986c4.473.293 6.679 5.552 3.753 8.948l-37.877 43.964a177.537 177.537 0 0 1-24.221-28.336l1.337-4.858-4.764-.311a175.744 175.744 0 0 1-19.259-41.174l43.735-50.763c3.757-4.361 10.86-.574 9.333 4.976z" opacity="1" data-original="#f0f0f0" class=""></path><path fill="#58d561" d="M467.234 126.053c-22.127 44.377-122.733 31.398-94.658 140.081 74.131-6.02 116.726-69.057 94.658-140.081z" opacity="1" data-original="#58d561"></path><path fill="#6ce75a" d="M408.525 100.936c-4.089 49.419-102.332 74.682-35.948 165.198 66.609-33.086 82.785-107.426 35.948-165.198z" opacity="1" data-original="#6ce75a" class=""></path><path fill="#58d561" d="M392.56 175.462a7.5 7.5 0 0 1 15 0c0 47.14-19.108 89.818-50.001 120.71-30.893 30.893-73.571 50.001-120.71 50.001s-89.817-19.108-120.71-50.001-50.001-73.571-50.001-120.71 19.108-89.817 50.001-120.71S189.71 4.751 236.849 4.751c28.805 0 55.963 7.152 79.794 19.779 24.702 13.089 45.814 32.081 61.464 55.104a7.467 7.467 0 0 1-1.992 10.371 7.467 7.467 0 0 1-10.371-1.992 156.446 156.446 0 0 0-56.073-50.241c-21.712-11.504-46.495-18.021-72.821-18.021-42.999 0-81.927 17.429-110.104 45.606C98.568 93.534 81.14 132.463 81.14 175.461c0 42.999 17.429 81.927 45.606 110.105 28.178 28.178 67.106 45.606 110.105 45.606s81.928-17.429 110.105-45.606c28.175-28.177 45.604-67.105 45.604-110.104z" opacity="1" data-original="#58d561"></path></g></g></svg>