<svg id="Capa_1" enable-background="new 0 0 511.985 511.985" height="512" viewBox="0 0 511.985 511.985" width="512" xmlns="http://www.w3.org/2000/svg"><g><path d="m155.522 52.566 20.092 19.255c2.907 2.787 6.645 4.17 10.377 4.17 3.945 0 7.886-1.547 10.832-4.622 5.731-5.981 5.529-15.477-.451-21.208l-48-46c-5.764-5.726-15.897-5.447-21.337.586l-43 46c-5.657 6.052-5.337 15.544.715 21.201 2.893 2.704 6.57 4.042 10.24 4.042 4.008 0 8.008-1.598 10.961-4.757l19.109-20.443c5.896 50.761 24.326 99.028 54.173 141.266 2.923 4.136 7.556 6.345 12.263 6.345 2.992 0 6.015-.893 8.644-2.751 6.766-4.78 8.375-14.141 3.594-20.906-25.893-36.641-42.262-78.312-48.212-122.178z" fill="#f66"/><path d="m427.235 440.033c-6.051-5.656-15.544-5.336-21.201.715l-19.109 20.443c-5.896-50.761-24.326-99.028-54.173-141.266-4.78-6.765-14.141-8.374-20.906-3.594-6.766 4.78-8.375 14.141-3.594 20.906 25.892 36.642 42.261 78.313 48.211 122.179l-20.092-19.255c-5.98-5.732-15.476-5.531-21.209.451-5.731 5.981-5.529 15.477.451 21.208l48 46c5.765 5.732 15.896 5.448 21.337-.586l43-46c5.658-6.051 5.337-15.544-.715-21.201z" fill="#e62e6b"/><path d="m200.139 316.331c-6.767-4.781-16.127-3.172-20.906 3.594-29.847 42.238-48.277 90.505-54.173 141.266l-19.109-20.443c-5.659-6.053-15.149-6.372-21.201-.715s-6.372 15.149-.715 21.201l43 46c5.442 6.035 15.572 6.318 21.337.586l48-46c5.98-5.731 6.183-15.227.451-21.208s-15.228-6.184-21.209-.451l-20.092 19.255c5.95-43.866 22.319-85.537 48.211-122.179 4.781-6.765 3.171-16.126-3.594-20.906z" fill="#4dc3ff"/><path d="m427.95 50.748-43-46c-5.44-6.034-15.573-6.313-21.337-.586l-48 46c-5.98 5.731-6.183 15.227-.451 21.208 2.946 3.074 6.886 4.622 10.832 4.622 3.731 0 7.47-1.384 10.377-4.17l20.092-19.255c-5.95 43.866-22.319 85.537-48.211 122.179-4.781 6.766-3.172 16.126 3.594 20.906 2.63 1.858 5.651 2.751 8.644 2.751 4.706 0 9.341-2.208 12.263-6.345 29.847-42.238 48.277-90.505 54.173-141.266l19.109 20.443c2.954 3.16 6.952 4.757 10.961 4.757 3.67 0 7.348-1.338 10.24-4.042 6.051-5.658 6.372-15.15.714-21.202z" fill="#39f"/><path d="m507.822 245.113-46-48c-5.732-5.981-15.227-6.184-21.209-.451-5.98 5.731-6.183 15.227-.451 21.208l22.158 23.122h-109.328c-8.284 0-15 6.716-15 15s6.716 15 15 15h109.328l-22.158 23.122c-5.731 5.981-5.529 15.477.451 21.208 2.907 2.787 6.645 4.17 10.377 4.17 3.945 0 7.886-1.547 10.832-4.622l46-48c2.911-3.038 4.284-6.981 4.154-10.878.13-3.898-1.243-7.842-4.154-10.879z" fill="#283d66"/><path d="m158.992 240.991h-109.328l22.158-23.122c5.731-5.981 5.529-15.477-.451-21.208-5.98-5.732-15.475-5.532-21.209.451l-46 48c-2.911 3.038-4.284 6.981-4.154 10.878-.13 3.897 1.243 7.841 4.154 10.878l46 48c2.946 3.074 6.886 4.622 10.832 4.622 3.731 0 7.47-1.384 10.377-4.17 5.98-5.731 6.183-15.227.451-21.208l-22.158-23.122h109.328c8.284 0 15-6.716 15-15 0-8.283-6.716-14.999-15-14.999z" fill="#4d628c"/><g><path d="m255.992 164.571 45.63 95.48-45.63 87.36c-50.32 0-91.26-41.01-91.26-91.42s40.94-91.42 91.26-91.42z" fill="#8ae62e"/></g><path d="m347.252 255.991c0 50.41-40.94 91.42-91.26 91.42v-182.84c50.32 0 91.26 41.01 91.26 91.42z" fill="#53b324"/><g><path d="m255.992 173.791 14.552-15.911-14.552-14.089c-61.76 0-112 50.33-112 112.2s50.24 112.2 112 112.2l14.552-16.072-14.552-13.928c-45.21 0-82-36.87-82-82.2s36.79-82.2 82-82.2z" fill="#bf3"/></g><g><path d="m255.992 245.451 14.552 13.532-14.552 28.528c-2.44 1.61-5.31 2.48-8.28 2.48-3.98 0-7.8-1.58-10.62-4.4l-21.36-21.41c-5.85-5.87-5.84-15.36.02-21.22 5.87-5.85 15.36-5.84 21.21.03l10.75 10.76z" fill="#e6f7ff"/></g><path d="m296.252 247.591-37.92 38c-.72.72-1.5 1.36-2.34 1.92v-42.06l19.03-19.06c5.85-5.86 15.35-5.87 21.21-.02s5.87 15.35.02 21.22z" fill="#cef"/><path d="m367.992 255.991c0 61.87-50.24 112.2-112 112.2v-30c45.21 0 82-36.87 82-82.2s-36.79-82.2-82-82.2v-30c61.76 0 112 50.33 112 112.2z" fill="#8ae62e"/></g></svg>