<svg xmlns="http://www.w3.org/2000/svg" version="1.1" xmlns:xlink="http://www.w3.org/1999/xlink" width="512" height="512" x="0" y="0" viewBox="0 0 512 512" style="enable-background:new 0 0 512 512" xml:space="preserve" class=""><circle r="256" cx="256" cy="256" fill="#ffffff" shape="circle"></circle><g transform="matrix(0.69,0,0,0.69,79.3630651855469,79.36000768661503)"><path fill="#1d73bc" fill-rule="evenodd" d="M166.4 169.8c91.9 0 166.4 74.5 166.4 166.4s-74.5 166.4-166.4 166.4C74.5 502.5 0 428.1 0 336.2s74.5-166.4 166.4-166.4z" clip-rule="evenodd" opacity="1" data-original="#006694" class=""></path><path fill="#eaf6ff" fill-rule="evenodd" d="M166.4 196.2c77.3 0 139.9 62.7 139.9 139.9 0 77.3-62.6 140-139.9 140s-140-62.7-140-140c0-77.2 62.7-139.9 140-139.9z" clip-rule="evenodd" opacity="1" data-original="#eaf6ff" class=""></path><path fill="#1d73bc" d="M64.8 286.9c-3.9-2.2-5.2-7.2-3-11 2.2-3.9 7.2-5.2 11.1-3l15.6 9c3.9 2.2 5.2 7.2 3 11.1s-7.2 5.2-11.1 3zm38.2-44.2c-2.2-3.9-.9-8.8 3-11.1 3.9-2.2 8.8-.9 11.1 3l9 15.6c2.2 3.9.9 8.8-3 11s-8.8.9-11-3zm55.2-19.1c0-4.5 3.6-8.1 8.1-8.1s8.1 3.6 8.1 8.1v18.1c0 4.5-3.6 8.1-8.1 8.1s-8.1-3.7-8.1-8.1zm57.4 11c2.2-3.9 7.2-5.2 11.1-2.9 3.9 2.2 5.2 7.2 2.9 11.1l-9 15.6c-2.2 3.9-7.2 5.2-11.1 2.9-3.9-2.2-5.2-7.2-3-11.1zm44.2 38.3c3.9-2.2 8.8-.9 11.1 2.9 2.2 3.9.9 8.8-2.9 11.1l-15.6 9c-3.9 2.2-8.8.9-11.1-3-2.2-3.9-.9-8.8 2.9-11.1zm19.1 55.1c4.5 0 8.1 3.7 8.1 8.1 0 4.5-3.7 8.1-8.1 8.1h-18.1c-4.5 0-8.1-3.7-8.1-8.1 0-4.5 3.6-8.1 8.1-8.1zm-11 57.5c3.9 2.2 5.2 7.2 2.9 11.1-2.2 3.9-7.2 5.2-11.1 3l-15.6-9c-3.9-2.2-5.2-7.2-2.9-11.1 2.2-3.9 7.2-5.2 11.1-3zm-38.2 44.1c2.2 3.9.9 8.8-2.9 11.1-3.9 2.2-8.8.9-11.1-3l-9-15.6c-2.2-3.9-.9-8.8 3-11.1 3.9-2.2 8.8-.9 11.1 3zm-55.2 19.2c0 4.5-3.6 8.1-8.1 8.1s-8.1-3.6-8.1-8.1v-18.1c0-4.5 3.6-8.1 8.1-8.1s8.1 3.7 8.1 8.1zm-57.4-11.1c-2.2 3.9-7.2 5.2-11.1 3s-5.2-7.2-3-11.1l9-15.6c2.2-3.9 7.2-5.2 11-3 3.9 2.2 5.2 7.2 3 11.1zm-44.2-38.2c-3.9 2.2-8.8.9-11.1-3-2.2-3.9-.9-8.8 3-11l15.6-9c3.9-2.2 8.8-.9 11.1 3 2.2 3.9.9 8.8-3 11zm-19.1-55.2c-4.5 0-8.1-3.7-8.1-8.1 0-4.5 3.6-8.1 8.1-8.1h18.1c4.5 0 8.1 3.7 8.1 8.1 0 4.5-3.6 8.1-8.1 8.1z" opacity="1" data-original="#006694" class=""></path><path fill="#ffba57" d="M216.7 329c4.5 0 8.1 3.6 8.1 8.1s-3.6 8.1-8.1 8.1h-26.5c-1.3 3.4-3.3 6.5-5.8 9-4.6 4.6-11 7.5-18.1 7.5s-13.4-2.9-18.1-7.5c-4.6-4.6-7.5-11-7.5-18.1 0-6.3 2.3-12.1 6.1-16.6L125 281.7c-2.2-3.9-.9-8.8 3-11s8.8-.9 11 3l21.7 37.6c1.8-.4 3.7-.6 5.6-.6 7.1 0 13.4 2.9 18.1 7.5 3 3 5.3 6.7 6.5 10.9h25.8zm-41.1 7.7v-.6c0-2.6-1-4.9-2.7-6.6s-4-2.7-6.6-2.7-4.9 1-6.6 2.7-2.7 4-2.7 6.6 1 4.9 2.7 6.6 4 2.7 6.6 2.7 4.9-1.1 6.6-2.7c1.6-1.5 2.6-3.6 2.7-6z" opacity="1" data-original="#ffba57"></path><path fill="#e6404d" d="M509.9 265.5c3 3.3 2.8 8.4-.5 11.5-3.3 3-8.4 2.8-11.5-.5l-25.6-27.8-11.3 36.1c-1.3 4.3-5.9 6.7-10.2 5.4-4.3-1.4-6.7-5.9-5.3-10.2l15.5-49.6c.4-1.3 1.2-2.5 2.3-3.5 3.3-3 8.4-2.8 11.5.5z" opacity="1" data-original="#e6404d"></path><path fill="#e6404d" d="M331.3 443.4c-4.5.1-8.2-3.4-8.3-7.9s3.5-8.2 7.9-8.3c34.9-.8 67.3-14.5 92.1-36.8 24.4-22.1 41.3-52.6 45.7-87.8 1.3-9.9 1.4-19.8.6-29.6-.8-9.9-2.6-19.6-5.4-28.9-1.3-4.3 1.2-8.8 5.5-10.1s8.8 1.2 10.1 5.5c3.1 10.4 5.2 21.2 6.1 32.3.9 10.7.6 21.7-.8 32.9-5 39.2-23.8 73.2-50.9 97.8-27.7 24.8-63.8 40-102.6 40.9z" opacity="1" data-original="#e6404d"></path><path fill="#ffba57" fill-rule="evenodd" d="m457.9 37.3-6.5 22.1c3.8 4.3 7.1 8.9 9.9 13.7l23 .9c5.2 12 8.3 24.9 8.9 37.9L473 123c-.4 5.6-1.3 11.2-2.7 16.7l15.6 16.9c-2.4 6-5.3 11.8-8.8 17.5s-7.4 10.9-11.7 15.6l-22.1-6.5c-4.3 3.8-8.9 7.1-13.7 9.9l-.9 23c-12 5.2-24.9 8.3-37.9 8.9l-11.1-20.2c-5.6-.3-11.2-1.3-16.7-2.7l-16.9 15.6c-6-2.4-11.8-5.3-17.5-8.8s-10.9-7.5-15.6-11.7l6.5-22.1c-3.8-4.3-7.1-8.9-9.9-13.8l-23-.9c-5.2-12-8.3-24.9-8.9-37.9l20.2-11.1c.3-5.6 1.3-11.2 2.7-16.7L285 77.8c2.4-6 5.3-11.8 8.8-17.5 3.5-5.6 7.4-10.9 11.7-15.6l22.1 6.5c4.3-3.7 8.9-7.1 13.7-9.9l.9-23c12-5.2 24.9-8.3 37.9-8.9l11.1 20.2c5.6.4 11.2 1.3 16.7 2.7l16.9-15.6c6 2.3 11.8 5.2 17.5 8.8 5.6 3.5 10.8 7.4 15.6 11.8z" clip-rule="evenodd" opacity="1" data-original="#ffba57"></path><path fill="#eaf6ff" fill-rule="evenodd" d="M415.3 69c26.6 16.5 34.8 51.5 18.3 78.1s-51.5 34.8-78.1 18.3-34.8-51.4-18.3-78.1c16.5-26.6 51.5-34.8 78.1-18.3z" clip-rule="evenodd" opacity="1" data-original="#eaf6ff" class=""></path><g fill="#e6404d"><path d="M106.1 107c-1.4-4.3.9-8.8 5.2-10.3 4.3-1.4 8.8.9 10.3 5.2l8.6 26.1 18.3-20.5c3-3.3 8.1-3.6 11.5-.7 3.3 3 3.6 8.1.7 11.5L133.1 149c-1 1.2-2.2 2-3.7 2.5-4.3 1.4-8.8-.9-10.3-5.2z" fill="#e6404d" opacity="1" data-original="#e6404d"></path><path d="M267.9 25.8c4.4.7 7.4 4.9 6.7 9.3s-4.9 7.4-9.3 6.7c-22.2-3.7-44.9-.5-65.1 8.7-19.6 9-36.8 23.6-48.9 43.3-3.8 6.3-7 12.8-9.5 19.4-2.6 6.8-4.4 13.7-5.6 20.7-.7 4.4-4.9 7.4-9.3 6.7s-7.4-4.9-6.7-9.3c1.4-8 3.5-16 6.4-23.7 2.8-7.6 6.5-15 10.8-22.1 13.9-22.6 33.6-39.4 56-49.6 23.2-10.6 49.2-14.3 74.5-10.1z" fill="#e6404d" opacity="1" data-original="#e6404d"></path></g></g></svg>