<svg xmlns="http://www.w3.org/2000/svg" version="1.1" xmlns:xlink="http://www.w3.org/1999/xlink" width="512" height="512" x="0" y="0" viewBox="0 0 512 512" style="enable-background:new 0 0 512 512" xml:space="preserve" class=""><circle r="256" cx="256" cy="256" fill="#ffffff" shape="circle"></circle><g transform="matrix(0.69,0,0,0.69,79.35985099792484,79.35996334075932)"><g fill-rule="evenodd"><path fill="#2dd62d" d="M345.682 10.792c-54.339 33.926-120.132 53.256-155.5 62.282v152.499c0 18.871 4.525 35.949 14.165 52.18 26.409 44.467 92.201 79.473 141.335 109.178 49.135-29.705 114.927-64.711 141.335-109.178 9.639-16.231 14.164-33.308 14.164-52.18V73.074c-35.368-9.026-101.161-28.356-155.5-62.282z" opacity="1" data-original="#2dd62d"></path><path fill="#43f043" d="M332.42 18.667c-51.426 29.081-109.703 46.105-142.238 54.407v152.499c0 18.871 4.525 35.949 14.165 52.18 26.408 44.466 92.2 79.473 141.335 109.178 40.56-24.521 92.467-52.656 124.205-86.741a111.376 111.376 0 0 0 4.822-7.407c9.639-16.231 14.165-39.843 14.165-58.715V81.57c-34.578-8.824-98.236-27.498-151.84-60.029-.701-.426-2.757-1.71-4.614-2.873z" opacity="1" data-original="#43f043"></path><path fill="#2dd62d" d="M335.891 49.306c-36.715 20.128-79.777 34.406-120.15 46.236v126.546c0 12.049 2.71 22.524 8.871 32.899 16.209 27.292 65.489 56.445 101.826 74.269l-64.1-51.16c-18.211-14.535-27.864-34.589-27.864-57.89V106.167c41.825-12.256 83.855-27.128 123.912-45.206a946.52 946.52 0 0 1-12.705-6.445 447.204 447.204 0 0 1-9.791-5.21z" opacity="1" data-original="#2dd62d"></path><path fill="#ffffff" d="M345.682 54.516c-36.715 20.128-77.368 35.536-117.742 47.366v123.692c0 12.049 2.71 22.524 8.871 32.899 18.348 30.895 70.771 62.166 108.871 84.576 38.1-22.411 90.522-53.682 108.871-84.576 6.162-10.375 8.871-20.85 8.871-32.899V101.882c-40.374-11.831-81.028-27.238-117.742-47.366z" opacity="1" data-original="#ffffff"></path><path fill="#4eb1fc" d="M274.54 174.098c8.932-5.158 20.46-2.069 25.617 6.864l18.979 32.873 75.059-75.059c7.294-7.293 19.227-7.293 26.521 0 7.293 7.294 7.293 19.228 0 26.521l-93.976 93.976c-3.856 3.856-8.814 5.539-14.221 4.828-5.407-.712-9.761-3.62-12.487-8.343l-32.355-56.042c-5.157-8.932-2.068-20.46 6.864-25.617z" opacity="1" data-original="#4eb1fc"></path><path fill="#85caff" d="M274.54 174.098c8.932-5.158 20.46-2.069 25.617 6.864l18.979 32.873 75.059-75.059c7.294-7.293 19.227-7.293 26.521 0a18.585 18.585 0 0 1 4.283 6.661 18.568 18.568 0 0 1-4.283 6.66l-93.976 93.976c-3.856 3.856-8.814 5.539-14.221 4.828-5.407-.712-9.761-3.62-12.487-8.343l-32.355-56.042a18.725 18.725 0 0 1-1.301-2.748 18.656 18.656 0 0 1 8.165-9.669z" opacity="1" data-original="#85caff"></path><path fill="#ffcec0" d="M190.963 332.268h49.673v161.718l-22.533 2.109c-30.444 2.388-68.848 8.313-98.574 2.901-22.062-4.018-27.725-10.618-59.276-10.618-.915 0-7.08-.029-12.45-.037V346.236c84.052-5.482 100.545-42.065 94.299-116.212a8.627 8.627 0 0 1 7.628-9.291c56.39-6.338 44.715 84.489 41.233 111.535z" opacity="1" data-original="#ffcec0"></path><path fill="#fdb0a0" d="M47.802 361.261v-15.025c84.052-5.482 100.546-42.065 94.299-116.212-.391-4.647 2.993-8.771 7.628-9.291 5.026-.565 9.502-.345 13.501.519-3.495 1.344-5.824 4.875-5.496 8.772 4.074 48.38 8.78 129.01-109.932 131.237zM240.636 332.268c-.585 16.912-4.533 48.7-46.475 49.1-8.18 14.988-20.856 27.154-39.546 33.306-13.01 3.486-17.614-12.345-6.825-15.897 14.609-4.808 24.525-14.331 30.93-26.067 6.736-12.343 11.791-25.832 12.349-40.442h49.565z" opacity="1" data-original="#fdb0a0"></path><path fill="#4eb1fc" d="M39.601 499.768h17.137c6.406 0 11.646-5.242 11.646-11.647V346.455c0-6.406-5.24-11.647-11.646-11.647H22.464c-6.406 0-11.646 5.241-11.646 11.647v141.666c0 6.405 5.24 11.647 11.646 11.647z" opacity="1" data-original="#4eb1fc"></path></g><path fill="#85caff" d="M39.601 334.809h17.137c6.428 0 11.646 5.218 11.646 11.646v141.666c0 6.428-5.219 11.647-11.647 11.647H39.601c-6.428 0-11.646-5.218-11.646-11.646V346.455c0-6.428 5.218-11.646 11.646-11.646z" opacity="1" data-original="#85caff"></path><path fill="#fdb0a0" d="M215.546 332.268h41.594c11.573 0 20.97 9.396 20.97 20.97 0 11.574-9.396 20.97-20.969 20.97h-41.595c-11.573 0-20.969-9.396-20.969-20.969 0-11.574 9.396-20.97 20.97-20.97z" opacity="1" data-original="#fdb0a0"></path><rect width="97.38" height="41.939" x="186.438" y="374.208" fill="#fdb0a0" rx="20.969" opacity="1" data-original="#fdb0a0"></rect><path fill="#fdb0a0" d="M209.082 416.146h47.756c11.573 0 20.97 9.396 20.97 20.97 0 11.573-9.396 20.969-20.969 20.969h-47.756c-11.573 0-20.969-9.396-20.969-20.969 0-11.574 9.396-20.97 20.969-20.97z" opacity="1" data-original="#fdb0a0"></path><rect width="67.542" height="38.01" x="199.098" y="458.086" fill="#fdb0a0" rx="19.005" opacity="1" data-original="#fdb0a0"></rect><path fill="#ffcec0" fill-rule="evenodd" d="M215.545 332.268h41.594c11.533 0 20.97 9.436 20.97 20.97h-83.533c0-11.533 9.436-20.97 20.969-20.97zM207.408 374.208h55.44c11.534 0 20.97 9.436 20.97 20.969h-97.379c0-11.533 9.436-20.969 20.97-20.969zM209.082 416.146h47.756c11.533 0 20.969 9.436 20.969 20.97h-89.694c0-11.533 9.436-20.97 20.969-20.97zM218.103 458.086h29.533c10.453 0 19.005 8.552 19.005 19.005h-67.542c0-10.453 8.552-19.005 19.005-19.005z" opacity="1" data-original="#ffcec0"></path></g></svg>