<svg xmlns="http://www.w3.org/2000/svg" version="1.1" xmlns:xlink="http://www.w3.org/1999/xlink" width="512" height="512" x="0" y="0" viewBox="0 0 512 512" style="enable-background:new 0 0 512 512" xml:space="preserve" class=""><circle r="256" cx="256" cy="256" fill="#ffffff" shape="circle"></circle><g transform="matrix(0.69,0,0,0.69,79.36000000000001,79.36015476703648)"><path fill="#d4f2f6" d="M257.879 475.372c0-1.354.605-2.616 1.66-3.462l24.744-19.861 23.606-97.207h-14.098a4.445 4.445 0 0 1-4.44-4.44v-4.212l-1.254.33a170.142 170.142 0 0 1-10.217 2.357 15.956 15.956 0 0 0-11.556 9.359l-18.553 43.137a15.306 15.306 0 0 1-14.073 9.267h-51.001v90.97a5.44 5.44 0 0 0 5.44 5.44h69.74v-31.678z" opacity="1" data-original="#d4f2f6" class=""></path><path fill="#855151" d="m417.738 452.481 4.108-1-23.471-96.64h-91.514l-23.47 96.64 4.276 1z" opacity="1" data-original="#855151" class=""></path><path fill="#a6e7f0" d="M226.125 501.61v-90.97h-43.426v90.97a5.44 5.44 0 0 0 5.44 5.44h43.426a5.44 5.44 0 0 1-5.44-5.44z" opacity="1" data-original="#a6e7f0" class=""></path><path fill="#eaf9fa" d="M289.352 316.808a4.445 4.445 0 0 1 4.44-4.44h17.715v-38.889l-30.796-20.771a4.434 4.434 0 0 1-1.957-3.681v-52.296a4.444 4.444 0 0 1 4.439-4.44h21.994a4.444 4.444 0 0 1 4.439 4.44v14.792a6.447 6.447 0 0 0 6.439 6.44h14.315a6.447 6.447 0 0 0 6.44-6.44v-14.792a4.444 4.444 0 0 1 4.439-4.44h22.713a4.445 4.445 0 0 1 4.44 4.44v14.792a6.447 6.447 0 0 0 6.439 6.44h14.315a6.446 6.446 0 0 0 6.439-6.44v-14.792a4.445 4.445 0 0 1 4.44-4.44h16.257c.22-3.373.353-6.769.376-10.192.658-95.824-76.073-173.259-171.899-173.44-95.28-.18-172.575 77.004-172.575 172.241l-61.263 93.85a5.44 5.44 0 0 0-.885 2.973v14.731a5.44 5.44 0 0 0 5.44 5.44h64.268a5.44 5.44 0 0 1 5.44 5.44v91.985c0 9.013 7.307 16.32 16.32 16.32h132.177a16.32 16.32 0 0 0 14.992-9.872l18.553-43.136a14.963 14.963 0 0 1 10.831-8.773 170.558 170.558 0 0 0 11.276-2.635v-30.415z" opacity="1" data-original="#eaf9fa" class=""></path><g fill="#d4f2f6"><path d="M172.199 42.058a5.755 5.755 0 0 1 0 8.138l-17.313 17.313c.424.761.812 1.544 1.207 2.323 27.196-32.196 65.986-54.282 109.933-59.809a171.688 171.688 0 0 0-20.273-1.359c-30.939-.23-60.001 7.708-85.177 21.771zM53.345 292.455v-14.731c0-1.056.307-2.089.885-2.974l51.407-78.751H82.613a5.756 5.756 0 0 1-5.755-5.755v-24.486a68.211 68.211 0 0 1-3.874-1.237 174.188 174.188 0 0 0-.78 16.378l-61.263 93.85a5.443 5.443 0 0 0-.885 2.974v14.731a5.44 5.44 0 0 0 5.44 5.44h43.289a5.44 5.44 0 0 1-5.44-5.439z" fill="#d4f2f6" opacity="1" data-original="#d4f2f6" class=""></path></g><path fill="#a6e7f0" d="M458.602 128.979c0-2.606.388-5.122 1.1-7.5H330.47a104.708 104.708 0 0 1 8.653 15h120.578a26.093 26.093 0 0 1-1.099-7.5z" opacity="1" data-original="#a6e7f0" class=""></path><circle cx="484.801" cy="128.979" r="27.199" fill="#02c7dd" opacity="1" data-original="#02c7dd"></circle><path fill="#07b2cd" d="M477.602 128.979c0-11.49 7.127-21.308 17.199-25.293a27.119 27.119 0 0 0-10-1.906c-15.022 0-27.199 12.177-27.199 27.199s12.177 27.199 27.199 27.199c3.532 0 6.904-.681 10-1.906-10.072-3.985-17.199-13.803-17.199-25.293z" opacity="1" data-original="#07b2cd"></path><path fill="#a6e7f0" d="M410.73 44.118c0-2.606.388-5.122 1.1-7.5H253.862c-6.976 0-12.651 5.675-12.651 12.651v27.092c1.077-.033 2.155-.054 3.234-.054 3.978 0 7.902.231 11.766.666V51.618H411.83a26.103 26.103 0 0 1-1.1-7.5z" opacity="1" data-original="#a6e7f0" class=""></path><circle cx="436.93" cy="44.118" r="27.199" fill="#02c7dd" opacity="1" data-original="#02c7dd"></circle><path fill="#07b2cd" d="M430.602 44.118c0-11.324 6.922-21.029 16.764-25.122a27.123 27.123 0 0 0-10.435-2.078c-15.022 0-27.199 12.177-27.199 27.199s12.177 27.199 27.199 27.199a27.1 27.1 0 0 0 10.435-2.078c-9.843-4.092-16.764-13.796-16.764-25.12z" opacity="1" data-original="#07b2cd"></path><path fill="#ffe177" d="M280.711 252.708a4.434 4.434 0 0 1-1.957-3.681v-52.296a4.444 4.444 0 0 1 4.439-4.44h21.994a4.444 4.444 0 0 1 4.439 4.44v14.792a6.447 6.447 0 0 0 6.439 6.44h14.315a6.447 6.447 0 0 0 6.44-6.44v-14.792a4.444 4.444 0 0 1 4.439-4.44h8.164c.401-3.742.613-7.542.613-11.391 0-58.318-47.276-105.594-105.594-105.594-19.898 0-38.509 5.507-54.397 15.076v23.004a4.76 4.76 0 0 1-4.755 4.754h-25.241l-.207.726a66.497 66.497 0 0 1-5.833 14.088l-.367.66 17.847 17.846c.898.898 1.394 2.092 1.394 3.362s-.495 2.464-1.393 3.362l-18.259 18.259c-.898.898-2.093 1.393-3.363 1.393s-2.464-.494-3.361-1.392l-7.033-7.034a106.618 106.618 0 0 0-.625 11.49c0 58.318 47.276 105.594 105.594 105.594 21.994 0 42.416-6.727 59.325-18.233z" opacity="1" data-original="#ffe177" class=""></path><path fill="#ffd15b" d="M174.663 180.9c0-52.214 37.899-95.569 87.688-104.075a106.3 106.3 0 0 0-17.905-1.519c-19.898 0-38.509 5.507-54.397 15.076v23.004a4.76 4.76 0 0 1-4.755 4.754h-25.241l-.207.726a66.497 66.497 0 0 1-5.833 14.088l-.367.66 17.847 17.846c.898.898 1.394 2.092 1.394 3.362s-.495 2.464-1.393 3.362l-18.259 18.259c-.898.898-2.093 1.393-3.363 1.393s-2.464-.494-3.361-1.392l-7.033-7.033a106.875 106.875 0 0 0-.625 11.49c0 58.318 47.276 105.594 105.594 105.594 6.104 0 12.085-.525 17.905-1.519-49.79-8.506-87.689-51.862-87.689-104.076z" opacity="1" data-original="#ffd15b" class=""></path><path fill="#fe9738" d="M278.754 196.731a4.444 4.444 0 0 1 4.439-4.44h13.021a53.174 53.174 0 0 0 1.24-11.391c0-29.276-23.733-53.009-53.009-53.009s-53.009 23.733-53.009 53.009 23.733 53.009 53.009 53.009c13.089 0 25.061-4.753 34.308-12.615v-24.563z" opacity="1" data-original="#fe9738" class=""></path><path fill="#fe860a" d="M226.216 180.9c0-23.183 14.888-42.876 35.619-50.075a52.906 52.906 0 0 0-17.389-2.933c-29.276 0-53.009 23.733-53.009 53.009s23.733 53.009 53.009 53.009c6.093 0 11.94-1.041 17.389-2.933-20.731-7.2-35.619-26.894-35.619-50.077z" opacity="1" data-original="#fe860a" class=""></path><path fill="#d4f2f6" d="M148.575 337.517H85.203v15h63.372c4.143 0 7.5-3.358 7.5-7.5s-3.357-7.5-7.5-7.5z" opacity="1" data-original="#d4f2f6" class=""></path><path fill="#05e39c" d="M185.294 81.809h-24.486a67.439 67.439 0 0 0-5.921-14.3L172.2 50.196a5.755 5.755 0 0 0 0-8.138l-18.259-18.259a5.755 5.755 0 0 0-8.138 0L128.49 41.112a67.49 67.49 0 0 0-14.3-5.921V10.705a5.754 5.754 0 0 0-5.754-5.754H82.613a5.755 5.755 0 0 0-5.755 5.754v24.486a67.439 67.439 0 0 0-14.3 5.921L45.245 23.799a5.755 5.755 0 0 0-8.138 0L18.849 42.058a5.755 5.755 0 0 0 0 8.138l17.313 17.313a67.49 67.49 0 0 0-5.921 14.3H5.754A5.755 5.755 0 0 0 0 87.564v25.822a5.754 5.754 0 0 0 5.754 5.754H30.24a67.439 67.439 0 0 0 5.921 14.3l-17.312 17.312a5.755 5.755 0 0 0 0 8.138l18.259 18.259a5.755 5.755 0 0 0 8.138 0l17.313-17.313a67.49 67.49 0 0 0 14.3 5.921v24.486a5.755 5.755 0 0 0 5.755 5.755h25.822a5.754 5.754 0 0 0 5.754-5.755v-24.486a67.439 67.439 0 0 0 14.3-5.921l17.313 17.313a5.755 5.755 0 0 0 8.138 0L172.2 158.89a5.755 5.755 0 0 0 0-8.138l-17.312-17.312a67.436 67.436 0 0 0 5.92-14.3h24.486a5.755 5.755 0 0 0 5.755-5.754V87.564a5.756 5.756 0 0 0-5.755-5.755z" opacity="1" data-original="#05e39c" class=""></path><path fill="#0ed290" d="M73.669 136.805c-12.307-7.419-20.539-20.912-20.539-36.33s8.232-28.911 20.539-36.33c8.56-17.012 22.932-30.597 40.521-38.129V10.705a5.754 5.754 0 0 0-5.755-5.754H82.613a5.755 5.755 0 0 0-5.755 5.754v24.486a67.439 67.439 0 0 0-14.3 5.921L45.245 23.799a5.755 5.755 0 0 0-8.138 0L18.849 42.058a5.755 5.755 0 0 0 0 8.138l17.313 17.313a67.49 67.49 0 0 0-5.921 14.3H5.754A5.755 5.755 0 0 0 0 87.564v25.822a5.754 5.754 0 0 0 5.754 5.754H30.24a67.439 67.439 0 0 0 5.921 14.3l-17.312 17.312a5.755 5.755 0 0 0 0 8.138l18.259 18.259a5.755 5.755 0 0 0 8.138 0l17.313-17.313a67.49 67.49 0 0 0 14.3 5.921v24.486a5.755 5.755 0 0 0 5.755 5.755h25.822a5.756 5.756 0 0 0 5.755-5.755v-15.311c-17.59-7.53-31.962-21.115-40.522-38.127z" opacity="1" data-original="#0ed290"></path><circle cx="95.524" cy="100.475" r="42.394" fill="#00c285" transform="rotate(-76.7 95.554 100.5)" opacity="1" data-original="#00c285" class=""></circle><circle cx="95.524" cy="100.475" r="14.929" fill="#d4f2f6" opacity="1" data-original="#d4f2f6" class=""></circle><path fill="#704444" d="M341.281 354.841h-34.42l-23.47 96.64h34.42z" opacity="1" data-original="#704444" class=""></path><path fill="#ae6c6c" d="M256.878 507.049h186.04a5.44 5.44 0 0 0 5.44-5.44v-26.238c0-1.649-.748-3.21-2.035-4.242l-24.478-19.648H283.391l-24.478 19.649a5.442 5.442 0 0 0-2.035 4.242z" opacity="1" data-original="#ae6c6c" class=""></path><path fill="#9b5e5e" d="m293.194 471.13 24.478-19.649h-34.281l-24.478 19.649a5.442 5.442 0 0 0-2.035 4.242v31.677h34.281v-31.677a5.444 5.444 0 0 1 2.035-4.242z" opacity="1" data-original="#9b5e5e" class=""></path><path fill="#855151" d="m310.812 273.011-.305-.206v39.563h84.223v-39.563l-.305.206z" opacity="1" data-original="#855151" class=""></path><path fill="#704444" d="m310.812 273.011-.305-.206v39.563h34.419v-39.357z" opacity="1" data-original="#704444" class=""></path><path fill="#ae6c6c" d="M411.445 355.841H293.792a5.44 5.44 0 0 1-5.44-5.44v-33.593a5.44 5.44 0 0 1 5.44-5.44h117.653a5.44 5.44 0 0 1 5.44 5.44v33.593a5.44 5.44 0 0 1-5.44 5.44z" opacity="1" data-original="#ae6c6c" class=""></path><path fill="#9b5e5e" d="M332.233 350.401v-33.593a5.44 5.44 0 0 1 5.44-5.44h-43.881a5.44 5.44 0 0 0-5.44 5.44v33.593a5.44 5.44 0 0 0 5.44 5.44h43.881a5.44 5.44 0 0 1-5.44-5.44z" opacity="1" data-original="#9b5e5e" class=""></path><path fill="#ae6c6c" d="M394.61 196.731v14.792a5.44 5.44 0 0 1-5.44 5.44h-14.315a5.44 5.44 0 0 1-5.44-5.44v-14.792a5.44 5.44 0 0 0-5.44-5.44h-22.713a5.44 5.44 0 0 0-5.44 5.44v14.792a5.44 5.44 0 0 1-5.44 5.44h-14.315a5.44 5.44 0 0 1-5.44-5.44v-14.792a5.44 5.44 0 0 0-5.44-5.44h-21.994a5.44 5.44 0 0 0-5.44 5.44v52.296c0 1.808.899 3.499 2.398 4.51l30.355 20.474h84.224l30.355-20.473a5.44 5.44 0 0 0 2.398-4.51v-52.296a5.44 5.44 0 0 0-5.44-5.44h-21.994a5.438 5.438 0 0 0-5.439 5.439z" opacity="1" data-original="#ae6c6c" class=""></path><path fill="#9b5e5e" d="M316.781 249.027v-32.064h-.714a5.44 5.44 0 0 1-5.44-5.44v-14.792a5.44 5.44 0 0 0-5.44-5.44h-21.994a5.44 5.44 0 0 0-5.44 5.44v52.296c0 1.808.899 3.499 2.398 4.51l30.355 20.474h39.027l-30.355-20.474a5.441 5.441 0 0 1-2.397-4.51z" opacity="1" data-original="#9b5e5e" class=""></path></g></svg>