<svg xmlns="http://www.w3.org/2000/svg" version="1.1" xmlns:xlink="http://www.w3.org/1999/xlink" width="512" height="512" x="0" y="0" viewBox="0 0 512 512.001" style="enable-background:new 0 0 512 512" xml:space="preserve" class=""><circle r="256" cx="256" cy="256.0005" fill="#ffffff" shape="circle"></circle><g transform="matrix(0.69,0,0,0.69,79.36000000000001,79.36000000000001)"><path fill="#b5fcff" d="M210 423.203h92v72h-92zm0 0" opacity="1" data-original="#b5fcff" class=""></path><path fill="#dcdfe8" d="M210 423.203h92v72h-92zm0 0" opacity="1" data-original="#dcdfe8"></path><path fill="#cbcdd9" d="M271.332 423.203H302v72h-30.668zm0 0" opacity="1" data-original="#cbcdd9"></path><path fill="#5793c9" d="M495.938 437.313H16.063C7.19 437.313 0 430.12 0 421.25V123.715c0-8.871 7.191-16.063 16.063-16.063h479.875c8.87 0 16.062 7.192 16.062 16.063V421.25c0 8.871-7.191 16.063-16.063 16.063zm0 0" opacity="1" data-original="#5793c9" class=""></path><path fill="#4c87bd" d="M495.938 107.652h-30.903c8.871 0 16.059 7.192 16.059 16.063V421.25c0 8.871-7.188 16.063-16.059 16.063h30.903c8.87 0 16.062-7.192 16.062-16.063V123.715c0-8.871-7.191-16.063-16.063-16.063zm0 0" opacity="1" data-original="#4c87bd" class=""></path><path fill="#b5fcff" d="M30.906 402.406V142.56a4 4 0 0 1 4-4h442.188a4 4 0 0 1 4 4v259.847a4 4 0 0 1-4 4H34.906c-2.21 0-4-1.789-4-4zm0 0" opacity="1" data-original="#b5fcff" class=""></path><path fill="#8cf2ff" d="M449.582 138.559v267.847h26.902a4 4 0 0 0 4-4V142.56a4 4 0 0 0-4-4zm0 0" opacity="1" data-original="#8cf2ff" class=""></path><path fill="#5793c9" d="M388.895 512H123.109c-8.535 0-15.453-6.918-15.453-15.453s6.918-15.453 15.453-15.453h265.786c8.535 0 15.453 6.918 15.453 15.453S397.43 512 388.895 512zm0 0" opacity="1" data-original="#5793c9" class=""></path><path fill="#4c87bd" d="M388.895 481.094h-31.036c8.532 0 15.45 6.922 15.45 15.453 0 8.535-6.918 15.453-15.45 15.453h31.036c8.53 0 15.453-6.918 15.453-15.453s-6.918-15.453-15.453-15.453zm0 0" opacity="1" data-original="#4c87bd" class=""></path><path fill="#ff4b26" d="M240.137 211.453a.187.187 0 0 0 .117-.168c-.004-.992 1.121-6.508 2.27-11.863 1.359-6.36 6.976-10.899 13.476-10.899s12.117 4.54 13.477 10.899c1.144 5.355 2.27 10.871 2.27 11.863 0 .074.042.14.112.168 1.559.645 17.434 7.223 18.993 7.867.07.028.148.016.199-.039.703-.703 5.398-3.804 9.996-6.785a13.781 13.781 0 0 1 19.059 19.059c-2.977 4.601-6.083 9.293-6.786 9.996a.18.18 0 0 0-.039.199c.649 1.559 7.223 17.434 7.867 18.992.032.07.094.113.168.113.993 0 6.508 1.125 11.868 2.27 6.355 1.36 10.894 6.977 10.894 13.477s-4.539 12.117-10.894 13.476c-5.36 1.149-10.875 2.274-11.868 2.27-.074 0-.14.05-.168.12l-7.863 18.985a.18.18 0 0 0 .035.203c.703.7 3.809 5.395 6.785 9.992a13.786 13.786 0 0 1-1.824 17.239 13.786 13.786 0 0 1-17.234 1.824c-4.598-2.98-9.293-6.082-9.996-6.79a.191.191 0 0 0-.203-.034l-18.985 7.863a.187.187 0 0 0-.117.172c0 .992-1.125 6.508-2.27 11.863a13.782 13.782 0 0 1-26.953 0c-1.148-5.355-2.273-10.87-2.27-11.863 0-.074-.05-.14-.116-.172l-18.985-7.863a.191.191 0 0 0-.203.035c-.703.707-5.398 3.808-9.996 6.789a13.785 13.785 0 0 1-17.234-1.824 13.781 13.781 0 0 1-1.824-17.239c2.976-4.597 6.082-9.293 6.785-9.992a.187.187 0 0 0 .035-.203l-7.863-18.984a.185.185 0 0 0-.168-.121c-.997.004-6.512-1.121-11.868-2.27a13.782 13.782 0 0 1 0-26.953c5.356-1.145 10.871-2.27 11.868-2.27.074 0 .14-.046.168-.117l7.863-18.984a.179.179 0 0 0-.035-.203c-.703-.703-3.809-5.395-6.785-9.996a13.776 13.776 0 0 1 1.824-17.235 13.785 13.785 0 0 1 17.234-1.824c4.598 2.98 9.293 6.082 9.996 6.785.051.055.133.067.203.04zm0 0" opacity="1" data-original="#ff4b26" class=""></path><path fill="#5793c9" d="M284.723 276.605c0 15.86-12.86 28.72-28.723 28.72s-28.723-12.86-28.723-28.72c0-15.863 12.86-28.722 28.723-28.722s28.723 12.86 28.723 28.722zm0 0" opacity="1" data-original="#5793c9" class=""></path><path fill="#50536e" d="M167.918 324.434h-16.672v-172.47a7.5 7.5 0 0 0-7.5-7.5 7.497 7.497 0 0 0-7.5 7.5v179.97c0 4.144 3.356 7.5 7.5 7.5h24.172c4.144 0 7.5-3.356 7.5-7.5a7.5 7.5 0 0 0-7.5-7.5zM381.684 145.832a7.5 7.5 0 0 0-7.5 7.5v76.969h-25.47a7.5 7.5 0 1 0 0 15h32.97c4.14 0 7.5-3.36 7.5-7.5v-84.469c0-4.14-3.36-7.5-7.5-7.5zm0 0" opacity="1" data-original="#50536e" class=""></path><path fill="#47d5e6" d="M224.066 162.77H73.66c-10.242 0-18.543-8.301-18.543-18.543V33.997c0-10.243 8.301-18.544 18.543-18.544h150.406c10.239 0 18.543 8.3 18.543 18.543v110.23c0 10.243-8.304 18.544-18.543 18.544zm0 0" opacity="1" data-original="#47d5e6" class=""></path><path fill="#22c0d4" d="M224.066 15.453H193.16c10.242 0 18.543 8.3 18.543 18.543v110.23c0 10.239-8.3 18.544-18.543 18.544h30.906c10.239 0 18.543-8.305 18.543-18.543V33.997c0-10.243-8.304-18.544-18.543-18.544zm0 0" opacity="1" data-original="#22c0d4" class=""></path><g fill="#b5fcff"><path d="m87.05 63.336 60.368-.008a7.5 7.5 0 1 0 0-15l-60.367.008a7.5 7.5 0 1 0 0 15zM87.05 94.238l123.622-.004a7.5 7.5 0 0 0 7.5-7.5 7.5 7.5 0 0 0-7.5-7.5l-123.621.004a7.5 7.5 0 1 0 0 15zM210.672 110.137l-123.621.004a7.5 7.5 0 1 0 0 15l123.62-.004c4.145 0 7.5-3.356 7.5-7.5a7.5 7.5 0 0 0-7.5-7.5zm0 0" fill="#b5fcff" opacity="1" data-original="#b5fcff" class=""></path></g><path fill="#47d5e6" d="M436.281 148.348H325.023c-10.242 0-18.543-8.305-18.543-18.543V18.543C306.48 8.301 314.781 0 325.023 0h111.258c10.242 0 18.543 8.3 18.543 18.543v111.262c0 10.238-8.3 18.543-18.543 18.543zm0 0" opacity="1" data-original="#47d5e6" class=""></path><path fill="#22c0d4" d="M436.281 0H405.38c10.238 0 18.543 8.3 18.543 18.543v111.262c0 10.238-8.305 18.543-18.543 18.543h30.902c10.242 0 18.543-8.305 18.543-18.543V18.543c0-10.242-8.3-18.543-18.543-18.543zm0 0" opacity="1" data-original="#22c0d4" class=""></path><path fill="#ffd659" d="M433.191 75.465c0-28.88-23.062-52.285-51.507-52.285-28.446 0-51.512 23.406-51.512 52.285 0 17.668 8.637 33.293 21.86 42.754 5.84 4.18 9.234 11.05 9.234 18.304h40.832c0-7.253 3.394-14.125 9.234-18.304 13.223-9.461 21.86-25.086 21.86-42.754zm0 0" opacity="1" data-original="#ffd659"></path><path fill="#ffbd54" d="M381.684 23.18c-5.387 0-10.575.84-15.454 2.394 20.895 6.664 36.055 26.477 36.055 49.89 0 17.669-8.637 33.294-21.86 42.755-5.84 4.18-9.23 11.05-9.23 18.304h30.903c0-7.253 3.394-14.125 9.234-18.304 13.223-9.461 21.86-25.086 21.86-42.754 0-28.88-23.063-52.285-51.508-52.285zm0 0" opacity="1" data-original="#ffbd54"></path><path fill="#5793c9" d="M402.727 136.523h-42.09a3.59 3.59 0 0 0-3.59 3.59v6.059c0 11.726 9.504 21.23 21.23 21.23h6.809c11.726 0 21.23-9.504 21.23-21.23v-6.059a3.59 3.59 0 0 0-3.59-3.59zm0 0" opacity="1" data-original="#5793c9" class=""></path></g></svg>