<svg height="512pt" viewBox="0 0 512 512.001" width="512pt" xmlns="http://www.w3.org/2000/svg"><path d="m210 423.203125h92v72h-92zm0 0" fill="#b5fcff"/><path d="m210 423.203125h92v72h-92zm0 0" fill="#dcdfe8"/><path d="m271.332031 423.203125h30.667969v72h-30.667969zm0 0" fill="#cbcdd9"/><path d="m495.9375 437.3125h-479.875c-8.871094 0-16.0625-7.191406-16.0625-16.0625v-297.535156c0-8.871094 7.191406-16.0625 16.0625-16.0625h479.875c8.871094 0 16.0625 7.191406 16.0625 16.0625v297.535156c0 8.871094-7.191406 16.0625-16.0625 16.0625zm0 0" fill="#5793c9"/><path d="m495.9375 107.652344h-30.902344c8.871094 0 16.058594 7.191406 16.058594 16.0625v297.535156c0 8.871094-7.1875 16.0625-16.058594 16.0625h30.902344c8.871094 0 16.0625-7.191406 16.0625-16.0625v-297.535156c0-8.871094-7.191406-16.0625-16.0625-16.0625zm0 0" fill="#4c87bd"/><path d="m30.90625 402.40625v-259.847656c0-2.207032 1.789062-4 4-4h442.1875c2.210938 0 4 1.792968 4 4v259.847656c0 2.207031-1.789062 4-4 4h-442.1875c-2.210938 0-4-1.789062-4-4zm0 0" fill="#b5fcff"/><path d="m449.582031 138.558594v267.847656h26.902344c2.210937 0 4-1.792969 4-4v-259.847656c0-2.207032-1.789063-4-4-4zm0 0" fill="#8cf2ff"/><path d="m388.894531 512h-265.785156c-8.535156 0-15.453125-6.917969-15.453125-15.453125s6.917969-15.453125 15.453125-15.453125h265.785156c8.535157 0 15.453125 6.917969 15.453125 15.453125s-6.917968 15.453125-15.453125 15.453125zm0 0" fill="#5793c9"/><path d="m388.894531 481.09375h-31.035156c8.53125 0 15.449219 6.921875 15.449219 15.453125 0 8.535156-6.917969 15.453125-15.449219 15.453125h31.035156c8.53125 0 15.453125-6.917969 15.453125-15.453125s-6.917968-15.453125-15.453125-15.453125zm0 0" fill="#4c87bd"/><path d="m240.136719 211.453125c.066406-.027344.117187-.09375.117187-.167969-.003906-.992187 1.121094-6.507812 2.269532-11.863281 1.359374-6.359375 6.976562-10.898437 13.476562-10.898437s12.117188 4.539062 13.476562 10.898437c1.144532 5.355469 2.269532 10.871094 2.269532 11.863281 0 .074219.042968.140625.113281.167969 1.558594.644531 17.433594 7.222656 18.992187 7.867187.070313.027344.148438.015626.199219-.039062.703125-.703125 5.398438-3.804688 9.996094-6.785156 5.457031-3.53125 12.636719-2.769532 17.234375 1.824218 4.597656 4.597657 5.355469 11.78125 1.824219 17.234376-2.976563 4.601562-6.082031 9.292968-6.785157 9.996093-.054687.054688-.066406.128907-.039062.199219.648438 1.558594 7.222656 17.433594 7.867188 18.992188.03125.070312.09375.113281.167968.113281.992188 0 6.507813 1.125 11.867188 2.269531 6.355468 1.359375 10.894531 6.976562 10.894531 13.476562s-4.539063 12.117188-10.894531 13.476563c-5.359375 1.148437-10.875 2.273437-11.867188 2.269531-.074218 0-.140625.050782-.167968.121094l-7.863282 18.984375c-.03125.066406-.019531.148437.035156.203125.703126.699219 3.808594 5.394531 6.785157 9.992188 3.53125 5.457031 2.773437 12.640624-1.824219 17.238281-4.597656 4.59375-11.777344 5.355469-17.234375 1.824219-4.597656-2.980469-9.292969-6.082032-9.996094-6.789063-.050781-.050781-.132812-.0625-.203125-.035156l-18.984375 7.863281c-.070312.03125-.117187.09375-.117187.171875 0 .992187-1.125 6.507813-2.269532 11.863281-1.359374 6.355469-6.976562 10.898438-13.476562 10.898438s-12.117188-4.542969-13.476562-10.898438c-1.148438-5.355468-2.273438-10.871094-2.269532-11.863281 0-.074219-.050781-.140625-.117187-.171875l-18.984375-7.863281c-.070313-.027344-.152344-.015625-.203125.035156-.703125.707031-5.398438 3.808594-9.996094 6.789063-5.457031 3.53125-12.640625 2.769531-17.234375-1.824219-4.597656-4.597657-5.359375-11.78125-1.824219-17.238281 2.976563-4.597657 6.082031-9.292969 6.785157-9.992188.054687-.054688.0625-.136719.035156-.203125l-7.863282-18.984375c-.027343-.070312-.09375-.121094-.167968-.121094-.996094.003906-6.511719-1.121094-11.867188-2.269531-6.355468-1.359375-10.898437-6.976563-10.898437-13.476563s4.542969-12.117187 10.898437-13.476562c5.355469-1.144531 10.871094-2.269531 11.867188-2.269531.074218 0 .140625-.046875.167968-.117188l7.863282-18.984375c.03125-.070312.019531-.148437-.035156-.203125-.703126-.703125-3.808594-5.394531-6.785157-9.996093-3.535156-5.453126-2.773437-12.636719 1.824219-17.234376 4.59375-4.59375 11.777344-5.355468 17.234375-1.824218 4.597656 2.980468 9.292969 6.082031 9.996094 6.785156.050781.054688.132812.066406.203125.039062zm0 0" fill="#ff4b26"/><path d="m284.722656 276.605469c0 15.859375-12.859375 28.71875-28.722656 28.71875s-28.722656-12.859375-28.722656-28.71875c0-15.863281 12.859375-28.722657 28.722656-28.722657s28.722656 12.859376 28.722656 28.722657zm0 0" fill="#5793c9"/><path d="m167.917969 324.433594h-16.671875v-172.46875c0-4.144532-3.359375-7.5-7.5-7.5-4.144532 0-7.5 3.355468-7.5 7.5v179.96875c0 4.144531 3.355468 7.5 7.5 7.5h24.171875c4.144531 0 7.5-3.355469 7.5-7.5 0-4.140625-3.355469-7.5-7.5-7.5zm0 0" fill="#50536e"/><path d="m381.683594 145.832031c-4.144532 0-7.5 3.359375-7.5 7.5v76.96875h-25.46875c-4.140625 0-7.5 3.355469-7.5 7.5 0 4.140625 3.359375 7.5 7.5 7.5h32.96875c4.140625 0 7.5-3.359375 7.5-7.5v-84.46875c0-4.140625-3.359375-7.5-7.5-7.5zm0 0" fill="#50536e"/><path d="m224.066406 162.769531h-150.40625c-10.242187 0-18.542968-8.300781-18.542968-18.542969v-110.230468c0-10.242188 8.300781-18.542969 18.542968-18.542969h150.40625c10.238282 0 18.542969 8.300781 18.542969 18.542969v110.230468c0 10.242188-8.304687 18.542969-18.542969 18.542969zm0 0" fill="#47d5e6"/><path d="m224.066406 15.453125h-30.90625c10.242188 0 18.542969 8.300781 18.542969 18.542969v110.230468c0 10.238282-8.300781 18.542969-18.542969 18.542969h30.90625c10.238282 0 18.542969-8.304687 18.542969-18.542969v-110.230468c0-10.242188-8.304687-18.542969-18.542969-18.542969zm0 0" fill="#22c0d4"/><g fill="#b5fcff"><path d="m87.050781 63.335938 60.367188-.007813c4.140625 0 7.5-3.355469 7.5-7.5 0-4.140625-3.359375-7.5-7.5-7.5l-60.367188.007813c-4.140625 0-7.5 3.355468-7.5 7.5 0 4.140624 3.359375 7.5 7.5 7.5zm0 0"/><path d="m87.050781 94.238281 123.621094-.003906c4.144531 0 7.5-3.359375 7.5-7.5 0-4.144531-3.359375-7.5-7.5-7.5l-123.621094.003906c-4.140625 0-7.5 3.359375-7.5 7.5 0 4.144531 3.359375 7.5 7.5 7.5zm0 0"/><path d="m210.671875 110.136719-123.621094.003906c-4.140625 0-7.5 3.359375-7.5 7.5 0 4.144531 3.359375 7.5 7.5 7.5l123.621094-.003906c4.144531 0 7.5-3.355469 7.5-7.5 0-4.140625-3.355469-7.5-7.5-7.5zm0 0"/></g><path d="m436.28125 148.347656h-111.257812c-10.242188 0-18.542969-8.304687-18.542969-18.542968v-111.261719c0-10.242188 8.300781-18.542969 18.542969-18.542969h111.257812c10.242188 0 18.542969 8.300781 18.542969 18.542969v111.261719c0 10.238281-8.300781 18.542968-18.542969 18.542968zm0 0" fill="#47d5e6"/><path d="m436.28125 0h-30.902344c10.238282 0 18.542969 8.300781 18.542969 18.542969v111.261719c0 10.238281-8.304687 18.542968-18.542969 18.542968h30.902344c10.242188 0 18.542969-8.304687 18.542969-18.542968v-111.261719c0-10.242188-8.300781-18.542969-18.542969-18.542969zm0 0" fill="#22c0d4"/><path d="m433.191406 75.464844c0-28.878906-23.0625-52.285156-51.507812-52.285156-28.445313 0-51.511719 23.40625-51.511719 52.285156 0 17.667968 8.636719 33.292968 21.859375 42.753906 5.839844 4.179688 9.234375 11.050781 9.234375 18.304688h40.832031c0-7.253907 3.394532-14.125 9.234375-18.304688 13.222657-9.460938 21.859375-25.085938 21.859375-42.753906zm0 0" fill="#ffd659"/><path d="m381.683594 23.179688c-5.386719 0-10.574219.839843-15.453125 2.394531 20.894531 6.664062 36.054687 26.476562 36.054687 49.890625 0 17.667968-8.636718 33.292968-21.859375 42.753906-5.839843 4.179688-9.230469 11.050781-9.230469 18.304688h30.902344c0-7.253907 3.394532-14.125 9.234375-18.304688 13.222657-9.460938 21.859375-25.085938 21.859375-42.753906 0-28.878906-23.0625-52.285156-51.507812-52.285156zm0 0" fill="#ffbd54"/><path d="m402.726562 136.523438h-42.089843c-1.980469 0-3.589844 1.605468-3.589844 3.589843v6.058594c0 11.726563 9.503906 21.230469 21.230469 21.230469h6.808594c11.726562 0 21.230468-9.503906 21.230468-21.230469v-6.058594c0-1.980469-1.605468-3.589843-3.589844-3.589843zm0 0" fill="#5793c9"/></svg>