<svg xmlns="http://www.w3.org/2000/svg" version="1.1" xmlns:xlink="http://www.w3.org/1999/xlink" width="512" height="512" x="0" y="0" viewBox="0 0 60 60" style="enable-background:new 0 0 512 512" xml:space="preserve" class=""><circle r="30" cx="30" cy="30" fill="#ffffff" shape="circle"></circle><g transform="matrix(0.69,0,0,0.69,9.299632188081745,9.3)"><g fill="none" transform="translate(-1)"><path fill="#d6dbe3" d="M55.83 19.55C53.8 22.58 43.45 37 31 37a19.534 19.534 0 0 1-8.9-2.33c-.63-.32-1.25-.67-1.85-1.04-7.3-4.45-12.68-11.99-14.08-14.08a.963.963 0 0 1 0-1.1C8.2 15.42 18.55 1 31 1c6.75 0 12.89 4.24 17.41 8.61.49.47.96.94 1.4 1.41a56.513 56.513 0 0 1 6.02 7.43c.23.33.23.77 0 1.1z" opacity="1" data-original="#d6dbe3"></path><circle cx="31" cy="19" r="13" fill="#2783ec" opacity="1" data-original="#2783ec"></circle><path fill="#3c3e42" d="M36.78 20.59A5.6 5.6 0 0 0 37 19a6 6 0 1 0-6 6 5.6 5.6 0 0 0 1.59-.22z" opacity="1" data-original="#3c3e42"></path><circle cx="35" cy="23" r="3" fill="#f0f2f5" opacity="1" data-original="#f0f2f5"></circle><g fill="#37cba1"><path d="m22.1 34.67-4.45 3.86a2.02 2.02 0 0 1-2.7-.1l-3.03-3.1-9.3 7.45A.961.961 0 0 1 2 43a1 1 0 0 1-.78-.38.982.982 0 0 1 .16-1.4l9.29-7.44a2.016 2.016 0 0 1 2.67.14l3.02 3.09 3.89-3.38c.6.37 1.22.72 1.85 1.04zM60.973.868a.926.926 0 0 0-.043-.213.891.891 0 0 0-.1-.181.935.935 0 0 0-.07-.124c-.009-.01-.021-.014-.03-.024a1 1 0 0 0-.169-.132 1.153 1.153 0 0 0-.145-.1 1.113 1.113 0 0 0-.165-.045 1 1 0 0 0-.215-.044C60.023.007 60.013 0 60 0h-4a1 1 0 0 0 0 2h1.291L48.47 9.54a.134.134 0 0 0-.06.07c.49.47.96.94 1.4 1.41L59 3.169V5a1 1 0 0 0 2 0V1a.835.835 0 0 0-.027-.132zM4 60a1 1 0 0 1-1-1V46a1 1 0 0 1 2 0v13a1 1 0 0 1-1 1z" fill="#37cba1" opacity="1" data-original="#37cba1" class=""></path><path d="M10 60a1 1 0 0 1-1-1V42a1 1 0 0 1 2 0v17a1 1 0 0 1-1 1zM16 60a1 1 0 0 1-1-1V43a1 1 0 0 1 2 0v16a1 1 0 0 1-1 1zM22 60a1 1 0 0 1-1-1V40a1 1 0 0 1 2 0v19a1 1 0 0 1-1 1zM28 60a1 1 0 0 1-1-1V42a1 1 0 0 1 2 0v17a1 1 0 0 1-1 1zM34 60a1 1 0 0 1-1-1V42a1 1 0 0 1 2 0v17a1 1 0 0 1-1 1zM40 60a1 1 0 0 1-1-1V40a1 1 0 0 1 2 0v19a1 1 0 0 1-1 1zM46 60a1 1 0 0 1-1-1V36a1 1 0 0 1 2 0v23a1 1 0 0 1-1 1zM52 60a1 1 0 0 1-1-1V31a1 1 0 0 1 2 0v28a1 1 0 0 1-1 1zM58 60a1 1 0 0 1-1-1V24a1 1 0 0 1 2 0v35a1 1 0 0 1-1 1z" fill="#37cba1" opacity="1" data-original="#37cba1" class=""></path></g><path fill="#31b791" d="M60 60H2a1 1 0 0 1 0-2h58a1 1 0 0 1 0 2z" opacity="1" data-original="#31b791"></path><path fill="#37cba1" d="M58 14a1 1 0 0 1-1-1V9a1 1 0 0 1 2 0v4a1 1 0 0 1-1 1z" opacity="1" data-original="#37cba1" class=""></path></g></g></svg>