<svg xmlns="http://www.w3.org/2000/svg" version="1.1" xmlns:xlink="http://www.w3.org/1999/xlink" width="512" height="512" x="0" y="0" viewBox="0 0 512 512" style="enable-background:new 0 0 512 512" xml:space="preserve" class=""><circle r="256" cx="256" cy="256" fill="#ffffff" shape="circle"></circle><g transform="matrix(0.69,0,0,0.69,77.38776385426524,77.16378339529038)"><path fill="#fdc72e" fill-rule="evenodd" d="M225.909 195.897h-20.645c-3.868 0-7.001-3.138-7.001-7.004s3.133-6.999 7.001-6.999h20.645c3.865 0 7 3.133 7 6.999s-3.135 7.004-7 7.004zm-19.63 33.528h-20.647a7 7 0 1 1 0-13.998h20.647c3.866 0 6.999 3.133 6.999 6.999s-3.133 6.999-6.999 6.999zm-19.632 33.533h-20.645a7 7 0 0 1-7.001-6.999 7.004 7.004 0 0 1 7.001-7.004h20.645c3.867 0 7 3.133 7 7.004s-3.133 6.999-7 6.999zm19.632 33.528h-20.647c-3.865 0-7-3.128-7-7.004s3.135-6.999 7-6.999h20.647a7.005 7.005 0 0 1 6.999 6.999 6.997 6.997 0 0 1-6.999 7.004zm19.63 33.528h-20.645c-3.868 0-7.001-3.128-7.001-6.999s3.133-6.999 7.001-6.999h20.645c3.865 0 7 3.138 7 6.999s-3.135 6.999-7 6.999z" opacity="1" data-original="#fdc72e"></path><circle cx="92.525" cy="91.011" r="80" fill="#f9ac00" transform="rotate(-11.37 92.676 91.141)" opacity="1" data-original="#f9ac00"></circle><path fill="#fcdb35" fill-rule="evenodd" d="M90.026 170.969C47 169.648 12.525 134.358 12.525 91.011S47 12.375 90.026 11.054c43.026 1.321 77.501 36.611 77.501 79.957s-34.475 78.637-77.501 79.958z" opacity="1" data-original="#fcdb35"></path><circle cx="92.525" cy="91.012" r="63.828" fill="#f19a00" transform="rotate(-5.13 92.655 91.018)" opacity="1" data-original="#f19a00"></circle><path fill="#f9ac00" fill-rule="evenodd" d="M96.63 27.318c33.338 2.117 59.723 29.822 59.723 63.693s-26.385 61.576-59.723 63.693c-33.338-2.117-59.723-29.822-59.723-63.693S63.293 29.435 96.63 27.318zM337.291 140.916l-30.655 12.715-16.065-10.773-36.693 36.693 10.774 16.065-12.716 30.655-18.961 3.739v51.891l18.961 3.738 12.716 30.655-10.774 16.065 36.693 36.693 16.065-10.773 30.655 12.715 3.739 18.961h51.89l3.739-18.961 30.655-12.715 16.065 10.773 36.693-36.693-10.774-16.065 12.716-30.655 18.961-3.738V230.01l-18.961-3.739-12.716-30.655 10.774-16.065-36.693-36.693-16.065 10.773-30.655-12.715-3.739-18.961h-51.89z" opacity="1" data-original="#f9ac00"></path><path fill="#fdc72e" fill-rule="evenodd" d="m337.291 140.916-10.367 4.3-13.427 5.569-6.861 2.846-5.881 2.44-14.005-9.392-32.872 32.872 10.774 16.065-12.716 30.655-18.961 3.739v51.891l18.961 3.738 12.716 30.655-10.774 16.065 32.872 32.872 14.005-9.392 5.881 2.44 30.655 12.715 3.739 18.961h45.579l4.025-20.41 33.042-13.706 3.638 2.44 10.367 6.952 32.872-32.871-10.774-16.066 12.716-30.655 18.961-3.738V230.01l-18.961-3.739-12.716-30.655 10.774-16.065-32.872-32.872-10.367 6.952-3.638 2.44-33.042-13.706-4.025-20.41H341.03z" opacity="1" data-original="#fdc72e"></path><circle cx="360.162" cy="255.955" r="85.518" fill="#f9ac00" transform="rotate(-45 360.142 256.04)" opacity="1" data-original="#f9ac00"></circle><circle cx="366.975" cy="255.955" r="85.141" fill="#f3f3ff" transform="matrix(1 -.025 .025 1 -6.305 9.286)" opacity="1" data-original="#f3f3ff"></circle><g fill-rule="evenodd"><path fill="#7986bf" d="M366.976 196.273a6.999 6.999 0 0 1-7.001-6.999v-4.044c0-3.866 3.133-7.004 7.001-7.004s7 3.138 7 7.004v4.044a7 7 0 0 1-7 6.999zm-47.15 19.531a6.976 6.976 0 0 1-4.951-2.053l-2.859-2.858a6.998 6.998 0 0 1 .002-9.9 6.995 6.995 0 0 1 9.898.005l2.86 2.858a7 7 0 0 1-4.95 11.948zm94.298 0a7 7 0 0 1-4.95-11.948l2.86-2.858c2.734-2.738 7.166-2.738 9.9-.005s2.734 7.167.002 9.9l-2.86 2.863a6.994 6.994 0 0 1-4.952 2.048zm-113.826 47.15h-4.047a7.002 7.002 0 0 1 0-14.002h4.047c3.865 0 6.998 3.133 6.998 7.003s-3.133 6.999-6.998 6.999zm137.401 0h-4.044a7 7 0 0 1-7.001-6.999 7.003 7.003 0 0 1 7.001-7.003h4.044a7 7 0 0 1 7.001 7.003 6.997 6.997 0 0 1-7.001 6.999zm-20.714 50.008a6.973 6.973 0 0 1-4.95-2.049l-2.86-2.863c-2.734-2.728-2.734-7.167 0-9.9a7.01 7.01 0 0 1 9.9 0l2.861 2.863c2.732 2.728 2.732 7.167 0 9.9a6.973 6.973 0 0 1-4.951 2.049zm-100.018 0a7 7 0 0 1-4.95-11.949l2.86-2.863a7.008 7.008 0 0 1 9.898 0c2.734 2.733 2.736 7.172.002 9.9l-2.86 2.863a6.966 6.966 0 0 1-4.95 2.049zm50.01 20.721c-3.868 0-7.001-3.143-7.001-7.004v-4.049c0-3.87 3.133-6.999 7.001-6.999s7 3.128 7 6.999v4.049c0 3.861-3.135 7.004-7 7.004z" opacity="1" data-original="#7986bf"></path><path fill="#f2671f" d="M341.247 288.678a6.968 6.968 0 0 1-4.95-2.048 6.995 6.995 0 0 1 0-9.896l23.678-23.681v-39.018c0-3.861 3.133-6.994 6.999-6.994s7 3.133 7 6.994l.002 41.92a7.004 7.004 0 0 1-2.052 4.95l-25.727 25.725a6.968 6.968 0 0 1-4.95 2.048z" opacity="1" data-original="#f2671f"></path><path fill="#7986bf" d="M366.974 488.543H214.587c-3.865 0-7-3.138-7-6.999s3.135-6.999 7-6.999h145.388V437.73l-2.308 3.123a7.008 7.008 0 0 1-9.792 1.451 6.998 6.998 0 0 1-1.454-9.789l14.931-20.143a7 7 0 0 1 11.246 0l14.931 20.143c2.303 3.099 1.651 7.49-1.453 9.789a7.01 7.01 0 0 1-9.793-1.451l-2.308-3.123v43.814a7.002 7.002 0 0 1-7 6.999zM366.974 98.481a6.998 6.998 0 0 1-6.999-6.998V66.096H224.171l3.112 2.309a6.997 6.997 0 0 1 1.456 9.789 6.997 6.997 0 0 1-9.793 1.456l-20.138-14.933a6.998 6.998 0 0 1 0-11.245l20.138-14.933c3.105-2.304 7.49-1.648 9.793 1.456a7.005 7.005 0 0 1-1.456 9.795l-3.112 2.304h142.803c3.867 0 7 3.133 7 6.998v32.391a6.998 6.998 0 0 1-7 6.998zM92.526 316.453a7.004 7.004 0 0 1-5.624-2.83l-14.931-20.138a7.003 7.003 0 0 1 1.453-9.794c3.107-2.299 7.492-1.648 9.793 1.451l2.308 3.119v-85.806c0-3.866 3.133-6.999 7-6.999s6.999 3.133 6.999 6.999v85.806l2.308-3.119a7.009 7.009 0 0 1 9.792-1.451 7.003 7.003 0 0 1 1.454 9.794l-14.931 20.138a7.003 7.003 0 0 1-5.622 2.83z" opacity="1" data-original="#7986bf"></path><path fill="#ffeb87" d="M85.524 131.486c-9.726-1.648-18.701-6.363-22.972-14.166a7.003 7.003 0 0 1 2.779-9.505 7.003 7.003 0 0 1 9.501 2.781c3.802 6.941 20.51 9.91 29.797 5.292 2.584-1.287 4.278-3.533 4.655-6.17.184-1.297.167-3.769-2.015-5.779-1.521-1.403-4.647-3.446-10.896-5.22-1.746-.497-3.677-.954-5.724-1.441-6.654-1.571-14.197-3.354-19.73-7.649-5.157-4-8.231-9.423-8.657-15.27-.418-5.712 1.685-11.288 5.921-15.704 4.058-4.228 10.292-7.091 17.341-8.212V42.86c0-3.866 3.133-6.999 7-6.999s6.999 3.133 6.999 6.999v7.639c9.99 1.63 17.8 6.473 21.533 13.405 1.832 3.408.561 7.654-2.843 9.486a7.004 7.004 0 0 1-9.484-2.844c-1.677-3.114-6.371-5.548-12.248-6.348-7.283-.993-14.936.752-18.2 4.15-1.451 1.513-2.184 3.287-2.06 4.989.137 1.865 1.271 3.668 3.278 5.23 3.133 2.434 9.103 3.846 14.371 5.09 2.105.496 4.282 1.012 6.328 1.595 7.145 2.029 12.715 4.854 16.556 8.392 5.033 4.637 7.36 11.216 6.386 18.046-1.019 7.158-5.609 13.414-12.278 16.73-3.363 1.674-7.248 2.785-11.342 3.333v7.411c0 3.866-3.133 6.999-6.999 6.999s-7-3.133-7-6.999v-7.678z" opacity="1" data-original="#ffeb87"></path><path fill="#2a92fa" d="M92.525 426.585c42.692 0 77.742 32.69 81.5 74.404h-163c3.758-41.713 38.808-74.404 81.5-74.404z" opacity="1" data-original="#2a92fa"></path><path fill="#4eb1fc" d="M151.324 500.989H11.025c3.531-39.2 34.699-70.429 73.872-74.05 34.977 6.704 62.179 36.686 66.426 74.05z" opacity="1" data-original="#4eb1fc"></path></g><circle cx="92.525" cy="387.345" r="38.976" fill="#fdb0a0" transform="rotate(-7.01 92.967 388.826)" opacity="1" data-original="#fdb0a0"></circle><path fill="#ffcec0" fill-rule="evenodd" d="M84.634 425.522c-17.743-3.648-31.086-19.354-31.086-38.177s13.342-34.529 31.086-38.177c17.743 3.648 31.087 19.354 31.087 38.177s-13.343 34.529-31.087 38.177z" opacity="1" data-original="#ffcec0"></path></g></svg>