<svg xmlns="http://www.w3.org/2000/svg" version="1.1" xmlns:xlink="http://www.w3.org/1999/xlink" width="512" height="512" x="0" y="0" viewBox="0 0 60 60" style="enable-background:new 0 0 512 512" xml:space="preserve" class=""><circle r="30" cx="30" cy="30" fill="#ffffff" shape="circle"></circle><g transform="matrix(0.69,0,0,0.69,9.3,9.3)"><path fill="#e8ca4d" d="M35 9H3a2 2 0 0 0-2 2v28a2 2 0 0 0 2 2l1 2h30l1-2a2 2 0 0 0 2-2V11a2 2 0 0 0-2-2z" opacity="1" data-original="#e8ca4d"></path><path fill="#334f4a" d="m41 45 1-1v-3H2c-.55 0-1 .45-1 1v2c0 .55.45 1 1 1z" opacity="1" data-original="#334f4a"></path><path fill="#8fc95d" d="M58.95 30c.03.16.05.31.05.47V43c0 1.1-.9 2-2 2H41V22c0-1.1.9-2 2-2h4z" opacity="1" data-original="#8fc95d"></path><circle cx="50" cy="46" r="5" fill="#1f3330" opacity="1" data-original="#1f3330"></circle><circle cx="12" cy="46" r="5" fill="#1f3330" opacity="1" data-original="#1f3330"></circle><path fill="#e2e2e2" d="M58.95 30H48c-.55 0-1-.45-1-1v-9h5.76a2 2 0 0 1 1.79 1.11l4.24 8.47c.07.14.12.28.16.42z" opacity="1" data-original="#e2e2e2"></path><path fill="#8fc95d" d="M28.428 26.556c-1.853 6.442-9.703 9.459-15.041 5.158a7.625 7.625 0 0 1-.511-3.973c.34-2.34 1.853-4.461 4.005-5.626 1.622-.886 3.415-1.504 5.167-2.141 2.594-.946 3.495-2.858 3.785-3.754a.323.323 0 0 1 .531-.129c1.082 1.016 3.815 4.331 2.063 10.465z" opacity="1" data-original="#8fc95d"></path><path fill="#7da858" d="M9.001 34.992a.991.991 0 0 1-.665-.254.994.994 0 0 1-.09-1.396c.133-.152 1.396-1.517 4.845-2.584 1.64-.509 7.219-2.51 10.132-6.909a.998.998 0 0 1 1.386-.282c.46.305.586.926.282 1.386-3.28 4.952-9.408 7.158-11.208 7.716-2.895.896-3.929 1.988-3.939 1.999-.198.215-.47.324-.742.324z" opacity="1" data-original="#7da858"></path></g></svg>