<svg xmlns="http://www.w3.org/2000/svg" version="1.1" xmlns:xlink="http://www.w3.org/1999/xlink" width="512" height="512" x="0" y="0" viewBox="0 0 512 512" style="enable-background:new 0 0 512 512" xml:space="preserve" class=""><circle r="256" cx="256" cy="256" fill="#ffffff" shape="circle"></circle><g transform="matrix(0.69,0,0,0.69,79.36014929771426,79.35999881744388)"><path fill="#909cd1" d="M217.619 435.915c-3.118 3.118-8.192 3.118-11.311 0a8.042 8.042 0 0 1 0-11.339l93.374-93.373c3.118-3.118 8.192-3.118 11.31 0s3.118 8.192 0 11.31zM215.323 335.229c4.394-.085 8.022 3.43 8.079 7.823.085 4.422-3.43 8.022-7.824 8.107l-15.704.255a7.957 7.957 0 0 1-5.754-2.324l-.028.028-20.919-20.92a8.04 8.04 0 0 1 0-11.338 8.04 8.04 0 0 1 11.338 0l18.539 18.567 12.274-.198zM215.521 161.833a7.997 7.997 0 0 1 7.852 8.107c-.085 4.394-3.713 7.909-8.107 7.824l-12.274-.198-18.539 18.567c-3.146 3.118-8.192 3.118-11.31 0a7.991 7.991 0 0 1 0-11.339l20.919-20.919v.028c1.474-1.474 3.515-2.353 5.783-2.325zM284.913 249.14c4.394.057 7.909 3.657 7.88 8.05-.057 4.394-3.685 7.937-8.079 7.88l-78.605-1.219c-4.422-.057-7.937-3.657-7.88-8.051s3.657-7.937 8.05-7.88l78.633 1.219zM206.308 88.416c-3.118-3.118-3.118-8.192 0-11.31a8.042 8.042 0 0 1 11.339 0l93.373 93.373c3.118 3.118 3.118 8.192 0 11.311a7.956 7.956 0 0 1-11.31 0zM299.37 73.874c.057-4.422 3.685-7.909 8.079-7.852a7.944 7.944 0 0 1 7.852 8.107l-.708 41.584 44.277 44.249c3.118 3.146 3.118 8.192 0 11.311-3.146 3.146-8.192 3.146-11.311 0l-46.63-46.602.028-.028a7.982 7.982 0 0 1-2.353-5.754l.765-45.014zM312.693 437.899c.057 4.394-3.458 8.022-7.852 8.079-4.394.085-8.022-3.43-8.107-7.824l-.737-45.014a7.862 7.862 0 0 1 2.324-5.783h-.028l46.63-46.63c3.118-3.118 8.192-3.118 11.311 0s3.118 8.192 0 11.31l-44.249 44.249.708 41.612z" opacity="1" data-original="#909cd1"></path><g fill-rule="evenodd"><path fill="#4eb1fc" d="M211.978 50.517c17.802 0 32.258 14.428 32.258 32.258s-14.457 32.23-32.258 32.23-32.258-14.429-32.258-32.23 14.457-32.258 32.258-32.258z" opacity="1" data-original="#4eb1fc"></path><path fill="#85caff" d="M203.105 113.786c-13.493-3.855-23.386-16.299-23.386-31.011s9.893-27.185 23.386-31.04c13.493 3.855 23.386 16.299 23.386 31.04s-9.893 27.156-23.386 31.011z" opacity="1" data-original="#85caff"></path><path fill="#4eb1fc" d="M307.335 41.729c17.802 0 32.258 14.457 32.258 32.258s-14.457 32.258-32.258 32.258-32.258-14.457-32.258-32.258 14.457-32.258 32.258-32.258z" opacity="1" data-original="#4eb1fc"></path><path fill="#85caff" d="M298.463 104.999c-13.493-3.855-23.386-16.271-23.386-31.011s9.893-27.156 23.386-31.011c13.493 3.855 23.386 16.271 23.386 31.011s-9.893 27.156-23.386 31.011z" opacity="1" data-original="#85caff"></path><path fill="#4eb1fc" d="M304.699 405.783c17.83 0 32.258 14.428 32.258 32.23s-14.428 32.258-32.258 32.258-32.23-14.429-32.23-32.258 14.429-32.23 32.23-32.23z" opacity="1" data-original="#4eb1fc"></path><path fill="#85caff" d="M295.827 469.023c-13.493-3.855-23.358-16.271-23.358-31.011s9.865-27.156 23.358-31.011c13.521 3.855 23.386 16.271 23.386 31.011s-9.865 27.156-23.386 31.011z" opacity="1" data-original="#85caff"></path><path fill="#4eb1fc" d="M211.949 397.987c17.83 0 32.258 14.457 32.258 32.258s-14.428 32.258-32.258 32.258-32.23-14.457-32.23-32.258 14.428-32.258 32.23-32.258z" opacity="1" data-original="#4eb1fc"></path><path fill="#85caff" d="M203.105 461.257c-13.521-3.855-23.386-16.271-23.386-31.011s9.865-27.156 23.386-31.011c13.493 3.855 23.357 16.271 23.357 31.011s-9.864 27.156-23.357 31.011z" opacity="1" data-original="#85caff"></path><path fill="#4eb1fc" d="M234.938 316.463c14.57 0 26.362 11.82 26.362 26.391s-11.792 26.391-26.362 26.391-26.39-11.821-26.39-26.391 11.82-26.391 26.39-26.391z" opacity="1" data-original="#4eb1fc"></path><path fill="#85caff" d="M227.682 368.224c-11.055-3.146-19.134-13.323-19.134-25.37s8.079-22.224 19.134-25.37c11.027 3.146 19.105 13.323 19.105 25.37s-8.079 22.224-19.105 25.37z" opacity="1" data-original="#85caff"></path><path fill="#4eb1fc" d="M234.882 143.748c14.57 0 26.362 11.82 26.362 26.391s-11.792 26.391-26.362 26.391-26.39-11.821-26.39-26.391 11.82-26.391 26.39-26.391z" opacity="1" data-original="#4eb1fc"></path><path fill="#85caff" d="M227.625 195.509c-11.055-3.146-19.134-13.323-19.134-25.37s8.079-22.224 19.134-25.37c11.027 3.146 19.134 13.323 19.134 25.37s-8.107 22.224-19.134 25.37z" opacity="1" data-original="#85caff"></path><path fill="#f9ac00" d="M405.102 161.975a95.935 95.935 0 0 1 33.732 13.975c1.247.822 2.863.652 3.94-.397l7.88-7.88c1.502-1.531 3.855-1.644 5.527-.34a114.231 114.231 0 0 1 18.681 18.681c1.332 1.672 1.19 4.025-.312 5.556l-7.88 7.88a3.062 3.062 0 0 0-.397 3.94 96.648 96.648 0 0 1 13.975 33.704c.283 1.474 1.559 2.495 3.062 2.495h11.14a4.15 4.15 0 0 1 4.139 3.713c.51 4.309.765 8.73.765 13.181 0 4.479-.255 8.901-.765 13.209a4.15 4.15 0 0 1-4.139 3.713h-11.14c-1.502 0-2.778 1.021-3.062 2.494a96.648 96.648 0 0 1-13.975 33.704 3.061 3.061 0 0 0 .397 3.94l7.88 7.88c1.502 1.531 1.644 3.884.312 5.556a114.108 114.108 0 0 1-18.681 18.68c-1.672 1.304-4.025 1.19-5.527-.34l-7.88-7.88c-1.077-1.049-2.693-1.219-3.94-.397a95.943 95.943 0 0 1-33.732 13.975c-1.474.312-2.495 1.559-2.495 3.062v11.168a4.169 4.169 0 0 1-3.685 4.139c-4.337.51-8.73.765-13.209.765s-8.872-.255-13.209-.765a4.146 4.146 0 0 1-3.685-4.139v-11.168c0-1.502-1.049-2.75-2.494-3.062a95.917 95.917 0 0 1-33.732-13.975c-1.247-.822-2.863-.652-3.94.397l-7.88 7.88a4.136 4.136 0 0 1-5.528.34 114.18 114.18 0 0 1-18.68-18.68 4.167 4.167 0 0 1 .312-5.556l7.88-7.88c1.077-1.049 1.219-2.665.397-3.94a96.296 96.296 0 0 1-13.975-33.846c-.284-1.474-1.559-2.494-3.062-2.494h-11.14a4.197 4.197 0 0 1-4.167-3.686 116.935 116.935 0 0 1-.737-13.096c0-4.451.255-8.873.737-13.181a4.197 4.197 0 0 1 4.167-3.713h11.14c1.502 0 2.778-1.021 3.062-2.495a95.564 95.564 0 0 1 13.975-33.704c.822-1.247.68-2.891-.397-3.94l-7.88-7.88c-1.502-1.531-1.644-3.883-.312-5.556a114.186 114.186 0 0 1 18.68-18.681 4.136 4.136 0 0 1 5.528.34l7.88 7.88c1.077 1.049 2.693 1.219 3.94.397a96.023 96.023 0 0 1 33.704-13.975c1.474-.312 2.522-1.559 2.522-3.062v-11.168a4.145 4.145 0 0 1 3.685-4.138c4.337-.51 8.731-.766 13.209-.766s8.873.255 13.209.766a4.168 4.168 0 0 1 3.685 4.138v11.168c0 1.502 1.021 2.75 2.495 3.062zm-19.389 39.515c30.388 0 55.021 24.633 55.021 54.992s-24.633 55.021-55.021 55.021-55.021-24.633-55.021-55.021 24.633-54.992 55.021-54.992z" opacity="1" data-original="#f9ac00"></path><path fill="#fcdb35" d="M439.515 176.29a3.119 3.119 0 0 0 3.26-.737l5.528-5.556c.68.114 1.332.397 1.899.851a114.14 114.14 0 0 1 18.68 18.68c1.304 1.644 1.163 4.025-.34 5.528l-7.88 7.88a3.1 3.1 0 0 0-.397 3.94 95.943 95.943 0 0 1 13.975 33.732 3.103 3.103 0 0 0 3.061 2.494h11.168a4.146 4.146 0 0 1 4.139 3.685c.482 4.337.766 8.731.766 13.209s-.284 8.873-.766 13.209c-.028.057-.028.114-.028.199h-9.269c-1.502 0-2.778 1.021-3.062 2.494-.085.34-.142.652-.227.992h-2.721c-1.502 0-2.75 1.021-3.061 2.495a95.935 95.935 0 0 1-13.975 33.732 3.1 3.1 0 0 0 .397 3.94l7.88 7.88a4.164 4.164 0 0 1 .34 5.528 112.5 112.5 0 0 1-15.534 16.072 4.023 4.023 0 0 1-2.693-1.219l-7.88-7.88c-1.077-1.049-2.693-1.219-3.94-.397-1.616 1.077-3.26 2.069-4.933 3.062-.368.057-.737.227-1.077.454l-1.616 1.021c-8.079 4.337-16.838 7.568-26.107 9.439a3.131 3.131 0 0 0-2.466 2.722c-1.162.283-2.353.539-3.515.793a3.102 3.102 0 0 0-2.523 3.062v11.14c0 .312-.028.624-.085.907-3.543.34-7.172.51-10.8.51-4.479 0-8.872-.255-13.209-.765a4.146 4.146 0 0 1-3.685-4.139v-11.168c0-1.502-1.049-2.75-2.494-3.062a95.917 95.917 0 0 1-33.732-13.975c-1.247-.822-2.863-.652-3.94.397l-2.75 2.75a3.071 3.071 0 0 0-3.231.765l-5.556 5.556c-.681-.142-1.304-.397-1.871-.851a114.18 114.18 0 0 1-18.68-18.68 4.167 4.167 0 0 1 .312-5.556l7.88-7.88c1.077-1.049 1.219-2.665.397-3.94a96.296 96.296 0 0 1-13.975-33.846c-.284-1.474-1.559-2.494-3.062-2.494h-11.14a4.197 4.197 0 0 1-4.167-3.686 116.935 116.935 0 0 1-.737-13.096c0-4.451.255-8.873.737-13.181.028-.085.028-.142.028-.199h9.27a3.103 3.103 0 0 0 3.061-2.494c.085-.34.142-.681.227-1.021h2.721c1.502 0 2.778-1.021 3.062-2.495a95.564 95.564 0 0 1 13.975-33.704c.822-1.247.68-2.891-.397-3.94l-7.88-7.88c-1.502-1.531-1.644-3.883-.312-5.556a113.9 113.9 0 0 1 15.505-16.073 4.023 4.023 0 0 1 2.693 1.219l7.909 7.88c1.049 1.078 2.665 1.219 3.912.397a109.854 109.854 0 0 1 4.932-3.033 3.248 3.248 0 0 0 1.077-.453 50.868 50.868 0 0 1 1.616-1.049 95.705 95.705 0 0 1 26.107-9.439c1.361-.284 2.325-1.361 2.466-2.693 1.19-.284 2.353-.567 3.515-.794 1.474-.312 2.522-1.559 2.522-3.062v-11.168c0-.312.028-.595.085-.878 3.571-.34 7.171-.51 10.8-.51 4.479 0 8.873.255 13.209.737a4.173 4.173 0 0 1 3.685 4.167v11.14a3.103 3.103 0 0 0 2.523 3.062 95.582 95.582 0 0 1 33.704 13.975c1.248.851 2.863.681 3.94-.397l2.75-2.75zm-29.168 129.402c-8.759 5.896-19.304 9.326-30.643 9.326-30.387 0-54.992-24.633-54.992-55.021 0-21.515 12.359-40.167 30.359-49.209a54.884 54.884 0 0 1 30.643-9.297c30.388 0 55.021 24.633 55.021 54.992 0 21.543-12.387 40.167-30.387 49.209z" opacity="1" data-original="#fcdb35"></path><path fill="#f9ac00" d="M129.886 173.2c10.771 2.211 20.806 6.463 29.707 12.331a2.753 2.753 0 0 0 3.458-.369l6.945-6.945a3.65 3.65 0 0 1 4.875-.284c6.123 4.848 11.622 10.375 16.469 16.469a3.652 3.652 0 0 1-.283 4.876l-6.945 6.945a2.788 2.788 0 0 0-.368 3.486 84.623 84.623 0 0 1 12.331 29.679 2.71 2.71 0 0 0 2.693 2.211h9.836a3.68 3.68 0 0 1 3.657 3.26c.425 3.827.652 7.71.652 11.622 0 3.94-.227 7.824-.652 11.65a3.68 3.68 0 0 1-3.657 3.26h-9.836a2.71 2.71 0 0 0-2.693 2.211 84.63 84.63 0 0 1-12.331 29.679 2.79 2.79 0 0 0 .368 3.487l6.945 6.945a3.65 3.65 0 0 1 .283 4.875c-4.847 6.095-10.346 11.622-16.469 16.469a3.65 3.65 0 0 1-4.875-.283l-6.945-6.945a2.75 2.75 0 0 0-3.458-.369c-8.901 5.868-18.936 10.12-29.707 12.331a2.71 2.71 0 0 0-2.211 2.693v9.836a3.63 3.63 0 0 1-3.26 3.628c-3.827.454-7.71.68-11.622.68a99.01 99.01 0 0 1-11.65-.68 3.632 3.632 0 0 1-3.26-3.628v-9.836c0-1.332-.907-2.438-2.183-2.693a84.542 84.542 0 0 1-29.707-12.331 2.788 2.788 0 0 0-3.486.369l-6.945 6.945a3.652 3.652 0 0 1-4.876.283 102.863 102.863 0 0 1-16.469-16.469 3.65 3.65 0 0 1 .284-4.875l6.945-6.945c.936-.936 1.105-2.381.369-3.458a85.459 85.459 0 0 1-12.331-29.849c-.255-1.276-1.36-2.183-2.693-2.183h-9.836a3.63 3.63 0 0 1-3.628-3.26 96.205 96.205 0 0 1-.68-11.537 98.9 98.9 0 0 1 .68-11.622 3.63 3.63 0 0 1 3.628-3.26h9.836a2.71 2.71 0 0 0 2.693-2.211 84.615 84.615 0 0 1 12.331-29.679c.737-1.105.567-2.551-.369-3.486l-6.945-6.945a3.65 3.65 0 0 1-.284-4.876 102.863 102.863 0 0 1 16.469-16.469 3.65 3.65 0 0 1 4.876.284l6.945 6.945a2.788 2.788 0 0 0 3.486.369A84.542 84.542 0 0 1 95.7 173.2c1.276-.255 2.183-1.36 2.183-2.693v-9.836a3.63 3.63 0 0 1 3.26-3.628c3.827-.454 7.71-.68 11.65-.68a98.9 98.9 0 0 1 11.622.68 3.63 3.63 0 0 1 3.26 3.628v9.836a2.71 2.71 0 0 0 2.211 2.693zm-17.093 34.838c26.759 0 48.472 21.685 48.472 48.444s-21.713 48.472-48.472 48.472-48.473-21.685-48.473-48.472 21.685-48.444 48.473-48.444z" opacity="1" data-original="#f9ac00"></path><path fill="#fcdb35" d="M161.833 185.899c.454-.142.879-.368 1.219-.737l3.827-3.798c1.134-.425 2.466-.227 3.515.567a101.555 101.555 0 0 1 16.441 16.469 3.65 3.65 0 0 1-.284 4.875l-6.945 6.945a2.748 2.748 0 0 0-.34 3.487 85.054 85.054 0 0 1 12.303 29.707c.255 1.276 1.389 2.183 2.693 2.183h9.836a3.68 3.68 0 0 1 3.657 3.26c.425 3.827.652 7.71.652 11.65 0 3.657-.198 7.313-.567 10.885h-9.071a2.71 2.71 0 0 0-2.693 2.211c-.142.595-.255 1.19-.397 1.786h-1.417a2.732 2.732 0 0 0-2.693 2.211 84.936 84.936 0 0 1-12.303 29.707 2.71 2.71 0 0 0 .34 3.458l6.945 6.945a3.65 3.65 0 0 1 .284 4.876 98.045 98.045 0 0 1-9.836 10.743c-.708.567-1.389 1.162-2.126 1.729a3.65 3.65 0 0 1-4.875-.283l-6.945-6.945a2.75 2.75 0 0 0-3.458-.369c-8.901 5.868-18.936 10.12-29.707 12.331a2.71 2.71 0 0 0-2.211 2.693v.794l-2.296.51a2.71 2.71 0 0 0-2.211 2.693v9.609a96.53 96.53 0 0 1-10.375.539 99.01 99.01 0 0 1-11.65-.68 3.632 3.632 0 0 1-3.26-3.628v-9.836c0-1.332-.907-2.438-2.183-2.693a84.542 84.542 0 0 1-29.707-12.331 2.788 2.788 0 0 0-3.486.369l-3.288 3.288c-.425.113-.851.34-1.219.708l-3.798 3.798a3.676 3.676 0 0 1-3.515-.567 102.863 102.863 0 0 1-16.469-16.469 3.65 3.65 0 0 1 .284-4.875l6.945-6.945c.936-.936 1.105-2.381.369-3.458a85.543 85.543 0 0 1-12.331-29.82 2.71 2.71 0 0 0-2.693-2.211h-9.836a3.63 3.63 0 0 1-3.628-3.26 96.205 96.205 0 0 1-.68-11.537c0-3.657.198-7.285.595-10.885h9.042a2.766 2.766 0 0 0 2.721-2.183c.113-.624.227-1.219.369-1.814h1.417a2.71 2.71 0 0 0 2.693-2.211 84.615 84.615 0 0 1 12.331-29.679c.737-1.105.567-2.551-.369-3.486l-6.945-6.945a3.65 3.65 0 0 1-.284-4.876 103.976 103.976 0 0 1 9.836-10.743c.708-.567 1.417-1.162 2.126-1.729 1.474-1.162 3.572-1.049 4.875.283l6.945 6.945c.936.935 2.381 1.105 3.487.368a84.542 84.542 0 0 1 29.707-12.331 2.71 2.71 0 0 0 2.211-2.693v-.794c.737-.17 1.502-.34 2.296-.51 1.276-.255 2.183-1.36 2.183-2.693v-9.609a97.066 97.066 0 0 1 10.403-.539c3.94 0 7.824.227 11.622.68a3.632 3.632 0 0 1 3.26 3.628v9.836a2.71 2.71 0 0 0 2.211 2.693 84.768 84.768 0 0 1 29.707 12.331c1.105.737 2.522.567 3.458-.368l3.288-3.26zm-19.19 108.766c-8.759 8.844-20.919 14.315-34.356 14.315-26.787 0-48.472-21.713-48.472-48.473 0-15.505 7.285-29.31 18.595-38.183 8.787-8.844 20.948-14.287 34.384-14.287 26.759 0 48.444 21.685 48.444 48.444 0 15.505-7.256 29.31-18.595 38.183z" opacity="1" data-original="#fcdb35"></path><path fill="#fe5471" d="m19.364 95.786 24.888 23.357L69.14 142.5v-23.753h73.02v-45.95H69.14V49.042L44.252 72.4z" opacity="1" data-original="#fe5471"></path><path fill="#ff6b84" d="M69.14 126.797v-19.049H142.16V72.797H69.14V49.042L44.252 72.4 27.726 87.934l21.543 20.211z" opacity="1" data-original="#ff6b84"></path><path fill="#fe5471" d="M142.16 416.243 117.272 439.6l-24.888 23.358v-23.755h-73.02v-45.95h73.02v-23.754l24.888 23.386z" opacity="1" data-original="#fe5471"></path><path fill="#ff6b84" d="M92.384 447.282V428.205H19.364v-34.952h73.02v-23.754l24.888 23.386 16.526 15.506-21.515 20.211z" opacity="1" data-original="#ff6b84"></path></g></g></svg>