<svg xmlns="http://www.w3.org/2000/svg" version="1.1" xmlns:xlink="http://www.w3.org/1999/xlink" width="512" height="512" x="0" y="0" viewBox="0 0 510 510" style="enable-background:new 0 0 512 512" xml:space="preserve" class=""><circle r="255" cx="255" cy="255" fill="#ffffff" shape="circle"></circle><g transform="matrix(0.69,0,0,0.69,79.049999704361,79.04984390258792)"><linearGradient id="a"><stop offset="0" stop-color="#bbec6c"></stop><stop offset="1" stop-color="#81b823"></stop></linearGradient><linearGradient xlink:href="#a" id="h" x1="-911.643" x2="-911.643" y1="-950.633" y2="-922.813" gradientTransform="rotate(90 -747.558 255.58)" gradientUnits="userSpaceOnUse"></linearGradient><linearGradient xlink:href="#a" id="i" x1="-911.643" x2="-911.643" y1="-992.878" y2="-958.173" gradientTransform="rotate(90 -747.558 255.58)" gradientUnits="userSpaceOnUse"></linearGradient><linearGradient xlink:href="#a" id="j" x1="-911.643" x2="-911.643" y1="-674.485" y2="-646.665" gradientTransform="matrix(0 1 1 0 882.539 1003.138)" gradientUnits="userSpaceOnUse"></linearGradient><linearGradient xlink:href="#a" id="k" x1="-911.643" x2="-911.643" y1="-716.73" y2="-682.025" gradientTransform="matrix(0 1 1 0 882.539 1003.138)" gradientUnits="userSpaceOnUse"></linearGradient><linearGradient id="l" x1="282.697" x2="359.47" y1="189.93" y2="340.444" gradientUnits="userSpaceOnUse"><stop offset="0" stop-color="#eaf6ff"></stop><stop offset="1" stop-color="#b3dafe"></stop></linearGradient><linearGradient id="b"><stop offset="0" stop-color="#7bacdf" stop-opacity="0"></stop><stop offset="1" stop-color="#7bacdf"></stop></linearGradient><linearGradient xlink:href="#b" id="m" x1="331.314" x2="516.511" y1="368.927" y2="111.672" gradientUnits="userSpaceOnUse"></linearGradient><linearGradient xlink:href="#b" id="n" x1="315.032" x2="457.128" y1="438.465" y2="162.354" gradientUnits="userSpaceOnUse"></linearGradient><linearGradient xlink:href="#b" id="o" x1="317.455" x2="440.022" y1="441.972" y2="279.673" gradientUnits="userSpaceOnUse"></linearGradient><linearGradient xlink:href="#b" id="p" x1="473.511" x2="517.999" y1="317.43" y2="317.43" gradientUnits="userSpaceOnUse"></linearGradient><linearGradient xlink:href="#b" id="q" x1="278.595" x2="67.549" y1="333.869" y2="333.869" gradientUnits="userSpaceOnUse"></linearGradient><linearGradient id="c"><stop offset="0" stop-color="#5a5a5a"></stop><stop offset="1" stop-color="#444"></stop></linearGradient><linearGradient xlink:href="#c" id="r" x1="352.183" x2="352.183" y1="417.896" y2="436.093" gradientUnits="userSpaceOnUse"></linearGradient><linearGradient id="d"><stop offset="0" stop-color="#fee45a"></stop><stop offset="1" stop-color="#fea613"></stop></linearGradient><linearGradient xlink:href="#d" id="s" x1="49.713" x2="167.454" y1="275.927" y2="406.824" gradientUnits="userSpaceOnUse"></linearGradient><linearGradient id="e"><stop offset="0" stop-color="#fea613" stop-opacity="0"></stop><stop offset="1" stop-color="#e94444"></stop></linearGradient><linearGradient xlink:href="#e" id="t" x1="167.216" x2="208.888" y1="329.084" y2="329.084" gradientUnits="userSpaceOnUse"></linearGradient><linearGradient xlink:href="#e" id="u" x1="98.192" x2="98.192" y1="408.487" y2="455.546" gradientUnits="userSpaceOnUse"></linearGradient><linearGradient id="v" x1="76.585" x2="132.527" y1="259.602" y2="315.544" gradientUnits="userSpaceOnUse"><stop offset="0" stop-color="#b3dafe"></stop><stop offset="1" stop-color="#0182fc"></stop></linearGradient><linearGradient xlink:href="#d" id="w" x1="138.147" x2="110.951" y1="363.958" y2="336.763" gradientUnits="userSpaceOnUse"></linearGradient><linearGradient xlink:href="#c" id="x" x1="443.11" x2="779.039" y1="2568.389" y2="2905.16" gradientTransform="rotate(90 1672.22 1300.095)" gradientUnits="userSpaceOnUse"></linearGradient><linearGradient xlink:href="#c" id="y" x1="4.22" x2="15.646" y1="408.516" y2="421.118" gradientUnits="userSpaceOnUse"></linearGradient><linearGradient xlink:href="#c" id="z" x1="35.118" x2="43.412" y1="305.113" y2="314.26" gradientUnits="userSpaceOnUse"></linearGradient><linearGradient xlink:href="#c" id="A" x1="89.721" x2="143.533" y1="427.003" y2="480.814" gradientUnits="userSpaceOnUse"></linearGradient><linearGradient xlink:href="#c" id="B" x1="143.491" x2="89.529" y1="480.772" y2="426.81" gradientUnits="userSpaceOnUse"></linearGradient><linearGradient id="f"><stop offset="0" stop-color="#eaf9fa"></stop><stop offset="1" stop-color="#b3dafe"></stop></linearGradient><linearGradient xlink:href="#f" id="C" x1="102.461" x2="125.099" y1="439.743" y2="462.38" gradientUnits="userSpaceOnUse"></linearGradient><linearGradient xlink:href="#c" id="D" x1="419.734" x2="473.545" y1="427.003" y2="480.814" gradientUnits="userSpaceOnUse"></linearGradient><linearGradient xlink:href="#c" id="E" x1="473.504" x2="419.542" y1="480.772" y2="426.81" gradientUnits="userSpaceOnUse"></linearGradient><linearGradient xlink:href="#f" id="F" x1="432.474" x2="455.112" y1="439.743" y2="462.38" gradientUnits="userSpaceOnUse"></linearGradient><linearGradient xlink:href="#b" id="G" x1="440.82" x2="360.676" y1="237.877" y2="157.732" gradientUnits="userSpaceOnUse"></linearGradient><linearGradient id="g"><stop offset="0" stop-color="#fd4755"></stop><stop offset="1" stop-color="#a72b2b"></stop></linearGradient><linearGradient xlink:href="#g" id="H" x1="280.393" x2="384.814" y1="51.766" y2="156.187" gradientUnits="userSpaceOnUse"></linearGradient><linearGradient xlink:href="#g" id="I" x1="369.593" x2="297.017" y1="127.734" y2="55.158" gradientUnits="userSpaceOnUse"></linearGradient><path fill="url(#h)" d="M450.892 128.986c7.185-11.183 10.983-24.147 10.983-37.492s-3.798-26.309-10.982-37.492a9.176 9.176 0 0 0-15.439 9.919c5.28 8.218 8.071 17.753 8.071 27.573s-2.791 19.355-8.071 27.573a9.132 9.132 0 0 0-1.457 4.951 9.167 9.167 0 0 0 4.217 7.728c4.263 2.739 9.94 1.504 12.678-2.76z" opacity="1" data-original="url(#h)"></path><path fill="url(#i)" d="M484.728 151.352c11.577-17.824 17.696-38.522 17.696-59.857s-6.119-42.033-17.696-59.857c-3.549-5.464-10.855-7.016-16.319-3.468-5.464 3.549-7.016 10.856-3.467 16.319 9.086 13.989 13.888 30.243 13.888 47.006 0 16.762-4.803 33.017-13.888 47.006a11.742 11.742 0 0 0-1.905 6.414c0 3.861 1.893 7.645 5.372 9.904 5.465 3.549 12.771 1.996 16.319-3.467z" opacity="1" data-original="url(#i)"></path><path fill="url(#j)" d="M215.815 128.986c-7.185-11.183-10.983-24.147-10.983-37.492s3.798-26.309 10.982-37.492a9.176 9.176 0 0 1 15.439 9.919c-5.28 8.218-8.071 17.753-8.071 27.573s2.791 19.355 8.071 27.573a9.132 9.132 0 0 1 1.457 4.951 9.167 9.167 0 0 1-4.217 7.728 9.174 9.174 0 0 1-12.678-2.76z" opacity="1" data-original="url(#j)"></path><path fill="url(#k)" d="M181.979 151.352c-11.577-17.824-17.696-38.522-17.696-59.857s6.119-42.033 17.696-59.857c3.549-5.464 10.855-7.016 16.319-3.468 5.464 3.549 7.016 10.856 3.467 16.319-9.086 13.989-13.888 30.243-13.888 47.006 0 16.762 4.803 33.017 13.888 47.006a11.742 11.742 0 0 1 1.905 6.414c0 3.861-1.893 7.645-5.373 9.904-5.463 3.549-12.769 1.996-16.318-3.467z" opacity="1" data-original="url(#k)"></path><path fill="url(#l)" d="M496.869 443.484H190.547V212.055c0-11.421 9.259-20.68 20.68-20.68h285.642c7.252 0 13.13 5.879 13.13 13.13v225.849c0 7.251-5.879 13.13-13.13 13.13z" opacity="1" data-original="url(#l)"></path><path fill="url(#m)" d="M510 250.593v179.759c0 7.253-5.879 13.132-13.132 13.132H190.546V250.593z" opacity="1" data-original="url(#m)"></path><path fill="url(#n)" d="M510 306.435v123.917c0 7.253-5.879 13.132-13.132 13.132H190.546V306.435z" opacity="1" data-original="url(#n)"></path><path fill="url(#o)" d="M496.868 443.484H190.546v-81.207H510v68.075c0 7.253-5.879 13.132-13.132 13.132z" opacity="1" data-original="url(#o)"></path><path fill="url(#p)" d="M496.869 191.375h-77.127v252.109h77.127c7.252 0 13.13-5.879 13.13-13.13V204.505c0-7.251-5.879-13.13-13.13-13.13z" opacity="1" data-original="url(#p)"></path><path fill="url(#q)" d="M190.547 224.253v219.231h219.231z" opacity="1" data-original="url(#q)"></path><path fill="url(#r)" d="M194.367 415.88v27.604h302.501c7.252 0 13.13-5.879 13.13-13.13V415.88z" opacity="1" data-original="url(#r)"></path><path fill="url(#s)" d="M172.293 214.684h-56.562a67.06 67.06 0 0 0-57.044 31.805l-27.205 44.022a67.755 67.755 0 0 0-9.357 25.496c-1.037 6.865-4.507 13.127-9.922 17.473a27.232 27.232 0 0 0-10.187 21.238v69.088c0 10.867 8.81 19.677 19.677 19.677h172.675V236.759c-.001-12.191-9.884-22.075-22.075-22.075z" opacity="1" data-original="url(#s)"></path><path fill="url(#t)" d="M172.293 214.685h-31.132v228.799h53.206V236.759c0-12.192-9.883-22.074-22.074-22.074z" opacity="1" data-original="url(#t)"></path><path fill="url(#u)" d="M2.017 369.833v53.974c0 10.867 8.81 19.677 19.677 19.677h172.674v-73.651z" opacity="1" data-original="url(#u)"></path><path fill="url(#v)" d="M132.138 321.599c11.764 0 21.3-9.536 21.3-21.3V256.12c0-11.764-9.536-21.3-21.3-21.3h-25.59a34.93 34.93 0 0 0-29.716 16.569l-24.177 39.123a67.708 67.708 0 0 0-8.28 19.957c-1.348 5.678 2.959 11.131 8.795 11.131h78.968z" opacity="1" data-original="url(#v)"></path><path fill="url(#w)" d="M139.229 362.698h-30.057a8.16 8.16 0 0 1-8.16-8.16v-9.054a8.16 8.16 0 0 1 8.16-8.16h30.057a8.16 8.16 0 0 1 8.16 8.16v9.054a8.16 8.16 0 0 1-8.16 8.16z" opacity="1" data-original="url(#w)"></path><path fill="url(#x)" d="M141.161 350.012a8.206 8.206 0 0 0-8.207-8.207h-17.508a8.207 8.207 0 0 0 0 16.414h17.508a8.207 8.207 0 0 0 8.207-8.207z" opacity="1" data-original="url(#x)"></path><path fill="url(#y)" d="M12.751 450.546h10.143a8.888 8.888 0 0 0 8.888-8.888v-38.165a8.888 8.888 0 0 0-8.888-8.888H12.751C5.709 394.605 0 400.314 0 407.356v30.438c0 7.043 5.709 12.752 12.751 12.752z" opacity="1" data-original="url(#y)"></path><path fill="url(#z)" d="M45.041 337.326c6.067 0 10.986-4.918 10.986-10.986v-22.052c0-6.067-4.918-10.986-10.986-10.986-7.746 0-14.026 6.28-14.026 14.026v15.971c0 7.747 6.279 14.027 14.026 14.027z" opacity="1" data-original="url(#z)"></path><circle cx="112.774" cy="450.055" r="55.45" fill="url(#A)" opacity="1" data-original="url(#A)"></circle><circle cx="112.774" cy="450.055" r="38.963" fill="url(#B)" opacity="1" data-original="url(#B)"></circle><circle cx="112.774" cy="450.055" r="23.289" fill="url(#C)" opacity="1" data-original="url(#C)"></circle><circle cx="442.786" cy="450.055" r="55.45" fill="url(#D)" opacity="1" data-original="url(#D)"></circle><circle cx="442.786" cy="450.055" r="38.963" fill="url(#E)" opacity="1" data-original="url(#E)"></circle><circle cx="442.786" cy="450.055" r="23.289" fill="url(#F)" opacity="1" data-original="url(#F)"></circle><path fill="url(#G)" d="M496.869 191.375H324.701v38.371l185.298 185.298V204.505c0-7.251-5.879-13.13-13.13-13.13z" opacity="1" data-original="url(#G)"></path><path fill="url(#H)" d="m344.51 227.157 59.549-90.226c37.472-56.776-3.246-132.437-71.273-132.437s-108.745 75.661-71.273 132.437l59.549 90.226c5.552 8.413 17.896 8.413 23.448 0z" opacity="1" data-original="url(#H)"></path><circle cx="333.354" cy="91.495" r="57.854" fill="url(#I)" opacity="1" data-original="url(#I)"></circle></g></svg>