<svg xmlns="http://www.w3.org/2000/svg" version="1.1" xmlns:xlink="http://www.w3.org/1999/xlink" width="512" height="512" x="0" y="0" viewBox="0 0 512 512" style="enable-background:new 0 0 512 512" xml:space="preserve" class=""><g><path d="M376 91H136c-24.813 0-45 20.188-45 45v240c0 24.813 20.188 45 45 45h240c24.813 0 45-20.188 45-45V136c0-24.813-20.188-45-45-45zM256 361c-57.89 0-105-47.11-105-105s47.11-105 105-105 105 47.11 105 105-47.11 105-105 105zm105-180c-16.54 0-30-13.46-30-30s13.46-30 30-30 30 13.46 30 30-13.46 30-30 30zm0 0" fill="#0e7e99" opacity="1" data-original="#000000" class=""></path><path d="M256 181c-41.352 0-75 33.648-75 75s33.648 75 75 75 75-33.648 75-75-33.648-75-75-75zm0 0" fill="#0e7e99" opacity="1" data-original="#000000" class=""></path><path d="M436 0H76C34.648 0 0 34.648 0 76v360c0 41.352 34.648 76 76 76h360c41.352 0 76-34.648 76-76V76c0-41.352-34.648-76-76-76zm15 376c0 41.352-33.648 75-75 75H136c-41.352 0-75-33.648-75-75V136c0-41.352 33.648-75 75-75h240c41.352 0 75 33.648 75 75zm0 0" fill="#0e7e99" opacity="1" data-original="#000000" class=""></path></g></svg>