<svg xmlns="http://www.w3.org/2000/svg" version="1.1" xmlns:xlink="http://www.w3.org/1999/xlink" width="512" height="512" x="0" y="0" viewBox="0 0 176 176" style="enable-background:new 0 0 512 512" xml:space="preserve" class=""><g><g data-name="Layer 2"><g data-name="02.youtube"><path d="M74.84 66.92 109.16 88c-11.57 7.1-22.8 14-34.32 21.07z" fill="#0e7e99" opacity="1" data-original="#000000" class=""></path><path d="M159.67 0H16.33A16.33 16.33 0 0 0 0 16.33v143.34A16.33 16.33 0 0 0 16.33 176h143.34A16.33 16.33 0 0 0 176 159.67V16.33A16.33 16.33 0 0 0 159.67 0zm-19.24 114.47c-2.2 6.76-9.48 10.87-16.18 11.81a343.16 343.16 0 0 1-72.5 0c-6.7-.94-14-5-16.18-11.81a137.42 137.42 0 0 1 0-52.93c2.2-6.77 9.48-10.87 16.18-11.81a343.16 343.16 0 0 1 72.5 0c6.7.94 14 5 16.18 11.81a137.42 137.42 0 0 1 0 52.93z" fill="#0e7e99" opacity="1" data-original="#000000" class=""></path></g></g></g></svg>