<svg xmlns="http://www.w3.org/2000/svg" version="1.1" xmlns:xlink="http://www.w3.org/1999/xlink" width="512" height="512" x="0" y="0" viewBox="0 0 512 512" style="enable-background:new 0 0 512 512" xml:space="preserve"><circle r="256" cx="256" cy="256" fill="#ffffff" shape="circle"></circle><g transform="matrix(0.7499999999999999,0,0,0.7499999999999999,63.99995684623718,64.00000548362738)"><g fill-rule="evenodd" clip-rule="evenodd"><path fill="#a79ba7" d="M34.173 343.093H64.34c5.508 0 10 4.492 10 10v76.245c0 5.508-4.492 10-10 10H34.173c-5.508 0-10-4.492-10-10v-76.245c0-5.508 4.492-10 10-10z" opacity="1" data-original="#a79ba7"></path><path fill="#837683" d="M49.185 343.093H64.34c5.508 0 10 4.492 10 10v76.245c0 5.508-4.492 10-10 10H49.185c5.508 0 10-4.492 10-10v-76.245c0-5.508-4.492-10-10-10z" opacity="1" data-original="#837683"></path><path fill="#fe646f" d="M157.495 292.667h-30.169c-5.508 0-10 4.492-10 10v126.671c0 5.508 4.492 10 10 10h30.169c5.508 0 10-4.492 10-10V302.667c0-5.508-4.492-10-10-10z" opacity="1" data-original="#fe646f"></path><path fill="#fd4755" d="M157.495 292.667H142.34c5.508 0 10 4.492 10 10v126.671c0 5.508-4.492 10-10 10h15.155c5.508 0 10-4.492 10-10V302.667c0-5.508-4.492-10-10-10z" opacity="1" data-original="#fd4755"></path><path fill="#ffe177" d="M250.649 240.012h-30.168c-5.508 0-10 4.492-10 9.999v179.326c0 5.508 4.492 10 10 10h30.168c5.508 0 10-4.492 10-10V250.012c-.001-5.508-4.493-10-10-10z" opacity="1" data-original="#ffe177"></path><path fill="#ffd064" d="M250.649 240.012h-15.155c5.508 0 10 4.492 10 9.999v179.326c0 5.508-4.492 10-10 10h15.155c5.508 0 10-4.492 10-10V250.012c-.001-5.508-4.493-10-10-10z" opacity="1" data-original="#ffd064"></path><path fill="#6cf5c2" d="M313.632 192.645H343.8c5.508 0 10 4.492 10 10v226.693c0 5.508-4.492 10-10 10h-30.168c-5.508 0-10-4.492-10-10V202.645c0-5.508 4.492-10 10-10z" opacity="1" data-original="#6cf5c2"></path><path fill="#00e499" d="M328.645 192.645H343.8c5.508 0 10 4.492 10 10v226.693c0 5.508-4.492 10-10 10h-15.155c5.508 0 10-4.492 10-10V202.645c0-5.508-4.492-10-10-10z" opacity="1" data-original="#00e499"></path><path fill="#8ac9fe" d="M436.952 145.278h-30.168c-5.508 0-10 4.492-10 10v281.03c0 5.508 4.492 10 10 10h30.168c5.508 0 10-4.492 10-10v-281.03c-.001-5.508-4.493-10-10-10z" opacity="1" data-original="#8ac9fe"></path><path fill="#60b7ff" d="M436.952 145.278h-15.155c5.508 0 10 4.492 10 10v281.03c0 5.508-4.492 10-10 10h15.155c5.508 0 10-4.492 10-10v-281.03c-.001-5.508-4.493-10-10-10z" opacity="1" data-original="#60b7ff"></path><path fill="#ffe177" d="M423.951 17.429 434.647 45.6a2.187 2.187 0 0 0 1.975 1.435l30.097 1.467c2.047.1 2.885 2.679 1.288 3.962L444.52 71.342a2.186 2.186 0 0 0-.754 2.321l7.905 29.077c.538 1.977-1.656 3.571-3.37 2.449l-25.212-16.504a2.188 2.188 0 0 0-2.441 0l-25.211 16.504c-1.715 1.123-3.908-.471-3.37-2.449l7.905-29.078a2.186 2.186 0 0 0-.754-2.321l-23.487-18.878c-1.597-1.284-.759-3.862 1.288-3.962l30.097-1.467a2.188 2.188 0 0 0 1.975-1.435l10.696-28.171c.721-1.904 3.441-1.904 4.164.001z" opacity="1" data-original="#ffe177"></path><path fill="#ffd064" d="m423.951 17.429 3.26 8.587-7.234 19.053a2.188 2.188 0 0 1-1.975 1.435l-30.098 1.467c-2.047.1-2.885 2.678-1.288 3.962l23.487 18.878c.706.567.992 1.447.754 2.321l-7.263 26.715-8.161 5.342c-1.715 1.123-3.908-.471-3.37-2.449l7.905-29.078a2.186 2.186 0 0 0-.754-2.321l-23.487-18.878c-1.597-1.284-.759-3.862 1.288-3.962l30.097-1.467a2.188 2.188 0 0 0 1.975-1.435l10.696-28.171c.725-1.904 3.445-1.904 4.168.001zm26.725 81.657-20.519-13.432a2.188 2.188 0 0 0-2.441 0l-4.629 3.03 25.212 16.504c1.714 1.123 3.908-.471 3.37-2.449z" opacity="1" data-original="#ffd064"></path><path fill="#ffe177" d="M408.917 303.247a89.702 89.702 0 0 1 26.261 10.887l17.065-7.579 20.113 20.112-7.577 17.06a89.671 89.671 0 0 1 10.889 26.268l17.41 6.701v28.443l-17.414 6.703a89.691 89.691 0 0 1-10.887 26.261l7.579 17.065-20.112 20.113-17.06-7.577a89.644 89.644 0 0 1-26.268 10.889l-6.701 17.41h-28.443l-6.703-17.414a89.691 89.691 0 0 1-26.261-10.887l-17.065 7.579-20.113-20.112 7.577-17.059a89.655 89.655 0 0 1-10.889-26.268l-17.41-6.701v-28.443l17.412-6.702a89.678 89.678 0 0 1 10.888-26.263l-7.578-17.063 20.112-20.113 17.065 7.579a89.702 89.702 0 0 1 26.261-10.887l6.703-17.414h28.442z" opacity="1" data-original="#ffe177"></path><path fill="#ffd064" d="m340.808 467.701-17.065 7.579-2.627-2.628 15.999-7.106a88.572 88.572 0 0 0 3.693 2.155zm68.109-164.454a89.702 89.702 0 0 1 26.261 10.887l-4.851 2.154c-8.121-5-20.676-10.833-29.954-13.041l-6.703-17.414h8.544zm26.267 164.456a89.644 89.644 0 0 1-26.268 10.889l-6.701 17.41h-8.544l6.701-17.41c9.28-2.208 21.838-8.041 29.961-13.043zM321.115 309.182l2.628-2.628 17.065 7.579a90.83 90.83 0 0 0-3.693 2.154zm125.212 0 5.916-2.628 20.113 20.112-7.577 17.06a89.671 89.671 0 0 1 10.889 26.268l17.41 6.701v28.443l-17.414 6.703a89.691 89.691 0 0 1-10.887 26.261l7.579 17.065-20.112 20.113-5.916-2.628 17.485-17.485-7.579-17.065a89.664 89.664 0 0 0 10.887-26.261l17.414-6.703v-28.443l-17.41-6.701a89.671 89.671 0 0 0-10.889-26.268l7.577-17.06z" opacity="1" data-original="#ffd064"></path><circle cx="387.993" cy="390.917" r="49.601" fill="#eceff1" transform="rotate(-49.75 387.925 390.956)" opacity="1" data-original="#eceff1"></circle><path fill="#d1d1d6" d="M387.993 341.316c-27.396 0-49.601 22.205-49.601 49.601s22.205 49.601 49.601 49.601c1.328 0 2.644-.053 3.945-.156-25.551-2.011-45.656-23.377-45.656-49.445 0-26.069 20.105-47.435 45.656-49.445a50.489 50.489 0 0 0-3.945-.156z" opacity="1" data-original="#d1d1d6"></path><path d="M388.01 432.517c-22.941 0-41.599-18.658-41.599-41.6 0-22.941 18.658-41.609 41.599-41.609s41.609 18.667 41.609 41.609-18.667 41.6-41.609 41.6zm0-99.211c-31.757 0-57.598 25.841-57.598 57.612 0 31.762 25.841 57.598 57.598 57.598 31.762 0 57.612-25.836 57.612-57.598.001-31.771-25.85-57.612-57.612-57.612zm97.08 66.343v-17.462l-12.28-4.726a8.035 8.035 0 0 1-4.909-5.611 81.287 81.287 0 0 0-9.922-23.93 7.986 7.986 0 0 1-.485-7.441l5.338-12.04-12.341-12.341-12.049 5.352a8.02 8.02 0 0 1-7.441-.499 81.469 81.469 0 0 0-23.921-9.922 8.008 8.008 0 0 1-5.606-4.909l-4.73-12.285h-17.463l-4.73 12.285a7.962 7.962 0 0 1-5.606 4.909 81.463 81.463 0 0 0-23.92 9.922 8.017 8.017 0 0 1-7.442.499l-12.04-5.352-12.351 12.341 5.352 12.04a8.038 8.038 0 0 1-.499 7.451 81.616 81.616 0 0 0-9.922 23.92 7.993 7.993 0 0 1-4.909 5.611l-12.28 4.726v17.462l12.28 4.721a8.002 8.002 0 0 1 4.909 5.615 81.548 81.548 0 0 0 9.922 23.925 8.012 8.012 0 0 1 .499 7.437l-5.352 12.04 12.351 12.351 12.04-5.352a7.978 7.978 0 0 1 7.442.504 81.44 81.44 0 0 0 23.92 9.908 7.983 7.983 0 0 1 5.606 4.909l4.73 12.29h17.463l4.73-12.28a8.008 8.008 0 0 1 5.606-4.909 81.476 81.476 0 0 0 23.934-9.917 8.01 8.01 0 0 1 7.437-.504l12.04 5.352 12.341-12.351-5.352-12.04a8.025 8.025 0 0 1 .499-7.437 81.413 81.413 0 0 0 9.922-23.925 7.995 7.995 0 0 1 4.909-5.606zM345.823 200.642V302.33a90.383 90.383 0 0 0-5.493 2.829l-13.321-5.921a8.012 8.012 0 0 0-8.901 1.662l-6.458 6.448V200.642zm93.149-47.365v150.432l-3.271 1.45a97.408 97.408 0 0 0-20.771-8.609l-5.229-13.589a7.982 7.982 0 0 0-4.9-4.693V153.277zm57 215.952L482.388 364a97.504 97.504 0 0 0-8.618-20.781l5.912-13.297a7.985 7.985 0 0 0-1.652-8.91L457.922 300.9a7.912 7.912 0 0 0-2.951-1.859V145.275a8.001 8.001 0 0 0-8.002-8.002h-50.171a7.997 7.997 0 0 0-7.997 8.002v132.56h-15.01a7.98 7.98 0 0 0-7.461 5.126l-4.509 11.706V192.645a8.001 8.001 0 0 0-8.002-8.002h-50.171a8 8 0 0 0-7.997 8.002v165.122a98.224 98.224 0 0 0-2.01 6.232l-13.584 5.229a8.008 8.008 0 0 0-5.126 7.47v28.439a7.983 7.983 0 0 0 5.126 7.461l13.584 5.229a95.465 95.465 0 0 0 2.01 6.241v15.269c0 2.692 1.337 5.069 3.38 6.524l-2.692 6.058a8.01 8.01 0 0 0 1.652 8.901l20.117 20.108a7.99 7.99 0 0 0 8.901 1.662l13.321-5.912a97.727 97.727 0 0 0 20.771 8.614l5.229 13.579a7.99 7.99 0 0 0 7.461 5.13h28.439a8.014 8.014 0 0 0 7.47-5.13l5.229-13.579a97.403 97.403 0 0 0 20.771-8.614l13.311 5.912a7.997 7.997 0 0 0 8.91-1.662l20.108-20.108a7.978 7.978 0 0 0 1.652-8.901l-5.912-13.32a96.99 96.99 0 0 0 8.609-20.771l13.594-5.229a7.974 7.974 0 0 0 5.116-7.461v-28.439a7.998 7.998 0 0 0-5.116-7.47zM407.52 55.026a10.249 10.249 0 0 0 9.07-6.585l5.3-13.961 5.3 13.961a10.205 10.205 0 0 0 9.061 6.58l14.911.73-11.631 9.352a10.23 10.23 0 0 0-3.474 10.657l3.921 14.408-12.488-8.18a10.253 10.253 0 0 0-11.212.005l-12.487 8.176 3.916-14.408a10.2 10.2 0 0 0-3.46-10.652l-11.64-9.357zm-36.779 3.671 20.541 16.512-6.924 25.431c-1.115 4.137.391 8.439 3.865 10.958 1.807 1.308 3.907 1.972 6.01 1.972 1.939 0 3.888-.56 5.611-1.69l22.047-14.436 22.052 14.436c3.577 2.349 8.138 2.236 11.607-.282 3.474-2.518 4.98-6.816 3.86-10.958l-6.919-25.431 20.55-16.512c3.342-2.683 4.641-7.055 3.323-11.132-1.332-4.076-4.952-6.848-9.23-7.056l-26.335-1.28-9.348-24.641c-1.521-4.005-5.267-6.589-9.56-6.589-4.288 0-8.049 2.584-9.569 6.589l-9.353 24.641-26.316 1.28c-4.293.207-7.912 2.979-9.23 7.056-1.333 4.076-.024 8.449 3.318 11.132zm-351.83 244.88a7.993 7.993 0 0 1-7.55-5.37c-1.459-4.17.753-8.731 4.919-10.181 120.491-41.962 226.514-102.972 315.431-181.45l-17.58.951c-4.41.235-8.181-3.14-8.421-7.55a7.998 7.998 0 0 1 7.55-8.425l40.131-2.174a7.991 7.991 0 0 1 6.34 2.593 8.042 8.042 0 0 1 2.01 6.547l-5.789 39.759a8.007 8.007 0 0 1-9.07 6.763c-4.382-.635-7.399-4.697-6.769-9.07l2.589-17.754c-90.57 80.031-198.513 142.209-321.16 184.924-.871.3-1.76.437-2.631.437zm47.45 127.759H32.194v-80.248h34.167zm8.002-96.246H24.192a8.001 8.001 0 0 0-8.002 8.002v96.246a8.001 8.001 0 0 0 8.002 8.002h50.171a7.997 7.997 0 0 0 7.997-8.002v-96.246a7.998 7.998 0 0 0-7.997-8.002zm85.147 96.246V300.668h-34.158v130.668zm8.002-146.671H117.35a7.997 7.997 0 0 0-7.997 8.002v146.671a7.997 7.997 0 0 0 7.997 8.002h50.161a7.997 7.997 0 0 0 7.997-8.002V292.667a7.995 7.995 0 0 0-7.996-8.002zm85.157 146.671V248.012h-34.167v183.324zm8.001-199.327H210.5a7.997 7.997 0 0 0-7.997 8.002v199.327a7.997 7.997 0 0 0 7.997 8.002h50.171a8.001 8.001 0 0 0 8.002-8.002V240.011a8.003 8.003 0 0 0-8.003-8.002z" fill="#000000" opacity="1" data-original="#000000"></path></g></g></svg>