<svg xmlns="http://www.w3.org/2000/svg" version="1.1" xmlns:xlink="http://www.w3.org/1999/xlink" width="512" height="512" x="0" y="0" viewBox="0 0 66 66" style="enable-background:new 0 0 512 512" xml:space="preserve" class=""><circle r="33" cx="33" cy="33" fill="#ffffff" shape="circle"></circle><g transform="matrix(0.9,0,0,0.9,3.299999952316302,3.3004997730255283)"><path fill="#ff4148" d="M64.5 28.93v8.14l-4.64.92c-.7 3.84-2.21 7.39-4.34 10.48l2.63 3.94-5.75 5.75-3.94-2.63a27.032 27.032 0 0 1-10.48 4.34l-.92 4.64h-8.14L28 59.87c-3.84-.7-7.39-2.21-10.48-4.34l-3.94 2.63-5.73-5.76 2.63-3.94a26.969 26.969 0 0 1-4.34-10.48l-4.64-.91v-8.14l4.64-.92c.7-3.84 2.21-7.39 4.34-10.48L7.85 13.6l5.75-5.75 3.94 2.63c3.09-2.13 6.64-3.64 10.48-4.34l.92-4.64h8.14L38 6.14c3.83.7 7.38 2.21 10.48 4.34l3.94-2.63 5.75 5.75-2.63 3.94c2.13 3.09 3.64 6.64 4.34 10.48z" opacity="1" data-original="#ff4148" class=""></path><path fill="#ff4148" d="M53.03 33c0 11.06-8.97 20.02-20.02 20.02-11.06 0-20.03-8.97-20.03-20.02 0-11.06 8.97-20.03 20.03-20.03 11.05 0 20.02 8.97 20.02 20.03z" opacity="1" data-original="#ff4148" class=""></path><path fill="#ffffff" d="M53.02 33c0 9.81-7.05 17.97-16.36 19.68-1.19.22-2.41.34-3.67.34-1.25 0-2.48-.12-3.67-.34-9.29-1.71-16.34-9.87-16.34-19.68 0-3.97 1.16-7.67 3.14-10.78 3.56-5.56 9.79-9.24 16.88-9.24s13.32 3.68 16.88 9.24c1.99 3.11 3.14 6.81 3.14 10.78z" opacity="1" data-original="#ffffff"></path><path fill="#161c1c" d="M25.32 37.1c-.28 0-.55-.16-.67-.44-.17-.37 0-.81.37-.98l22.2-9.96c.37-.16.81 0 .98.37s0 .81-.37.98l-22.2 9.96a.73.73 0 0 1-.31.07z" opacity="1" data-original="#161c1c"></path><g fill="#04b5a4"><circle cx="44.25" cy="21.49" r="1.47" transform="rotate(-45 44.25 21.501)" fill="#04b5a4" opacity="1" data-original="#04b5a4"></circle><circle cx="21.36" cy="44.38" r="1.47" transform="rotate(-45 21.355 44.389)" fill="#04b5a4" opacity="1" data-original="#04b5a4"></circle><circle cx="44.25" cy="44.38" r="1.47" transform="rotate(-45 44.246 44.393)" fill="#04b5a4" opacity="1" data-original="#04b5a4"></circle><circle cx="21.36" cy="21.49" r="1.47" transform="rotate(-45 21.358 21.498)" fill="#04b5a4" opacity="1" data-original="#04b5a4"></circle><circle cx="32.81" cy="16.75" r="1.47" fill="#04b5a4" opacity="1" data-original="#04b5a4"></circle><circle cx="32.81" cy="49.12" r="1.47" fill="#04b5a4" opacity="1" data-original="#04b5a4"></circle><circle cx="48.99" cy="32.94" r="1.47" fill="#04b5a4" opacity="1" data-original="#04b5a4"></circle><circle cx="16.62" cy="32.94" r="1.47" fill="#04b5a4" opacity="1" data-original="#04b5a4"></circle></g><circle cx="44.25" cy="44.38" r="1.47" style="stroke-width:1.477;stroke-linecap:round;stroke-linejoin:round;stroke-miterlimit:10" transform="rotate(-45 44.246 44.393)" fill="none" stroke="#161c1c" stroke-width="1.477" stroke-linecap="round" stroke-linejoin="round" stroke-miterlimit="1" data-original="#161c1c"></circle><path fill="#161c1c" d="M39.56 40.3c-.19 0-.38-.07-.52-.22l-4.97-4.97a.73.73 0 0 1 0-1.04.73.73 0 0 1 1.04 0l4.97 4.97c.29.29.29.76 0 1.04-.14.15-.33.22-.52.22zM33 31.49c-.41 0-.74-.33-.74-.74V20.53c0-.41.33-.74.74-.74s.74.33.74.74v10.22c0 .41-.33.74-.74.74z" opacity="1" data-original="#161c1c"></path><path fill="#ffd24f" d="M61.53 51.07c0 6.19-5.02 11.2-11.2 11.2-6.19 0-11.2-5.01-11.2-11.2s5.01-11.2 11.2-11.2 11.2 5.01 11.2 11.2z" opacity="1" data-original="#ffd24f"></path><path fill="#ffffff" d="m56.64 48.69-8.05 7.23c-.17.16-.44.13-.58-.05l-3.32-4.2a.402.402 0 0 1 .07-.57l1.78-1.4c.17-.14.43-.11.57.07l1.29 1.63c.14.18.41.21.58.05l5.62-5.04c.17-.15.42-.13.57.03l1.51 1.68c.14.16.12.42-.04.57z" opacity="1" data-original="#ffffff"></path><path fill="#007afd" d="M35.25 33c0 1.24-1.01 2.25-2.25 2.25s-2.25-1.01-2.25-2.25 1.01-2.25 2.25-2.25 2.25 1.01 2.25 2.25z" opacity="1" data-original="#007afd"></path></g></svg>