<svg xmlns="http://www.w3.org/2000/svg" version="1.1" xmlns:xlink="http://www.w3.org/1999/xlink" width="512" height="512" x="0" y="0" viewBox="0 0 512 512" style="enable-background:new 0 0 512 512" xml:space="preserve" class=""><circle r="256" cx="256" cy="256" fill="#ffffff" shape="circle"></circle><g transform="matrix(0.71,0,0,0.71,74.24030311584482,64.24001617908488)"><path fill="#ffcec0" fill-rule="evenodd" d="M408.742 219.218h49.357v160.687L435.71 382c-30.249 2.372-68.409 8.261-97.946 2.882-21.921-3.992-27.548-10.55-58.898-10.55-.909 0-7.035-.029-12.37-.037V233.097c83.515-5.447 99.904-41.797 93.698-115.471a8.572 8.572 0 0 1 7.579-9.232c56.031-6.298 44.43 83.951 40.97 110.823z" opacity="1" data-original="#ffcec0"></path><path fill="#ffc0b1" fill-rule="evenodd" d="M266.495 248.027v-14.93c83.516-5.447 99.904-41.796 93.698-115.47-.389-4.618 2.974-8.715 7.579-9.232 4.994-.561 9.441-.343 13.414.516-3.473 1.335-5.787 4.843-5.461 8.716 4.048 48.071 8.724 128.187-109.23 130.4z" opacity="1" data-original="#ffc0b1"></path><path fill="#fdb0a0" fill-rule="evenodd" d="M458.099 219.218c-.581 16.804-4.504 48.389-46.178 48.787-8.128 14.893-20.723 26.981-39.293 33.093-12.927 3.464-17.502-12.267-6.781-15.796 14.516-4.778 24.369-14.24 30.733-25.901 6.693-12.265 11.716-25.668 12.271-40.184H458.1z" opacity="1" data-original="#fdb0a0"></path><path fill="#fdb0a0" d="M433.168 219.218h41.329c11.5 0 20.836 9.336 20.836 20.836 0 11.5-9.336 20.836-20.835 20.836h-41.33c-11.499 0-20.835-9.336-20.835-20.835 0-11.5 9.336-20.836 20.836-20.836z" opacity="1" data-original="#fdb0a0"></path><path fill="#ffcec0" fill-rule="evenodd" d="M433.168 219.218h41.329c11.46 0 20.836 9.376 20.836 20.836h-83.001c0-11.46 9.376-20.836 20.836-20.836z" opacity="1" data-original="#ffcec0"></path><path fill="#4eb1fc" d="M219.481 221.743h55.892c6.387 0 11.572 5.185 11.572 11.572v140.764c0 6.387-5.185 11.572-11.572 11.572h-55.892c-6.387 0-11.573-5.186-11.573-11.573V233.314c0-6.387 5.185-11.572 11.572-11.572z" opacity="1" data-original="#4eb1fc"></path><path fill="#85caff" d="M219.481 221.743h31.766c6.387 0 11.572 5.185 11.572 11.572v140.762c0 6.387-5.186 11.573-11.573 11.573h-31.765c-6.387 0-11.572-5.185-11.572-11.572V233.315c0-6.387 5.185-11.572 11.572-11.572z" opacity="1" data-original="#85caff"></path><path fill="#fdb0a0" d="M425.082 260.89h55.087c11.499 0 20.835 9.336 20.835 20.835 0 11.5-9.336 20.836-20.836 20.836h-55.087c-11.499 0-20.836-9.336-20.836-20.836 0-11.5 9.336-20.836 20.835-20.836z" opacity="1" data-original="#fdb0a0"></path><path fill="#ffcec0" fill-rule="evenodd" d="M425.083 260.89h55.086c11.46 0 20.836 9.376 20.836 20.836h-96.758c0-11.46 9.376-20.836 20.836-20.836z" opacity="1" data-original="#ffcec0"></path><rect width="89.122" height="41.671" x="405.911" y="302.562" fill="#fdb0a0" rx="20.835" opacity="1" data-original="#fdb0a0"></rect><g fill-rule="evenodd"><path fill="#ffcec0" d="M426.746 302.562h47.452c11.459 0 20.835 9.376 20.835 20.836h-89.122c0-11.46 9.376-20.836 20.835-20.836z" opacity="1" data-original="#ffcec0"></path><path fill="#fdb0a0" d="M435.709 344.233h29.344c10.386 0 18.883 8.497 18.883 18.883S475.439 382 465.053 382h-29.344c-10.386 0-18.883-8.497-18.883-18.884 0-10.386 8.497-18.883 18.883-18.883z" opacity="1" data-original="#fdb0a0"></path><path fill="#ffcec0" d="M435.709 344.233h29.344c10.386 0 18.883 8.497 18.883 18.883h-67.111c0-10.386 8.497-18.883 18.883-18.883z" opacity="1" data-original="#ffcec0"></path><path fill="#2a92fa" d="M256.701 18.468c14.724 9.193 32.934 15.459 49.717 19.742l16.896 4.312v72.409c0 10.823-2.722 20.959-8.253 30.271-12.59 21.199-38.025 34.643-58.634 47.103l-11.613 7.021-11.613-7.021c-20.61-12.46-46.044-25.904-58.634-47.103-5.53-9.312-8.253-19.448-8.253-30.271V42.522l16.896-4.312c16.782-4.282 34.992-10.548 49.717-19.742l11.888-7.422 11.888 7.422z" opacity="1" data-original="#2a92fa"></path><path fill="#4eb1fc" d="M256.701 18.468c14.724 9.194 32.934 15.459 49.716 19.742l9.634 2.459v71.357c0 10.823-2.722 20.959-8.253 30.271-12.59 21.199-38.025 34.643-58.634 47.103l-10.384 6.278-5.58-3.373c-20.61-12.46-46.044-25.904-58.634-47.103-5.53-9.312-8.253-19.448-8.253-30.271V42.522l16.896-4.312c16.782-4.282 34.992-10.548 49.717-19.742l11.888-7.422 11.888 7.422z" opacity="1" data-original="#4eb1fc"></path><path fill="#2a92fa" d="M188.76 59.959a284.115 284.115 0 0 1-6.197 1.656v54.972c0 6.803 1.631 12.959 5.106 18.81 9.52 16.029 34.301 30.061 52.012 40.769a788.388 788.388 0 0 1 5.132-3.068l3.09-2.509-59.144-110.628z" opacity="1" data-original="#2a92fa"></path><path fill="#ffffff" d="M244.814 37.507c-19.588 12.229-43.305 19.198-56.054 22.451v54.972c0 6.803 1.631 12.959 5.106 18.81 9.52 16.029 33.236 28.648 50.948 39.356 17.712-10.708 41.428-23.327 50.948-39.356 3.475-5.851 5.106-12.007 5.106-18.81V59.959c-12.749-3.254-36.466-10.222-56.054-22.451z" opacity="1" data-original="#ffffff"></path><path fill="#e3f1ff" d="M244.814 173.096c17.712-10.708 41.428-23.327 50.948-39.356 3.475-5.851 5.106-12.007 5.106-18.81V59.959c-12.749-3.254-36.466-10.222-56.054-22.451z" opacity="1" data-original="#e3f1ff"></path><path fill="#2dd62d" d="m185.802 364.615 52.882 111.651-37.46-3.327-23.84 28.766-41.71-116.287z" opacity="1" data-original="#2dd62d"></path><path fill="#43f043" d="m185.801 364.615 47.885 101.097-27.403-2.433-21.738 24.753-38.37-106.973z" opacity="1" data-original="#43f043"></path><path fill="#2dd62d" d="M77.08 364.417 24.197 476.068l37.46-3.327 23.84 28.766 41.711-116.287z" opacity="1" data-original="#2dd62d"></path><path fill="#43f043" d="M77.08 364.417 29.196 465.515l27.402-2.434 21.739 24.753 38.369-106.972z" opacity="1" data-original="#43f043"></path><path fill="#f9ac00" d="M105.346 197.08c-7.039 9.911-18.393 14.614-30.379 12.583-11.142-1.889-20.46.147-28.659 8.347-8.202 8.202-10.234 17.514-8.348 28.66 2.03 11.985-2.672 23.339-12.583 30.378-9.215 6.545-14.363 14.57-14.363 26.168s5.148 19.623 14.363 26.168c9.911 7.039 14.614 18.393 12.583 30.378-1.889 11.142.148 20.46 8.347 28.659 8.202 8.202 17.514 10.234 28.66 8.348 11.985-2.03 23.339 2.672 30.379 12.583 6.545 9.215 14.57 14.363 26.168 14.363s19.623-5.148 26.168-14.363c7.039-9.911 18.393-14.614 30.379-12.583 11.142 1.889 20.46-.148 28.659-8.347 8.202-8.202 10.234-17.514 8.348-28.66-2.03-11.985 2.672-23.339 12.583-30.378 9.215-6.545 14.364-14.57 14.364-26.168s-5.148-19.623-14.364-26.168c-9.911-7.039-14.614-18.393-12.583-30.378 1.89-11.142-.147-20.46-8.347-28.659-8.202-8.202-17.515-10.234-28.66-8.348-11.985 2.031-23.339-2.672-30.379-12.583-6.545-9.215-14.57-14.363-26.168-14.363s-19.623 5.148-26.168 14.363z" opacity="1" data-original="#f9ac00"></path><path fill="#fcdb35" d="M105.346 197.08c-7.039 9.911-18.393 14.614-30.379 12.584-11.142-1.89-20.46.147-28.659 8.347-8.203 8.202-10.234 17.515-8.348 28.659 2.03 11.985-2.673 23.34-12.583 30.379-9.215 6.545-14.363 14.57-14.363 26.168s5.149 19.623 14.363 26.168c9.91 7.039 14.614 18.393 12.584 30.379-1.89 11.142.147 20.46 8.347 28.659 8.202 8.203 17.515 10.234 28.66 8.348 11.985-2.031 23.34 2.672 30.379 12.583 5.189 7.305 11.308 12.054 19.399 13.709 8.092-1.655 14.21-6.404 19.399-13.709 7.039-9.91 18.393-14.614 30.378-12.583.514.087 1.025.165 1.531.236 3.828-.836 7.88-.935 12.008-.236l.156.025c5.422-1.117 10.369-3.777 14.964-8.372 8.203-8.201 10.235-17.514 8.348-28.659-2.031-11.985 2.672-23.34 12.583-30.379 9.215-6.545 14.363-14.57 14.363-26.168s-5.148-19.623-14.363-26.168c-9.91-7.039-14.614-18.393-12.583-30.379 1.889-11.142-.147-20.46-8.347-28.659-4.597-4.598-9.544-7.256-14.967-8.373l-.154.025c-4.127.699-8.18.599-12.007-.236-.507.07-1.017.149-1.532.236-11.985 2.03-23.339-2.672-30.378-12.583-5.189-7.305-11.308-12.054-19.399-13.709-8.091 1.655-14.21 6.404-19.399 13.709z" opacity="1" data-original="#fcdb35"></path></g><circle cx="121.489" cy="303.324" r="58.2" fill="#f9ac00" transform="rotate(-25.84 121.73 303.61)" opacity="1" data-original="#f9ac00"></circle><circle cx="131.514" cy="303.216" r="58.2" fill="#ffffff" transform="rotate(-25.84 131.765 303.496)" opacity="1" data-original="#ffffff"></circle><path fill-rule="evenodd" d="M215.748 106.136a7 7 0 0 1 2.562-9.563 7.007 7.007 0 0 1 9.561 2.564l6.936 12.011 28.047-28.043c2.734-2.733 7.166-2.733 9.9 0s2.734 7.163 0 9.895l-34.497 34.497a6.991 6.991 0 0 1-4.95 2.053c-.303 0-.608-.019-.913-.063a6.999 6.999 0 0 1-5.15-3.437l-11.496-19.916zm-20.124-40.898v49.714c0 5.673 1.314 10.527 4.137 15.28 7.463 12.566 25.74 23.406 41.868 32.974l3.176 1.884c1.047-.622 2.107-1.248 3.178-1.884 16.128-9.568 34.407-20.408 41.871-32.974 2.82-4.752 4.135-9.606 4.135-15.28V65.238c-14.443-3.977-32.965-10.315-49.183-19.719-16.217 9.404-34.738 15.742-49.181 19.719zm38.862 110.008c2.299 1.364 4.543 2.694 6.699 3.996a6.978 6.978 0 0 0 7.243 0c2.156-1.301 4.4-2.632 6.699-3.996 17.565-10.421 37.478-22.23 46.763-37.866 4.103-6.912 6.099-14.243 6.099-22.428V59.854a7 7 0 0 0-5.27-6.782c-15.057-3.841-36.683-10.719-54.207-21.656a6.995 6.995 0 0 0-7.413 0c-17.521 10.937-39.148 17.815-54.207 21.656a6.998 6.998 0 0 0-5.268 6.782v55.098c0 8.184 1.994 15.516 6.098 22.428 9.286 15.636 29.197 27.445 46.762 37.866zm-61.36-127.432v67.137c0 9.616 2.453 18.62 7.29 26.766 10.333 17.4 31.101 29.749 49.42 40.643 2.36 1.403 4.685 2.786 6.953 4.155l8.015 4.849 8.021-4.849c2.265-1.369 4.591-2.752 6.95-4.155 18.322-10.894 39.087-23.242 49.421-40.643 4.839-8.141 7.29-17.15 7.29-26.766V47.813l-11.666-2.974c-21.053-5.374-38.485-12.315-51.806-20.635l-8.209-5.124-8.206 5.124c-13.323 8.319-30.752 15.26-51.808 20.635l-11.666 2.974zm49.556 146.578c2.331 1.388 4.624 2.752 6.863 4.106l11.639 7.037a7.019 7.019 0 0 0 7.243 0l11.64-7.037c2.238-1.354 4.534-2.718 6.863-4.106 19.758-11.746 42.151-25.059 54.303-45.52 6.14-10.339 9.252-21.748 9.252-33.919V42.376a7 7 0 0 0-5.268-6.782l-16.934-4.324c-19.657-5.013-35.759-11.385-47.854-18.938L248.512 4.89a7.005 7.005 0 0 0-7.413 0l-11.915 7.442c-12.099 7.553-28.198 13.925-47.856 18.938l-16.934 4.324a7.002 7.002 0 0 0-5.27 6.782v72.575c0 12.166 3.114 23.58 9.254 33.919 12.154 20.461 34.546 33.774 54.303 45.52zm-63.227 87.17c2.734 2.728 2.734 7.167 0 9.9l-34.497 34.497a7.006 7.006 0 0 1-4.95 2.053 7.024 7.024 0 0 1-6.063-3.5l-11.496-19.921a6.993 6.993 0 0 1 2.56-9.558c3.348-1.933 7.63-.795 9.563 2.559l6.937 12.021 28.046-28.052a7.01 7.01 0 0 1 9.9 0zm-27.947 73.221c28.133 0 51.021-22.89 51.021-51.025s-22.888-51.02-51.021-51.02-51.022 22.886-51.022 51.02 22.887 51.025 51.022 51.025zm0-116.047c-35.855 0-65.021 29.171-65.021 65.022s29.166 65.022 65.021 65.022 65.021-29.171 65.021-65.022-29.168-65.022-65.021-65.022zm342.654 98.603h-47.504c-7.643 0-13.86-6.218-13.86-13.857s6.217-13.862 13.86-13.862h47.504c7.64 0 13.859 6.223 13.859 13.862s-6.218 13.857-13.859 13.857zm-9.155 37.813h-29.376c-6.565 0-11.905-5.341-11.905-11.91s5.34-11.901 11.905-11.901h29.376c6.564 0 11.904 5.34 11.904 11.901s-5.34 11.91-11.904 11.91zm-126.175 2.998c-7.147-1.311-12.547-2.921-17.77-4.468-7.526-2.251-15.302-4.56-27.36-5.611V236.855c31.042-5.697 50.991-17.723 62.497-37.577 10.717-18.485 14.05-43.891 10.808-82.379a1.592 1.592 0 0 1 1.393-1.702c9.838-1.104 17.359 1.152 23.012 6.893 20.043 20.369 12.694 77.444 10.28 96.203-.004.029-.004.058-.008.087a8.486 8.486 0 0 0-.034.467c-.004.096-.011.183-.013.275 0 .14.007.28.015.424.006.101.008.212.017.318.004.024.002.053.006.082 4.214 38.546-5.569 58.053-33.765 67.336a6.99 6.99 0 0 0-4.461 8.826 7.005 7.005 0 0 0 6.648 4.82c.725 0 1.463-.116 2.19-.357 10.708-3.519 18.954-8.319 25.271-13.992 1.177 6.729 4.773 12.633 9.86 16.783-5.306 5.08-8.62 12.219-8.62 20.119 0 10.951 6.355 20.437 15.569 24.992a25.764 25.764 0 0 0-4.641 14.769c0 5.109 1.488 9.866 4.048 13.877-24.908 2.42-52.898 5.042-74.944 1.031zm-59.129-3.928c0 2.477-2.099 4.579-4.585 4.579h-44.071c1.843-5.9 2.15-12.421.922-19.661-1.572-9.269 2.067-18.061 9.734-23.507 11.649-8.271 17.313-18.702 17.313-31.875s-5.664-23.609-17.313-31.875c-7.667-5.446-11.305-14.233-9.734-23.507 1.226-7.244.919-13.766-.922-19.661h44.071c2.486 0 4.585 2.102 4.585 4.584v140.924zm-67.932 9.799c-6.121 6.121-12.864 8.03-22.543 6.401-14.697-2.492-28.627 3.277-37.257 15.429-5.684 8.001-11.803 11.419-20.462 11.419s-14.778-3.417-20.465-11.419c-7.307-10.291-18.41-16.002-30.562-16.002-2.203 0-4.44.183-6.695.574-9.672 1.639-16.417-.28-22.541-6.401-6.123-6.121-8.034-12.86-6.396-22.543 2.489-14.696-3.28-28.626-15.433-37.259C21.415 318.542 18 312.421 18 303.759s3.416-14.778 11.417-20.466c12.156-8.633 17.925-22.558 15.433-37.254-1.642-9.679.271-16.417 6.396-22.543 6.121-6.121 12.863-8.035 22.543-6.396 14.701 2.492 28.625-3.278 37.255-15.429 5.684-8.006 11.805-11.419 20.465-11.419s14.778 3.413 20.462 11.419c8.633 12.151 22.56 17.921 37.26 15.429 9.674-1.639 16.416.275 22.541 6.396 6.121 6.121 8.034 12.865 6.396 22.543-2.491 14.696 3.278 28.621 15.432 37.254 8.004 5.688 11.417 11.809 11.417 20.466s-3.414 14.783-11.417 20.461c-12.154 8.633-17.923 22.563-15.432 37.259 1.64 9.674-.273 16.422-6.396 22.543zm15.462 83.507-29.574-62.646c-3.404.188-6.985-.024-10.77-.66-9.275-1.571-18.06 2.068-23.505 9.736-2.102 2.95-4.344 5.524-6.733 7.712l23.353 65.379 16.1-19.376a6.977 6.977 0 0 1 6.04-2.502zM83.374 487.251l23.319-65.292c-2.512-2.251-4.865-4.907-7.063-8.001-5.445-7.669-14.234-11.308-23.503-9.736-3.621.607-7.059.839-10.331.689L36.145 467.73l25.089-2.362a7.02 7.02 0 0 1 6.04 2.492l16.101 19.391zm391.088-261.063c7.642 0 13.858 6.218 13.858 13.858s-6.216 13.857-13.858 13.857h-41.373c-7.642 0-13.859-6.218-13.859-13.857s6.217-13.858 13.859-13.858zm-49.469 69.433h55.148c7.645 0 13.857-6.218 13.857-13.862s-6.213-13.853-13.857-13.853h-55.148c-7.643 0-13.858 6.218-13.858 13.853s6.215 13.862 13.858 13.862zm83.008-13.862c0-9.746-5.042-18.336-12.648-23.315 4.333-4.912 6.97-11.351 6.97-18.398 0-15.362-12.498-27.86-27.86-27.86h-57.897c3.146-26.433 7.144-77.236-15.175-99.914-8.74-8.883-20.369-12.58-34.552-10.985-8.441.95-14.492 8.319-13.78 16.783 5.769 68.502-10.049 95.745-62.371 105.111-3.32-5.09-9.053-8.464-15.567-8.464h-52.39c-.35-.376-.693-.752-1.06-1.123-9.318-9.317-20.692-12.686-34.78-10.3-9.271 1.571-18.06-2.063-23.505-9.732-8.273-11.65-18.7-17.314-31.876-17.314s-23.603 5.664-31.878 17.314c-5.445 7.669-14.234 11.308-23.505 9.732-14.09-2.381-25.464.988-34.78 10.305-9.318 9.317-12.689 20.692-10.299 34.777 1.57 9.274-2.069 18.061-9.736 23.507-11.649 8.266-17.311 18.697-17.311 31.875s5.662 23.604 17.311 31.875c7.667 5.446 11.306 14.238 9.736 23.507-2.385 14.089.985 25.46 10.299 34.781 3.261 3.258 6.782 5.779 10.574 7.592l-33.676 71.346a6.99 6.99 0 0 0 .601 7.004 6.997 6.997 0 0 0 6.385 2.95l33.637-3.162 21.583 25.99a6.999 6.999 0 0 0 5.385 2.53c.405 0 .814-.029 1.22-.111a6.988 6.988 0 0 0 5.373-4.526l26.527-74.272c3.883 1.33 8.055 2.01 12.555 2.01 4.649 0 8.949-.718 12.939-2.15l26.504 74.209a6.997 6.997 0 0 0 5.373 4.54c.407.067.814.101 1.22.101 2.06 0 4.041-.911 5.385-2.53l21.583-25.994 33.637 3.172c2.5.231 4.94-.897 6.384-2.95a7.002 7.002 0 0 0 .601-7.008l-33.669-71.331c3.653-1.798 7.049-4.261 10.205-7.409.365-.371.708-.752 1.058-1.123h52.39c7.477 0 13.92-4.449 16.866-10.826 10.887.897 17.511 2.868 25.076 5.119 5.585 1.668 11.359 3.389 19.263 4.83 9.2 1.672 19.148 2.309 29.379 2.309 16.868 0 34.503-1.721 50.781-3.307 6.822-.66 13.269-1.292 19.44-1.774h29.082c14.283 0 25.906-11.616 25.906-25.907a25.764 25.764 0 0 0-4.594-14.701c9.288-4.521 15.699-14.06 15.699-25.059a27.693 27.693 0 0 0-6.854-18.268c7.712-4.965 12.836-13.621 12.836-23.454z" fill="#000000" opacity="1" data-original="#000000" class=""></path></g></svg>