<svg xmlns="http://www.w3.org/2000/svg" version="1.1" xmlns:xlink="http://www.w3.org/1999/xlink" width="512" height="512" x="0" y="0" viewBox="0 0 512 512" style="enable-background:new 0 0 512 512" xml:space="preserve" class=""><circle r="256" cx="256" cy="256" fill="#ffffff" shape="circle"></circle><g transform="matrix(0.72,0,0,0.72,71.67999332427979,61.68000614166263)"><g fill-rule="evenodd" clip-rule="evenodd"><path fill="#ffd6bd" d="m347.339 460.241 93.783 25.129c-1.338-7.784-2.149-14.521-2.368-20.492-.46-7.118.189-13.702 2.266-19.941 2.127-6.657 5.766-12.407 11.134-18.186l.017-.018 35.629-38.326c8.113-8.727 12.68-18.694 12.68-30.613l.002-147.284c0-13.142-10.753-23.893-23.897-23.895-13.142-.002-23.896 10.753-23.896 23.895l-.002 102.569a25.542 25.542 0 0 0-.487-.503c-10.225-10.307-27.076-10.374-37.384-.148l-65.514 65c-7.265 9.453-10.151 20.177-8.605 31.999z" opacity="1" data-original="#ffd6bd"></path><path fill="#f9c6aa" d="M443.486 341.391c8.862-8.8 10.16-22.453 3.864-32.666a26.17 26.17 0 0 1 4.852 3.852c10.24 10.321 10.18 27.15-.148 37.382-12.764 12.646-25.395 25.396-38.103 38.103-2.365 2.365-6.235 2.365-8.599 0-2.366-2.365-2.365-6.235 0-8.6 12.68-12.681 25.333-25.36 38.134-38.071z" opacity="1" data-original="#f9c6aa" class=""></path><path fill="#0e7e99" d="m333.345 444.75 114.639 30.718c2.797.75 4.471 3.649 3.722 6.445l-5.677 21.188c-.749 2.795-3.649 4.471-6.446 3.721l-114.639-30.718c-2.797-.75-4.471-3.65-3.722-6.445l5.677-21.188c.749-2.797 3.648-4.471 6.446-3.721z" opacity="1" data-original="#64b5f6" class=""></path><path fill="#ffd6bd" d="M164.661 460.241 70.879 485.37c1.338-7.784 2.149-14.521 2.368-20.492.46-7.118-.189-13.702-2.266-19.941-2.127-6.657-5.766-12.407-11.134-18.186l-.017-.018-35.63-38.325c-8.113-8.727-12.68-18.694-12.68-30.613l-.002-147.284c0-13.142 10.753-23.893 23.897-23.895 13.142-.002 23.896 10.753 23.896 23.895l.002 102.569c.159-.17.321-.337.486-.504 10.225-10.307 27.077-10.374 37.384-.148l65.514 65c7.265 9.453 10.151 20.177 8.605 31.999z" opacity="1" data-original="#ffd6bd"></path><path fill="#f9c6aa" d="M68.514 341.391c-8.862-8.8-10.16-22.453-3.864-32.666a26.205 26.205 0 0 0-4.852 3.851c-10.24 10.321-10.18 27.15.148 37.383 12.764 12.646 25.395 25.396 38.102 38.103 2.365 2.365 6.235 2.365 8.6 0s2.365-6.235 0-8.6c-12.68-12.681-25.333-25.36-38.134-38.071z" opacity="1" data-original="#f9c6aa" class=""></path><path fill="#0e7e99" d="M178.655 444.75 64.016 475.468c-2.798.749-4.471 3.649-3.722 6.445l5.677 21.188c.749 2.795 3.649 4.471 6.446 3.721l114.639-30.718c2.797-.749 4.471-3.65 3.722-6.445l-5.677-21.188c-.749-2.796-3.648-4.471-6.446-3.721z" opacity="1" data-original="#64b5f6" class=""></path><path fill="#ffda2d" d="M256 83.353c74.275 0 134.485 60.212 134.485 134.484 0 49.158-26.372 92.157-65.74 115.613-8.487 5.057-13.314 13.547-13.314 23.427v32.791c0 10.183-8.304 18.487-18.487 18.487h-73.887c-10.183 0-18.487-8.304-18.487-18.487v-32.791c0-9.883-4.827-18.37-13.314-23.427-39.368-23.457-65.74-66.455-65.74-115.613C121.515 143.564 181.725 83.353 256 83.353z" opacity="1" data-original="#ffda2d" class=""></path><path fill="#7a8c98" d="M292.943 380.234v35.215c0 15.013-12.26 27.274-27.273 27.274h-19.342c-15.013 0-27.273-12.253-27.273-27.274v-22.454z" opacity="1" data-original="#7a8c98"></path><path fill="#ffda2d" d="M406.267 139.23a7.981 7.981 0 0 1-8-13.812l30.204-17.438a7.981 7.981 0 0 1 8 13.812zm-58.913-64.727a7.981 7.981 0 0 1-13.812-8L350.979 36.3a7.981 7.981 0 0 1 13.812 8zm-233.622 50.914a7.981 7.981 0 0 1-8 13.812l-30.204-17.438a7.981 7.981 0 0 1 8-13.812zm64.727-58.914a7.981 7.981 0 0 1-13.812 8L147.208 44.3a7.981 7.981 0 0 1 13.812-8zM264 47.876a8 8 0 0 1-16 0V12.999a8 8 0 0 1 16 0z" opacity="1" data-original="#ffda2d" class=""></path><path fill="#8d9ca8" d="M200.569 389.668c0 10.183 8.304 18.487 18.487 18.487h73.887c10.183 0 18.487-8.304 18.487-18.487v-13.507H200.569zM238.825 115.081h34.35v17.236a86.897 86.897 0 0 1 31.264 12.958l12.193-12.193 24.289 24.289-12.193 12.193a86.902 86.902 0 0 1 12.958 31.263h17.235v34.35h-17.235a86.887 86.887 0 0 1-12.957 31.264l12.193 12.192-24.29 24.289-12.192-12.192a86.89 86.89 0 0 1-31.264 12.958v17.234h-34.35v-17.234a86.89 86.89 0 0 1-31.264-12.958l-12.192 12.192-24.289-24.289 12.192-12.192a86.894 86.894 0 0 1-12.958-31.265h-17.234v-34.35h17.234a86.897 86.897 0 0 1 12.958-31.264l-12.192-12.193 24.289-24.289 12.192 12.192a86.914 86.914 0 0 1 31.264-12.958v-17.233z" opacity="1" data-original="#8d9ca8"></path><circle cx="256" cy="218.002" r="53.34" fill="#eff4f7" transform="rotate(-67.23 256.05 218.03)" opacity="1" data-original="#eff4f7"></circle><path fill="#72d561" d="M243.229 229.057h-12.482c-2.761.001-4.451-3.18-2.685-5.465l25.253-32.68a3.39 3.39 0 0 1 5.368 0l25.253 32.68c1.767 2.286.076 5.467-2.685 5.465H268.77v40.742c-4.092 1.006-8.369 1.543-12.771 1.543s-8.679-.537-12.771-1.543v-40.742z" opacity="1" data-original="#72d561"></path></g></g></svg>